<?xml version="1.0" encoding="UTF-8" standalone="no"?>
<!DOCTYPE svg PUBLIC "-//W3C//DTD SVG 1.1//EN" "http://www.w3.org/Graphics/SVG/1.1/DTD/svg11.dtd">
<!-- Gegenereerd door Microsoft Visio, SVG Export structure2.svg Pagina-1 -->
<svg xmlns="http://www.w3.org/2000/svg" xmlns:xlink="http://www.w3.org/1999/xlink" xmlns:ev="http://www.w3.org/2001/xml-events"
		xmlns:v="http://schemas.microsoft.com/visio/2003/SVGExtensions/" width="6.02084in" height="3.65215in"
		viewBox="0 0 433.5 262.955" xml:space="preserve" color-interpolation-filters="sRGB" class="st19">
	<v:documentProperties v:langID="1043" v:metric="true" v:viewMarkup="false"/>

	<style type="text/css">
	<![CDATA[
		.st1 {stroke:#000000;stroke-dasharray:5.25,3.75;stroke-linecap:round;stroke-linejoin:round;stroke-width:0.75}
		.st2 {stroke:#bfbfbf;stroke-dasharray:5.25,3.75;stroke-linecap:round;stroke-linejoin:round;stroke-width:0.75}
		.st3 {fill:#d8d8d8;stroke:#000000;stroke-linecap:round;stroke-linejoin:round;stroke-width:1}
		.st4 {stroke:#000000;stroke-linecap:round;stroke-linejoin:round;stroke-width:1}
		.st5 {stroke:#000000;stroke-linecap:round;stroke-linejoin:round;stroke-width:0.75}
		.st6 {marker-start:url(#mrkr5-62);stroke:#800000;stroke-linecap:round;stroke-linejoin:round;stroke-width:2}
		.st7 {fill:#800000;fill-opacity:1;stroke:#800000;stroke-opacity:1;stroke-width:0.44247787610619}
		.st8 {stroke:#000000;stroke-linecap:round;stroke-linejoin:round;stroke-width:2.25}
		.st9 {marker-end:url(#mrkr5-134);stroke:#000000;stroke-linecap:round;stroke-linejoin:round;stroke-width:0.75}
		.st10 {fill:#000000;fill-opacity:1;stroke:#000000;stroke-opacity:1;stroke-width:0.22935779816514}
		.st11 {fill:none;stroke:none;stroke-linecap:round;stroke-linejoin:round;stroke-width:0.75}
		.st12 {fill:#000000;font-family:Times New Roman;font-size:1.00001em;font-style:italic}
		.st13 {stroke:#000000;stroke-linecap:round;stroke-linejoin:round;stroke-width:0.25}
		.st14 {marker-end:url(#mrkr4-166);marker-start:url(#mrkr4-164);stroke:#000000;stroke-linecap:round;stroke-linejoin:round;stroke-width:0.25}
		.st15 {fill:#000000;fill-opacity:1;stroke:#000000;stroke-opacity:1;stroke-width:0.1219512195122}
		.st16 {fill:#000000;font-family:Times New Roman;font-size:1.00001em}
		.st17 {fill:none;stroke:none;stroke-linecap:round;stroke-linejoin:round;stroke-width:0.24}
		.st18 {fill:#d8d8d8;stroke:none;stroke-linecap:round;stroke-linejoin:round;stroke-width:0.75}
		.st19 {fill:none;fill-rule:evenodd;font-size:12px;overflow:visible;stroke-linecap:square;stroke-miterlimit:3}
	]]>
	</style>

	<defs id="Markers">
		<g id="lend5">
			<path d="M 2 1 L 0 0 L 1.98117 -0.993387 C 1.67173 -0.364515 1.67301 0.372641 1.98465 1.00043 " style="stroke:none"/>
		</g>
		<marker id="mrkr5-62" class="st7" v:arrowType="5" v:arrowSize="2" v:setback="3.775" refX="3.775" orient="auto"
				markerUnits="strokeWidth" overflow="visible">
			<use xlink:href="#lend5" transform="scale(2.26) "/>
		</marker>
		<marker id="mrkr5-134" class="st10" v:arrowType="5" v:arrowSize="2" v:setback="7.63" refX="-7.63" orient="auto"
				markerUnits="strokeWidth" overflow="visible">
			<use xlink:href="#lend5" transform="scale(-4.36,-4.36) "/>
		</marker>
		<g id="lend4">
			<path d="M 2 1 L 0 0 L 2 -1 L 2 1 " style="stroke:none"/>
		</g>
		<marker id="mrkr4-164" class="st15" v:arrowType="4" v:arrowSize="1" v:setback="14.96" refX="14.96" orient="auto"
				markerUnits="strokeWidth" overflow="visible">
			<use xlink:href="#lend4" transform="scale(8.2) "/>
		</marker>
		<marker id="mrkr4-166" class="st15" v:arrowType="4" v:arrowSize="1" v:setback="16.4" refX="-16.4" orient="auto"
				markerUnits="strokeWidth" overflow="visible">
			<use xlink:href="#lend4" transform="scale(-8.2,-8.2) "/>
		</marker>
	</defs>
	<g v:mID="0" v:index="1" v:groupContext="foregroundPage">
		<title>Pagina-1</title>
		<v:pageProperties v:drawingScale="0.0393701" v:pageScale="0.0393701" v:drawingUnits="24" v:shadowOffsetX="8.50394"
				v:shadowOffsetY="-8.50394"/>
		<g id="shape171-1" v:mID="171" v:groupContext="shape" transform="translate(393.558,129.035) rotate(90)">
			<title>Blad.171</title>
			<path d="M0 262.95 L70.87 262.95" class="st1"/>
		</g>
		<g id="shape172-4" v:mID="172" v:groupContext="shape" transform="translate(-94.8783,64.6125) rotate(-59.0362)">
			<title>Blad.172</title>
			<path d="M0 262.95 L56.69 262.95" class="st1"/>
		</g>
		<g id="shape173-7" v:mID="173" v:groupContext="shape" transform="translate(13.0064,435.095) rotate(-153.435)">
			<title>Blad.173</title>
			<path d="M0 262.95 L113.39 262.95" class="st1"/>
		</g>
		<g id="shape174-10" v:mID="174" v:groupContext="shape" transform="translate(42.1747,386.482) rotate(-153.435)">
			<title>Blad.174</title>
			<path d="M0 262.95 L113.39 262.95" class="st2"/>
		</g>
		<g id="shape175-13" v:mID="175" v:groupContext="shape" transform="translate(-196.294,13.9047) rotate(-59.0362)">
			<title>Blad.175</title>
			<path d="M0 262.95 L56.69 262.95" class="st2"/>
		</g>
		<g id="shape176-16" v:mID="176" v:groupContext="shape" transform="translate(321.311,29.7139) rotate(90)">
			<title>Blad.176</title>
			<path d="M0 262.95 L70.87 262.95" class="st2"/>
		</g>
		<g id="shape179-19" v:mID="179" v:groupContext="shape" transform="translate(42.1746,315.616) rotate(-153.435)">
			<title>Blad.179</title>
			<path d="M0 262.95 L113.39 262.95" class="st1"/>
		</g>
		<g id="shape139-22" v:mID="139" v:groupContext="shape" transform="translate(20.6842,-159.115)">
			<title>Blad.139</title>
			<path d="M17.01 211.93 L0 234.61 L0 262.95 L17.01 240.28 L17.01 226.1 L17.01 211.93 Z" class="st3"/>
		</g>
		<g id="shape117-24" v:mID="117" v:groupContext="shape" transform="translate(283.639,75.4931) rotate(90)">
			<title>Blad.117</title>
			<path d="M0 262.95 L28.35 262.95" class="st4"/>
		</g>
		<g id="shape118-27" v:mID="118" v:groupContext="shape" transform="translate(195.283,-118.948) rotate(45)">
			<title>Blad.118</title>
			<path d="M0 262.95 L16.04 262.95" class="st5"/>
		</g>
		<g id="shape119-30" v:mID="119" v:groupContext="shape" transform="translate(195.283,-116.113) rotate(45)">
			<title>Blad.119</title>
			<path d="M0 262.95 L16.04 262.95" class="st5"/>
		</g>
		<g id="shape120-33" v:mID="120" v:groupContext="shape" transform="translate(195.283,-113.279) rotate(45)">
			<title>Blad.120</title>
			<path d="M0 262.95 L16.04 262.95" class="st5"/>
		</g>
		<g id="shape121-36" v:mID="121" v:groupContext="shape" transform="translate(195.283,-110.444) rotate(45)">
			<title>Blad.121</title>
			<path d="M0 262.95 L16.04 262.95" class="st5"/>
		</g>
		<g id="shape122-39" v:mID="122" v:groupContext="shape" transform="translate(195.283,-107.609) rotate(45)">
			<title>Blad.122</title>
			<path d="M0 262.95 L16.04 262.95" class="st5"/>
		</g>
		<g id="shape123-42" v:mID="123" v:groupContext="shape" transform="translate(195.283,-104.775) rotate(45)">
			<title>Blad.123</title>
			<path d="M0 262.95 L16.04 262.95" class="st5"/>
		</g>
		<g id="shape124-45" v:mID="124" v:groupContext="shape" transform="translate(195.283,-101.94) rotate(45)">
			<title>Blad.124</title>
			<path d="M0 262.95 L16.04 262.95" class="st5"/>
		</g>
		<g id="shape125-48" v:mID="125" v:groupContext="shape" transform="translate(195.283,-99.1054) rotate(45)">
			<title>Blad.125</title>
			<path d="M0 262.95 L16.04 262.95" class="st5"/>
		</g>
		<g id="shape126-51" v:mID="126" v:groupContext="shape" transform="translate(195.283,-96.2707) rotate(45)">
			<title>Blad.126</title>
			<path d="M0 262.95 L16.04 262.95" class="st5"/>
		</g>
		<g id="shape127-54" v:mID="127" v:groupContext="shape" transform="translate(195.283,-93.4361) rotate(45)">
			<title>Blad.127</title>
			<path d="M0 262.95 L16.04 262.95" class="st5"/>
		</g>
		<g id="shape132-57" v:mID="132" v:groupContext="shape" transform="translate(-132.351,129.035) rotate(-90)">
			<title>Kracht.132</title>
			<path d="M7.55 262.95 L7.91 262.95 L28.35 262.95" class="st6"/>
		</g>
		<g id="shape133-63" v:mID="133" v:groupContext="shape" transform="translate(277.369,-83.906) rotate(26.5651)">
			<title>Kracht.133</title>
			<path d="M7.55 262.95 L7.91 262.95 L28.35 262.95" class="st6"/>
		</g>
		<g id="shape141-68" v:mID="141" v:groupContext="shape" transform="translate(248.056,238.935) rotate(126.87)">
			<title>Blad.141</title>
			<path d="M0 262.95 L28.35 262.95" class="st4"/>
		</g>
		<g id="shape142-71" v:mID="142" v:groupContext="shape" transform="translate(-189.68,-82.2798) rotate(-53.1301)">
			<title>Blad.142</title>
			<path d="M0 262.95 L28.35 262.95" class="st4"/>
		</g>
		<g id="shape145-74" v:mID="145" v:groupContext="shape" transform="translate(-137.089,285.857) rotate(-143.13)">
			<title>Blad.145</title>
			<path d="M0 262.95 L14.17 262.95" class="st5"/>
		</g>
		<g id="shape146-77" v:mID="146" v:groupContext="shape" transform="translate(-120.081,263.18) rotate(-143.13)">
			<title>Blad.146</title>
			<path d="M0 262.95 L14.17 262.95" class="st5"/>
		</g>
		<g id="shape147-80" v:mID="147" v:groupContext="shape" transform="translate(-137.089,314.203) rotate(-143.13)">
			<title>Blad.147</title>
			<path d="M0 262.95 L14.17 262.95" class="st5"/>
		</g>
		<g id="shape148-83" v:mID="148" v:groupContext="shape" transform="translate(196.498,-120.568) rotate(45)">
			<title>Blad.148</title>
			<path d="M0 262.95 L14.32 262.95" class="st5"/>
		</g>
		<g id="shape151-86" v:mID="151" v:groupContext="shape" transform="translate(198.198,-122.835) rotate(45)">
			<title>Blad.151</title>
			<path d="M0 262.95 L14.32 262.95" class="st5"/>
		</g>
		<g id="shape152-89" v:mID="152" v:groupContext="shape" transform="translate(201.6,-127.371) rotate(45)">
			<title>Blad.152</title>
			<path d="M0 262.95 L14.32 262.95" class="st5"/>
		</g>
		<g id="shape153-92" v:mID="153" v:groupContext="shape" transform="translate(203.301,-129.639) rotate(45)">
			<title>Blad.153</title>
			<path d="M0 262.95 L14.32 262.95" class="st5"/>
		</g>
		<g id="shape154-95" v:mID="154" v:groupContext="shape" transform="translate(210.104,-138.709) rotate(45)">
			<title>Blad.154</title>
			<path d="M0 262.95 L14.32 262.95" class="st5"/>
		</g>
		<g id="shape158-98" v:mID="158" v:groupContext="shape" transform="translate(206.702,-134.174) rotate(45)">
			<title>Blad.158</title>
			<path d="M0 262.95 L14.32 262.95" class="st5"/>
		</g>
		<g id="shape159-101" v:mID="159" v:groupContext="shape" transform="translate(205.002,-131.906) rotate(45)">
			<title>Blad.159</title>
			<path d="M0 262.95 L14.32 262.95" class="st5"/>
		</g>
		<g id="shape160-104" v:mID="160" v:groupContext="shape" transform="translate(199.899,-125.103) rotate(45)">
			<title>Blad.160</title>
			<path d="M0 262.95 L14.32 262.95" class="st5"/>
		</g>
		<g id="shape161-107" v:mID="161" v:groupContext="shape" transform="translate(208.403,-136.442) rotate(45)">
			<title>Blad.161</title>
			<path d="M0 262.95 L14.32 262.95" class="st5"/>
		</g>
		<g id="shape162-110" v:mID="162" v:groupContext="shape" transform="translate(211.805,-140.977) rotate(45)">
			<title>Blad.162</title>
			<path d="M0 262.95 L14.32 262.95" class="st5"/>
		</g>
		<g id="shape165-113" v:mID="165" v:groupContext="shape" transform="translate(146.785,-156.866) rotate(26.5651)">
			<title>Blad.165</title>
			<path d="M0 262.95 L113.39 262.95" class="st8"/>
		</g>
		<g id="shape167-116" v:mID="167" v:groupContext="shape" transform="translate(-94.8783,-6.25365) rotate(-59.0362)">
			<title>Blad.167</title>
			<path d="M0 262.95 L56.69 262.95" class="st8"/>
		</g>
		<g id="shape169-119" v:mID="169" v:groupContext="shape" transform="translate(422.727,80.4217) rotate(90)">
			<title>Blad.169</title>
			<path d="M0 262.95 L70.87 262.95" class="st8"/>
		</g>
		<g id="shape177-122" v:mID="177" v:groupContext="shape" transform="translate(292.143,78.3277) rotate(90)">
			<title>Blad.177</title>
			<path d="M0 262.95 L70.87 262.95" class="st1"/>
		</g>
		<g id="shape178-125" v:mID="178" v:groupContext="shape" transform="translate(-196.294,-56.9613) rotate(-59.0362)">
			<title>Blad.178</title>
			<path d="M0 262.95 L56.69 262.95" class="st1"/>
		</g>
		<g id="shape181-128" v:mID="181" v:groupContext="shape" transform="translate(248.201,-106.158) rotate(26.5651)">
			<title>Blad.181</title>
			<path d="M0 262.95 L22.62 262.95" class="st9"/>
		</g>
		<g id="shape182-135" v:mID="182" v:groupContext="shape" transform="translate(142.574,-127.934)">
			<title>Blad.182</title>
			<desc>x</desc>
			<v:textBlock v:margins="rect(4,4,4,4)" v:tabSpace="42.5197"/>
			<v:textRect cx="7.08661" cy="255.868" width="14.18" height="14.1732"/>
			<rect x="0" y="248.782" width="14.1732" height="14.1732" class="st11"/>
			<text x="4.42" y="259.47" class="st12" v:langID="1043"><v:paragraph v:horizAlign="1"/><v:tabList/>x</text>		</g>
		<g id="group183-138" transform="translate(29.1882,-92.501)" v:mID="183" v:groupContext="group">
			<title>z-as.183</title>
			<g id="shape184-139" v:mID="184" v:groupContext="shape" transform="translate(262.955,170.829) rotate(90)">
				<title>Blad.184</title>
				<path d="M0 262.95 L86.4 262.95" class="st9"/>
			</g>
			<g id="shape185-144" v:mID="185" v:groupContext="shape">
				<title>Blad.185</title>
				<desc>z</desc>
				<v:textBlock v:margins="rect(4,4,4,4)" v:tabSpace="42.5197"/>
				<v:textRect cx="7.08661" cy="255.868" width="14.18" height="14.1732"/>
				<rect x="0" y="248.782" width="14.1732" height="14.1732" class="st11"/>
				<text x="4.75" y="259.47" class="st12" v:langID="1043"><v:paragraph v:horizAlign="1"/><v:tabList/>z</text>			</g>
		</g>
		<g id="shape187-147" v:mID="187" v:groupContext="shape" transform="translate(254.67,213.617) rotate(120.964)">
			<title>Blad.187</title>
			<path d="M0 262.95 L36.8 262.95" class="st9"/>
		</g>
		<g id="shape188-152" v:mID="188" v:groupContext="shape" transform="translate(7.92832,-142.107)">
			<title>Blad.188</title>
			<desc>y</desc>
			<v:textBlock v:margins="rect(4,4,4,4)" v:tabSpace="42.5197"/>
			<v:textRect cx="7.08661" cy="255.868" width="14.18" height="14.1732"/>
			<rect x="0" y="248.782" width="14.1732" height="14.1732" class="st11"/>
			<text x="4.42" y="259.47" class="st12" v:langID="1043"><v:paragraph v:horizAlign="1"/><v:tabList/>y</text>		</g>
		<g id="shape191-155" v:mID="191" v:groupContext="shape" transform="translate(292.208,191.714) rotate(90)">
			<title>Blad.191</title>
			<path d="M0 262.95 L2.83 262.95" class="st13"/>
		</g>
		<g id="shape193-158" v:mID="193" v:groupContext="shape" transform="translate(146.785,-43.4802) rotate(26.5651)">
			<title>Blad.193</title>
			<path d="M3.74 262.95 L4.1 262.95 L109.29 262.95" class="st14"/>
		</g>
		<g id="shape194-167" v:mID="194" v:groupContext="shape" transform="translate(140.512,-30.8033) rotate(26.5651)">
			<title>Blad.194</title>
			<desc>4 m</desc>
			<v:textBlock v:margins="rect(4,4,4,4)" v:tabSpace="42.5197"/>
			<v:textRect cx="56.6929" cy="255.868" width="113.39" height="14.1732"/>
			<rect x="0" y="248.782" width="113.386" height="14.1732" class="st11"/>
			<text x="47.53" y="259.47" class="st16" v:langID="1043"><v:paragraph v:horizAlign="1"/><v:tabList/>4 m</text>		</g>
		<g id="shape196-170" v:mID="196" v:groupContext="shape" transform="translate(292.143,188.879) rotate(90)">
			<title>Blad.196</title>
			<path d="M0 262.95 L2.83 262.95" class="st13"/>
		</g>
		<g id="shape197-173" v:mID="197" v:groupContext="shape" transform="translate(393.558,239.587) rotate(90)">
			<title>Blad.197</title>
			<path d="M0 262.95 L2.83 262.95" class="st13"/>
		</g>
		<g id="shape198-176" v:mID="198" v:groupContext="shape" transform="translate(393.623,242.421) rotate(90)">
			<title>Blad.198</title>
			<path d="M0 262.95 L2.83 262.95" class="st13"/>
		</g>
		<g id="shape199-179" v:mID="199" v:groupContext="shape" transform="translate(-94.8133,107.132) rotate(-59.0362)">
			<title>Blad.199</title>
			<path d="M3.74 262.95 L4.1 262.95 L52.59 262.95" class="st14"/>
		</g>
		<g id="shape200-186" v:mID="200" v:groupContext="shape" transform="translate(422.791,190.973) rotate(90)">
			<title>Blad.200</title>
			<path d="M0 262.95 L2.83 262.95" class="st13"/>
		</g>
		<g id="shape201-189" v:mID="201" v:groupContext="shape" transform="translate(422.791,193.808) rotate(90)">
			<title>Blad.201</title>
			<path d="M0 262.95 L2.83 262.95" class="st13"/>
		</g>
		<g id="shape202-192" v:mID="202" v:groupContext="shape" transform="translate(-82.6598,114.424) rotate(-59.0362)">
			<title>Blad.202</title>
			<desc>4 m</desc>
			<v:textBlock v:margins="rect(4,4,4,4)" v:tabSpace="42.5197"/>
			<v:textRect cx="28.3465" cy="255.868" width="56.7" height="14.1732"/>
			<rect x="0" y="248.782" width="56.6929" height="14.1732" class="st11"/>
			<text x="19.18" y="259.47" class="st16" v:langID="1043"><v:paragraph v:horizAlign="1"/><v:tabList/>4 m</text>		</g>
		<g id="group203-195" transform="translate(192.18,-111.667)" v:mID="203" v:groupContext="group">
			<title>Maatlijn verticaal.203</title>
			<g id="group204-196" transform="translate(-254.451,262.955) rotate(-90)" v:mID="204" v:groupContext="group">
				<title>Maatlijn.31</title>
				<g id="shape205-197" v:mID="205" v:groupContext="shape" transform="translate(262.955,254.451) rotate(90)">
					<title>Blad.205</title>
					<path d="M0 262.95 L8.5 262.95" class="st13"/>
				</g>
				<g id="shape206-200" v:mID="206" v:groupContext="shape" transform="translate(333.821,254.451) rotate(90)">
					<title>Blad.206</title>
					<path d="M0 262.95 L8.5 262.95" class="st13"/>
				</g>
				<g id="shape207-203" v:mID="207" v:groupContext="shape" transform="translate(0,-4.25197)">
					<title>Blad.207</title>
					<path d="M3.74 262.95 L4.1 262.95 L66.77 262.95" class="st14"/>
				</g>
			</g>
			<g id="shape208-210" v:mID="208" v:groupContext="shape" transform="translate(4.25197,-28.3465)">
				<title>Blad.208</title>
				<desc>5 m</desc>
				<v:textBlock v:margins="rect(4,4,4,4)" v:tabSpace="42.5197"/>
				<v:textRect cx="14.1732" cy="255.868" width="28.35" height="14.1732"/>
				<rect x="0" y="248.782" width="28.3465" height="14.1732" class="st11"/>
				<text x="5.01" y="259.47" class="st16" v:langID="1043"><v:paragraph v:horizAlign="1"/><v:tabList/>5 m</text>			</g>
		</g>
		<g id="shape209-213" v:mID="209" v:groupContext="shape" transform="translate(88.7157,-156.281)">
			<title>Blad.209</title>
			<desc>4.5 kN</desc>
			<v:textBlock v:margins="rect(4,4,4,4)" v:tabSpace="42.5197"/>
			<v:textRect cx="21.3056" cy="255.868" width="42.62" height="14.1732"/>
			<rect x="0" y="248.782" width="42.6111" height="14.1732" class="st11"/>
			<text x="4.97" y="259.47" class="st16" v:langID="1043"><v:paragraph v:horizAlign="1"/><v:tabList/>4.5 kN</text>		</g>
		<g id="shape210-216" v:mID="210" v:groupContext="shape" transform="translate(163.788,-83.997)">
			<title>Blad.210</title>
			<desc>1.8 kN</desc>
			<v:textBlock v:margins="rect(4,4,4,4)" v:tabSpace="42.5197"/>
			<v:textRect cx="21.3056" cy="255.868" width="42.62" height="14.1732"/>
			<rect x="0" y="248.782" width="42.6111" height="14.1732" class="st11"/>
			<text x="4.97" y="259.47" class="st16" v:langID="1043"><v:paragraph v:horizAlign="1"/><v:tabList/>1.8 kN</text>		</g>
		<g id="shape211-219" v:mID="211" v:groupContext="shape" transform="translate(29.1882,-164.784)">
			<title>Punt A.211</title>
			<desc>A</desc>
			<v:textBlock v:margins="rect(4,4,4,4)" v:tabSpace="42.5197"/>
			<v:textRect cx="7.08661" cy="255.868" width="14.18" height="14.1732"/>
			<rect x="0" y="248.782" width="14.1732" height="14.1732" class="st17"/>
			<text x="4" y="259.47" class="st16" v:langID="1043"><v:paragraph v:horizAlign="1"/><v:tabList/>A</text>		</g>
		<g id="shape212-222" v:mID="212" v:groupContext="shape" transform="translate(117.062,-120.847)">
			<title>Punt A.212</title>
			<desc>B</desc>
			<v:textBlock v:margins="rect(4,4,4,4)" v:tabSpace="42.5197"/>
			<v:textRect cx="7.08661" cy="255.868" width="14.18" height="14.1732"/>
			<rect x="0" y="248.782" width="14.1732" height="14.1732" class="st17"/>
			<text x="4" y="259.47" class="st16" v:langID="1043"><v:paragraph v:horizAlign="1"/><v:tabList/>B</text>		</g>
		<g id="shape213-225" v:mID="213" v:groupContext="shape" transform="translate(159.582,-176.123)">
			<title>Punt A.213</title>
			<desc>C</desc>
			<v:textBlock v:margins="rect(4,4,4,4)" v:tabSpace="42.5197"/>
			<v:textRect cx="7.08661" cy="255.868" width="14.18" height="14.1732"/>
			<rect x="0" y="248.782" width="14.1732" height="14.1732" class="st17"/>
			<text x="4" y="259.47" class="st16" v:langID="1043"><v:paragraph v:horizAlign="1"/><v:tabList/>C</text>		</g>
		<g id="shape215-228" v:mID="215" v:groupContext="shape" transform="translate(159.582,-111.493)">
			<title>Punt A.215</title>
			<desc>D</desc>
			<v:textBlock v:margins="rect(4,4,4,4)" v:tabSpace="42.5197"/>
			<v:textRect cx="7.08661" cy="255.868" width="14.18" height="14.1732"/>
			<rect x="0" y="248.782" width="14.1732" height="14.1732" class="st17"/>
			<text x="4" y="259.47" class="st16" v:langID="1043"><v:paragraph v:horizAlign="1"/><v:tabList/>D</text>		</g>
		<g id="shape216-231" v:mID="216" v:groupContext="shape" transform="translate(284.306,-28.7215)">
			<title>Blad.216</title>
			<rect x="0" y="50.3563" width="85.0394" height="212.598" class="st18"/>
		</g>
		<g id="group217-233" transform="translate(326.826,-106.674)" v:mID="217" v:groupContext="group">
			<title>z-as.217</title>
			<g id="shape218-234" v:mID="218" v:groupContext="shape" transform="translate(262.955,234.608) rotate(90)">
				<title>Blad.218</title>
				<path d="M0 262.95 L22.62 262.95" class="st9"/>
			</g>
			<g id="shape219-239" v:mID="219" v:groupContext="shape">
				<title>Blad.219</title>
				<desc>z</desc>
				<v:textBlock v:margins="rect(4,4,4,4)" v:tabSpace="42.5197"/>
				<v:textRect cx="7.08661" cy="255.868" width="14.18" height="14.1732"/>
				<rect x="0" y="248.782" width="14.1732" height="14.1732" class="st11"/>
				<text x="4.75" y="259.47" class="st12" v:langID="1043"><v:paragraph v:horizAlign="1"/><v:tabList/>z</text>			</g>
		</g>
		<g id="group220-242" transform="translate(298.479,-106.674)" v:mID="220" v:groupContext="group">
			<title>y,z-assenstelsel.220</title>
			<g id="group224-243" transform="translate(262.955,234.608) rotate(90)" v:mID="224" v:groupContext="group">
				<title>z-as.13614</title>
				<g id="shape225-244" v:mID="225" v:groupContext="shape" transform="translate(262.955,234.608) rotate(90)">
					<title>Blad.225</title>
					<path d="M0 262.95 L22.62 262.95" class="st9"/>
				</g>
				<g id="shape226-249" v:mID="226" v:groupContext="shape" transform="translate(-248.782,262.955) rotate(-90)">
					<title>Blad.226</title>
					<desc>y</desc>
					<v:textBlock v:margins="rect(4,4,4,4)" v:tabSpace="42.5197"/>
					<v:textRect cx="7.08661" cy="255.868" width="14.18" height="14.1732"/>
					<rect x="0" y="248.782" width="14.1732" height="14.1732" class="st11"/>
					<text x="4.42" y="259.47" class="st12" v:langID="1043"><v:paragraph v:horizAlign="1"/><v:tabList/>y</text>				</g>
			</g>
		</g>
		<g id="group227-252" transform="translate(379.267,-28.7215)" v:mID="227" v:groupContext="group">
			<title>Maatlijn verticaal.227</title>
			<g id="group228-253" transform="translate(-254.451,262.955) rotate(-90)" v:mID="228" v:groupContext="group">
				<title>Maatlijn.31</title>
				<g id="shape229-254" v:mID="229" v:groupContext="shape" transform="translate(262.955,254.451) rotate(90)">
					<title>Blad.229</title>
					<path d="M0 262.95 L8.5 262.95" class="st13"/>
				</g>
				<g id="shape230-257" v:mID="230" v:groupContext="shape" transform="translate(475.553,254.451) rotate(90)">
					<title>Blad.230</title>
					<path d="M0 262.95 L8.5 262.95" class="st13"/>
				</g>
				<g id="shape231-260" v:mID="231" v:groupContext="shape" transform="translate(0,-4.25197)">
					<title>Blad.231</title>
					<path d="M3.74 262.95 L4.1 262.95 L208.5 262.95" class="st14"/>
				</g>
			</g>
			<g id="shape232-267" v:mID="232" v:groupContext="shape" transform="translate(4.25197,-85.0394)">
				<title>Blad.232</title>
				<desc>300 mm</desc>
				<v:textBlock v:margins="rect(4,4,4,4)" v:tabSpace="42.5197"/>
				<v:textRect cx="24.8031" cy="241.695" width="49.61" height="42.5197"/>
				<rect x="0" y="220.435" width="49.6063" height="42.5197" class="st11"/>
				<text x="4.97" y="245.3" class="st16" v:langID="1043"><v:paragraph v:horizAlign="1"/><v:tabList/>300 mm</text>			</g>
		</g>
		<g id="group233-270" transform="translate(284.306,-0.375)" v:mID="233" v:groupContext="group">
			<title>Maatlijn.233</title>
			<g id="group234-271" transform="translate(0,-9.92126)" v:mID="234" v:groupContext="group">
				<title>Maatlijn.31</title>
				<g id="shape235-272" v:mID="235" v:groupContext="shape" transform="translate(262.955,254.451) rotate(90)">
					<title>Blad.235</title>
					<path d="M0 262.95 L8.5 262.95" class="st13"/>
				</g>
				<g id="shape236-275" v:mID="236" v:groupContext="shape" transform="translate(347.994,254.451) rotate(90)">
					<title>Blad.236</title>
					<path d="M0 262.95 L8.5 262.95" class="st13"/>
				</g>
				<g id="shape237-278" v:mID="237" v:groupContext="shape" transform="translate(0,-4.25197)">
					<title>Blad.237</title>
					<path d="M3.74 262.95 L4.1 262.95 L80.94 262.95" class="st14"/>
				</g>
			</g>
			<g id="shape238-285" v:mID="238" v:groupContext="shape">
				<title>Blad.238</title>
				<desc>120 mm</desc>
				<v:textBlock v:margins="rect(4,4,4,4)" v:tabSpace="42.5197"/>
				<v:textRect cx="42.5197" cy="255.868" width="85.04" height="14.1732"/>
				<rect x="0" y="248.782" width="85.0394" height="14.1732" class="st11"/>
				<text x="22.69" y="259.47" class="st16" v:langID="1043"><v:paragraph v:horizAlign="1"/><v:tabList/>120 mm</text>			</g>
		</g>
		<g id="shape239-288" v:mID="239" v:groupContext="shape" transform="translate(4.57151,-234.233)">
			<title>Blad.239</title>
			<desc>Forces are applied in normal- and shear force centre</desc>
			<v:textBlock v:margins="rect(4,4,4,4)" v:tabSpace="42.5197"/>
			<v:textRect cx="130.916" cy="248.782" width="261.84" height="28.3465"/>
			<rect x="0" y="234.608" width="261.832" height="28.3465" class="st11"/>
			<text x="5.97" y="252.38" class="st16" v:langID="1043"><v:paragraph v:horizAlign="1"/><v:tabList/>Forces are applied in normal- and shear force centre</text>		</g>
		<g id="shape240-291" v:mID="240" v:groupContext="shape" transform="translate(284.306,-227.147)">
			<title>Punt A.240</title>
			<desc>E</desc>
			<v:textBlock v:margins="rect(4,4,4,4)" v:tabSpace="42.5197"/>
			<v:textRect cx="7.08661" cy="255.868" width="14.18" height="14.1732"/>
			<rect x="0" y="248.782" width="14.1732" height="14.1732" class="st17"/>
			<text x="4" y="259.47" class="st16" v:langID="1043"><v:paragraph v:horizAlign="1"/><v:tabList/>E</text>		</g>
		<g id="shape241-294" v:mID="241" v:groupContext="shape" transform="translate(355.172,-227.147)">
			<title>Punt A.241</title>
			<desc>G</desc>
			<v:textBlock v:margins="rect(4,4,4,4)" v:tabSpace="42.5197"/>
			<v:textRect cx="7.08661" cy="255.868" width="14.18" height="14.1732"/>
			<rect x="0" y="248.782" width="14.1732" height="14.1732" class="st17"/>
			<text x="4" y="259.47" class="st16" v:langID="1043"><v:paragraph v:horizAlign="1"/><v:tabList/>G</text>		</g>
		<g id="shape242-297" v:mID="242" v:groupContext="shape" transform="translate(355.172,-28.7215)">
			<title>Punt A.242</title>
			<desc>H</desc>
			<v:textBlock v:margins="rect(4,4,4,4)" v:tabSpace="42.5197"/>
			<v:textRect cx="7.08661" cy="255.868" width="14.18" height="14.1732"/>
			<rect x="0" y="248.782" width="14.1732" height="14.1732" class="st17"/>
			<text x="4" y="259.47" class="st16" v:langID="1043"><v:paragraph v:horizAlign="1"/><v:tabList/>H</text>		</g>
		<g id="shape243-300" v:mID="243" v:groupContext="shape" transform="translate(284.306,-28.7215)">
			<title>Punt A.243</title>
			<desc>I</desc>
			<v:textBlock v:margins="rect(4,4,4,4)" v:tabSpace="42.5197"/>
			<v:textRect cx="7.08661" cy="255.868" width="14.18" height="14.1732"/>
			<rect x="0" y="248.782" width="14.1732" height="14.1732" class="st17"/>
			<text x="5.09" y="259.47" class="st16" v:langID="1043"><v:paragraph v:horizAlign="1"/><v:tabList/>I</text>		</g>
	</g>
</svg>
