<?xml version="1.0" encoding="UTF-8" standalone="no"?>
<!DOCTYPE svg PUBLIC "-//W3C//DTD SVG 1.1//EN" "http://www.w3.org/Graphics/SVG/1.1/DTD/svg11.dtd">
<!-- Gegenereerd door Microsoft Visio, SVG Export structure.svg Pagina-1 -->
<svg xmlns="http://www.w3.org/2000/svg" xmlns:xlink="http://www.w3.org/1999/xlink" xmlns:ev="http://www.w3.org/2001/xml-events"
		xmlns:v="http://schemas.microsoft.com/visio/2003/SVGExtensions/" width="7.48719in" height="4.24062in"
		viewBox="0 0 539.078 305.325" xml:space="preserve" color-interpolation-filters="sRGB" class="st19">
	<v:documentProperties v:langID="1043" v:metric="true" v:viewMarkup="false"/>

	<style type="text/css">
	<![CDATA[
		.st1 {stroke:#000000;stroke-linecap:round;stroke-linejoin:round;stroke-width:1.2}
		.st2 {stroke:#000000;stroke-linecap:round;stroke-linejoin:round;stroke-width:0.75}
		.st3 {stroke:#000000;stroke-linecap:round;stroke-linejoin:round;stroke-width:2}
		.st4 {marker-start:url(#mrkr5-61);stroke:#800000;stroke-linecap:round;stroke-linejoin:round;stroke-width:2}
		.st5 {fill:#800000;fill-opacity:1;stroke:#800000;stroke-opacity:1;stroke-width:0.44247787610619}
		.st6 {fill:none;stroke:none;stroke-linecap:round;stroke-linejoin:round;stroke-width:0.24}
		.st7 {fill:#000000;font-family:Times New Roman;font-size:1.00001em}
		.st8 {marker-end:url(#mrkr5-81);stroke:#800000;stroke-linecap:round;stroke-linejoin:round;stroke-width:1.2}
		.st9 {fill:#800000;fill-opacity:1;stroke:#800000;stroke-opacity:1;stroke-width:0.45454545454546}
		.st10 {stroke:#800000;stroke-linecap:round;stroke-linejoin:round;stroke-width:1.2}
		.st11 {stroke:#000000;stroke-linecap:round;stroke-linejoin:round;stroke-width:0.25}
		.st12 {marker-end:url(#mrkr4-150);marker-start:url(#mrkr4-148);stroke:#000000;stroke-linecap:round;stroke-linejoin:round;stroke-width:0.25}
		.st13 {fill:#000000;fill-opacity:1;stroke:#000000;stroke-opacity:1;stroke-width:0.1219512195122}
		.st14 {fill:none;stroke:none;stroke-linecap:round;stroke-linejoin:round;stroke-width:0.75}
		.st15 {marker-end:url(#mrkr5-197);stroke:#000000;stroke-linecap:round;stroke-linejoin:round;stroke-width:0.75}
		.st16 {fill:#000000;fill-opacity:1;stroke:#000000;stroke-opacity:1;stroke-width:0.22935779816514}
		.st17 {fill:#000000;font-family:Times New Roman;font-size:1.00001em;font-style:italic}
		.st18 {fill:#d8d8d8;stroke:none;stroke-linecap:round;stroke-linejoin:round;stroke-width:0.75}
		.st19 {fill:none;fill-rule:evenodd;font-size:12px;overflow:visible;stroke-linecap:square;stroke-miterlimit:3}
	]]>
	</style>

	<defs id="Markers">
		<g id="lend5">
			<path d="M 2 1 L 0 0 L 1.98117 -0.993387 C 1.67173 -0.364515 1.67301 0.372641 1.98465 1.00043 " style="stroke:none"/>
		</g>
		<marker id="mrkr5-61" class="st5" v:arrowType="5" v:arrowSize="2" v:setback="3.775" refX="3.775" orient="auto"
				markerUnits="strokeWidth" overflow="visible">
			<use xlink:href="#lend5" transform="scale(2.26) "/>
		</marker>
		<marker id="mrkr5-81" class="st9" v:arrowType="5" v:arrowSize="0" v:setback="3.85" refX="-3.85" orient="auto"
				markerUnits="strokeWidth" overflow="visible">
			<use xlink:href="#lend5" transform="scale(-2.2,-2.2) "/>
		</marker>
		<g id="lend4">
			<path d="M 2 1 L 0 0 L 2 -1 L 2 1 " style="stroke:none"/>
		</g>
		<marker id="mrkr4-148" class="st13" v:arrowType="4" v:arrowSize="1" v:setback="14.96" refX="14.96" orient="auto"
				markerUnits="strokeWidth" overflow="visible">
			<use xlink:href="#lend4" transform="scale(8.2) "/>
		</marker>
		<marker id="mrkr4-150" class="st13" v:arrowType="4" v:arrowSize="1" v:setback="16.4" refX="-16.4" orient="auto"
				markerUnits="strokeWidth" overflow="visible">
			<use xlink:href="#lend4" transform="scale(-8.2,-8.2) "/>
		</marker>
		<marker id="mrkr5-197" class="st16" v:arrowType="5" v:arrowSize="2" v:setback="7.63" refX="-7.63" orient="auto"
				markerUnits="strokeWidth" overflow="visible">
			<use xlink:href="#lend5" transform="scale(-4.36,-4.36) "/>
		</marker>
	</defs>
	<g v:mID="0" v:index="1" v:groupContext="foregroundPage">
		<title>Pagina-1</title>
		<v:pageProperties v:drawingScale="0.0393701" v:pageScale="0.0393701" v:drawingUnits="24" v:shadowOffsetX="8.50394"
				v:shadowOffsetY="-8.50394"/>
		<g id="group1-1" transform="translate(-248.512,273.769) rotate(-90)" v:mID="1" v:groupContext="group">
			<title>Inklemming</title>
			<g id="shape2-2" v:mID="2" v:groupContext="shape" transform="translate(316.663,276.978) rotate(90)">
				<title>Blad.2</title>
				<path d="M0 305.32 L28.35 305.32" class="st1"/>
			</g>
			<g id="shape3-5" v:mID="3" v:groupContext="shape" transform="translate(224.401,61.0811) rotate(45)">
				<title>Blad.3</title>
				<path d="M0 305.32 L4.01 305.32" class="st2"/>
			</g>
			<g id="shape4-8" v:mID="4" v:groupContext="shape" transform="translate(221.566,61.0811) rotate(45)">
				<title>Blad.4</title>
				<path d="M0 305.32 L8.02 305.32" class="st2"/>
			</g>
			<g id="shape5-11" v:mID="5" v:groupContext="shape" transform="translate(218.732,61.0811) rotate(45)">
				<title>Blad.5</title>
				<path d="M0 305.32 L12.03 305.32" class="st2"/>
			</g>
			<g id="shape6-14" v:mID="6" v:groupContext="shape" transform="translate(215.897,61.0811) rotate(45)">
				<title>Blad.6</title>
				<path d="M0 305.32 L16.04 305.32" class="st2"/>
			</g>
			<g id="shape7-17" v:mID="7" v:groupContext="shape" transform="translate(215.897,63.9157) rotate(45)">
				<title>Blad.7</title>
				<path d="M0 305.32 L16.04 305.32" class="st2"/>
			</g>
			<g id="shape8-20" v:mID="8" v:groupContext="shape" transform="translate(215.897,66.7504) rotate(45)">
				<title>Blad.8</title>
				<path d="M0 305.32 L16.04 305.32" class="st2"/>
			</g>
			<g id="shape9-23" v:mID="9" v:groupContext="shape" transform="translate(215.897,69.585) rotate(45)">
				<title>Blad.9</title>
				<path d="M0 305.32 L16.04 305.32" class="st2"/>
			</g>
			<g id="shape10-26" v:mID="10" v:groupContext="shape" transform="translate(215.897,72.4197) rotate(45)">
				<title>Blad.10</title>
				<path d="M0 305.32 L16.04 305.32" class="st2"/>
			</g>
			<g id="shape11-29" v:mID="11" v:groupContext="shape" transform="translate(215.897,75.2543) rotate(45)">
				<title>Blad.11</title>
				<path d="M0 305.32 L16.04 305.32" class="st2"/>
			</g>
			<g id="shape12-32" v:mID="12" v:groupContext="shape" transform="translate(215.897,78.089) rotate(45)">
				<title>Blad.12</title>
				<path d="M0 305.32 L16.04 305.32" class="st2"/>
			</g>
			<g id="shape13-35" v:mID="13" v:groupContext="shape" transform="translate(215.897,80.9236) rotate(45)">
				<title>Blad.13</title>
				<path d="M0 305.32 L12.03 305.32" class="st2"/>
			</g>
			<g id="shape14-38" v:mID="14" v:groupContext="shape" transform="translate(215.897,83.7583) rotate(45)">
				<title>Blad.14</title>
				<path d="M0 305.32 L8.02 305.32" class="st2"/>
			</g>
			<g id="shape15-41" v:mID="15" v:groupContext="shape" transform="translate(215.897,86.5929) rotate(45)">
				<title>Blad.15</title>
				<path d="M0 305.32 L4.01 305.32" class="st2"/>
			</g>
		</g>
		<g id="shape16-44" v:mID="16" v:groupContext="shape" transform="translate(-262.685,262.43) rotate(-90)">
			<title>Ligger, 2 pt</title>
			<path d="M0 305.32 L85.04 305.32" class="st3"/>
		</g>
		<g id="shape17-47" v:mID="17" v:groupContext="shape" transform="translate(-262.685,177.391) rotate(-90)">
			<title>Ligger, 2 pt.17</title>
			<path d="M0 305.32 L85.04 305.32" class="st3"/>
		</g>
		<g id="shape18-50" v:mID="18" v:groupContext="shape" transform="translate(42.6397,-127.934)">
			<title>Ligger, 2 pt.18</title>
			<path d="M0 305.32 L42.52 305.32" class="st3"/>
		</g>
		<g id="shape19-53" v:mID="19" v:groupContext="shape" transform="translate(42.6397,-212.973)">
			<title>Ligger, 2 pt.19</title>
			<path d="M0 305.32 L42.52 305.32" class="st3"/>
		</g>
		<g id="shape20-56" v:mID="20" v:groupContext="shape" transform="translate(-262.685,92.3513) rotate(-90)">
			<title>Kracht</title>
			<path d="M7.55 305.32 L7.91 305.32 L42.52 305.32" class="st4"/>
		</g>
		<g id="shape21-62" v:mID="21" v:groupContext="shape" transform="translate(-220.165,92.3513) rotate(-90)">
			<title>Kracht.21</title>
			<path d="M7.55 305.32 L7.91 305.32 L28.35 305.32" class="st4"/>
		</g>
		<g id="shape22-67" v:mID="22" v:groupContext="shape" transform="translate(-220.165,177.391) rotate(-90)">
			<title>Kracht.22</title>
			<path d="M7.55 305.32 L7.91 305.32 L28.35 305.32" class="st4"/>
		</g>
		<g id="group23-72" transform="translate(347.964,177.391) rotate(90)" v:mID="23" v:groupContext="group">
			<title>qz-last constant</title>
			<g id="shape24-73" v:mID="24" v:groupContext="shape" transform="translate(-7.99361E-15,-14.1732)">
				<title>A.58</title>
				<desc>0.645 kN/m</desc>
				<v:textBlock v:margins="rect(4,4,4,4)" v:tabSpace="42.5197"/>
				<v:textRect cx="42.5197" cy="298.238" width="85.04" height="14.1732"/>
				<rect x="0" y="291.152" width="85.0394" height="14.1732" class="st6"/>
				<text x="13.85" y="301.84" class="st7" v:langID="1043"><v:paragraph v:horizAlign="1"/><v:tabList/>0.645 kN/m</text>			</g>
			<g id="shape25-76" v:mID="25" v:groupContext="shape" transform="translate(305.325,291.152) rotate(90)">
				<title>Kracht.5</title>
				<path d="M0 305.32 L9.55 305.32" class="st8"/>
			</g>
			<g id="shape26-82" v:mID="26" v:groupContext="shape" transform="translate(1.59872E-14,-14.1732)">
				<title>Blad.26</title>
				<path d="M0 305.32 L85.04 305.32" class="st10"/>
			</g>
			<g id="shape27-85" v:mID="27" v:groupContext="shape" transform="translate(322.333,291.152) rotate(90)">
				<title>Kracht.4</title>
				<path d="M0 305.32 L9.55 305.32" class="st8"/>
			</g>
			<g id="shape28-90" v:mID="28" v:groupContext="shape" transform="translate(339.34,291.152) rotate(90)">
				<title>Kracht.9</title>
				<path d="M0 305.32 L9.55 305.32" class="st8"/>
			</g>
			<g id="shape29-95" v:mID="29" v:groupContext="shape" transform="translate(390.364,291.152) rotate(90)">
				<title>Kracht.6</title>
				<path d="M0 305.32 L9.55 305.32" class="st8"/>
			</g>
			<g id="shape30-100" v:mID="30" v:groupContext="shape" transform="translate(373.356,291.152) rotate(90)">
				<title>Kracht.37</title>
				<path d="M0 305.32 L9.55 305.32" class="st8"/>
			</g>
			<g id="shape31-105" v:mID="31" v:groupContext="shape" transform="translate(356.348,291.152) rotate(90)">
				<title>Kracht.7</title>
				<path d="M0 305.32 L9.55 305.32" class="st8"/>
			</g>
		</g>
		<g id="shape32-110" v:mID="32" v:groupContext="shape" transform="translate(85.1594,-142.107)">
			<title>A.58</title>
			<desc>1 kN</desc>
			<v:textBlock v:margins="rect(4,4,4,4)" v:tabSpace="42.5197"/>
			<v:textRect cx="21.2598" cy="298.238" width="42.52" height="14.1732"/>
			<rect x="0" y="291.152" width="42.5197" height="14.1732" class="st6"/>
			<text x="9.43" y="301.84" class="st7" v:langID="1043"><v:paragraph v:horizAlign="1"/><v:tabList/>1 kN</text>		</g>
		<g id="shape33-113" v:mID="33" v:groupContext="shape" transform="translate(85.1594,-227.147)">
			<title>A.33</title>
			<desc>1 kN</desc>
			<v:textBlock v:margins="rect(4,4,4,4)" v:tabSpace="42.5197"/>
			<v:textRect cx="21.2598" cy="298.238" width="42.52" height="14.1732"/>
			<rect x="0" y="291.152" width="42.5197" height="14.1732" class="st6"/>
			<text x="9.43" y="301.84" class="st7" v:langID="1043"><v:paragraph v:horizAlign="1"/><v:tabList/>1 kN</text>		</g>
		<g id="shape34-116" v:mID="34" v:groupContext="shape" transform="translate(0.12,-241.32)">
			<title>A.34</title>
			<desc>13 kN</desc>
			<v:textBlock v:margins="rect(4,4,4,4)" v:tabSpace="42.5197"/>
			<v:textRect cx="21.2598" cy="298.238" width="42.52" height="14.1732"/>
			<rect x="0" y="291.152" width="42.5197" height="14.1732" class="st6"/>
			<text x="6.43" y="301.84" class="st7" v:langID="1043"><v:paragraph v:horizAlign="1"/><v:tabList/>13 kN</text>		</g>
		<g id="shape35-119" v:mID="35" v:groupContext="shape" transform="translate(28.4665,-42.8947)">
			<title>Punt A</title>
			<desc>A</desc>
			<v:textBlock v:margins="rect(4,4,4,4)" v:tabSpace="42.5197"/>
			<v:textRect cx="7.08661" cy="298.238" width="14.18" height="14.1732"/>
			<rect x="0" y="291.152" width="14.1732" height="14.1732" class="st6"/>
			<text x="4" y="301.84" class="st7" v:langID="1043"><v:paragraph v:horizAlign="1"/><v:tabList/>A</text>		</g>
		<g id="shape36-122" v:mID="36" v:groupContext="shape" transform="translate(28.4665,-120.847)">
			<title>Punt A.36</title>
			<desc>B</desc>
			<v:textBlock v:margins="rect(4,4,4,4)" v:tabSpace="42.5197"/>
			<v:textRect cx="7.08661" cy="298.238" width="14.18" height="14.1732"/>
			<rect x="0" y="291.152" width="14.1732" height="14.1732" class="st6"/>
			<text x="4" y="301.84" class="st7" v:langID="1043"><v:paragraph v:horizAlign="1"/><v:tabList/>B</text>		</g>
		<g id="shape37-125" v:mID="37" v:groupContext="shape" transform="translate(28.4665,-198.8)">
			<title>Punt A.37</title>
			<desc>C</desc>
			<v:textBlock v:margins="rect(4,4,4,4)" v:tabSpace="42.5197"/>
			<v:textRect cx="7.08661" cy="298.238" width="14.18" height="14.1732"/>
			<rect x="0" y="291.152" width="14.1732" height="14.1732" class="st6"/>
			<text x="4" y="301.84" class="st7" v:langID="1043"><v:paragraph v:horizAlign="1"/><v:tabList/>C</text>		</g>
		<g id="shape38-128" v:mID="38" v:groupContext="shape" transform="translate(78.0728,-113.761)">
			<title>Punt A.38</title>
			<desc>D</desc>
			<v:textBlock v:margins="rect(4,4,4,4)" v:tabSpace="42.5197"/>
			<v:textRect cx="7.08661" cy="298.238" width="14.18" height="14.1732"/>
			<rect x="0" y="291.152" width="14.1732" height="14.1732" class="st6"/>
			<text x="4" y="301.84" class="st7" v:langID="1043"><v:paragraph v:horizAlign="1"/><v:tabList/>D</text>		</g>
		<g id="shape39-131" v:mID="39" v:groupContext="shape" transform="translate(78.0728,-198.8)">
			<title>Punt A.39</title>
			<desc>E</desc>
			<v:textBlock v:margins="rect(4,4,4,4)" v:tabSpace="42.5197"/>
			<v:textRect cx="7.08661" cy="298.238" width="14.18" height="14.1732"/>
			<rect x="0" y="291.152" width="14.1732" height="14.1732" class="st6"/>
			<text x="4" y="301.84" class="st7" v:langID="1043"><v:paragraph v:horizAlign="1"/><v:tabList/>E</text>		</g>
		<g id="group40-134" transform="translate(42.6397,-0.375)" v:mID="40" v:groupContext="group">
			<title>Maatlijn</title>
			<g id="group41-135" transform="translate(0,-9.92126)" v:mID="41" v:groupContext="group">
				<title>Maatlijn.31</title>
				<g id="shape42-136" v:mID="42" v:groupContext="shape" transform="translate(305.325,296.821) rotate(90)">
					<title>Blad.42</title>
					<path d="M0 305.32 L8.5 305.32" class="st11"/>
				</g>
				<g id="shape43-139" v:mID="43" v:groupContext="shape" transform="translate(347.844,296.821) rotate(90)">
					<title>Blad.43</title>
					<path d="M0 305.32 L8.5 305.32" class="st11"/>
				</g>
				<g id="shape44-142" v:mID="44" v:groupContext="shape" transform="translate(0,-4.25197)">
					<title>Blad.44</title>
					<path d="M3.74 305.32 L4.1 305.32 L38.42 305.32" class="st12"/>
				</g>
			</g>
			<g id="shape45-151" v:mID="45" v:groupContext="shape">
				<title>Blad.45</title>
				<desc>2 m</desc>
				<v:textBlock v:margins="rect(4,4,4,4)" v:tabSpace="42.5197"/>
				<v:textRect cx="21.2598" cy="298.238" width="42.52" height="14.1732"/>
				<rect x="0" y="291.152" width="42.5197" height="14.1732" class="st14"/>
				<text x="12.09" y="301.84" class="st7" v:langID="1043"><v:paragraph v:horizAlign="1"/><v:tabList/>2 m</text>			</g>
		</g>
		<g id="group46-154" transform="translate(137.6,-127.934)" v:mID="46" v:groupContext="group">
			<title>Maatlijn verticaal</title>
			<g id="group47-155" transform="translate(-296.821,305.325) rotate(-90)" v:mID="47" v:groupContext="group">
				<title>Maatlijn.31</title>
				<g id="shape48-156" v:mID="48" v:groupContext="shape" transform="translate(305.325,296.821) rotate(90)">
					<title>Blad.48</title>
					<path d="M0 305.32 L8.5 305.32" class="st11"/>
				</g>
				<g id="shape49-159" v:mID="49" v:groupContext="shape" transform="translate(390.364,296.821) rotate(90)">
					<title>Blad.49</title>
					<path d="M0 305.32 L8.5 305.32" class="st11"/>
				</g>
				<g id="shape50-162" v:mID="50" v:groupContext="shape" transform="translate(0,-4.25197)">
					<title>Blad.50</title>
					<path d="M3.74 305.32 L4.1 305.32 L80.94 305.32" class="st12"/>
				</g>
			</g>
			<g id="shape51-169" v:mID="51" v:groupContext="shape" transform="translate(4.25197,-34.0158)">
				<title>Blad.51</title>
				<desc>4 m</desc>
				<v:textBlock v:margins="rect(4,4,4,4)" v:tabSpace="42.5197"/>
				<v:textRect cx="14.1732" cy="296.821" width="28.35" height="17.0079"/>
				<rect x="0" y="288.317" width="28.3465" height="17.0079" class="st14"/>
				<text x="5.01" y="300.42" class="st7" v:langID="1043"><v:paragraph v:horizAlign="1"/><v:tabList/>4 m</text>			</g>
		</g>
		<g id="group52-172" transform="translate(137.6,-42.8947)" v:mID="52" v:groupContext="group">
			<title>Maatlijn verticaal.52</title>
			<g id="group53-173" transform="translate(-296.821,305.325) rotate(-90)" v:mID="53" v:groupContext="group">
				<title>Maatlijn.31</title>
				<g id="shape54-174" v:mID="54" v:groupContext="shape" transform="translate(305.325,296.821) rotate(90)">
					<title>Blad.54</title>
					<path d="M0 305.32 L8.5 305.32" class="st11"/>
				</g>
				<g id="shape55-177" v:mID="55" v:groupContext="shape" transform="translate(390.364,296.821) rotate(90)">
					<title>Blad.55</title>
					<path d="M0 305.32 L8.5 305.32" class="st11"/>
				</g>
				<g id="shape56-180" v:mID="56" v:groupContext="shape" transform="translate(0,-4.25197)">
					<title>Blad.56</title>
					<path d="M3.74 305.32 L4.1 305.32 L80.94 305.32" class="st12"/>
				</g>
			</g>
			<g id="shape57-187" v:mID="57" v:groupContext="shape" transform="translate(4.25197,-34.0158)">
				<title>Blad.57</title>
				<desc>4 m</desc>
				<v:textBlock v:margins="rect(4,4,4,4)" v:tabSpace="42.5197"/>
				<v:textRect cx="14.1732" cy="296.821" width="28.35" height="17.0079"/>
				<rect x="0" y="288.317" width="28.3465" height="17.0079" class="st14"/>
				<text x="5.01" y="300.42" class="st7" v:langID="1043"><v:paragraph v:horizAlign="1"/><v:tabList/>4 m</text>			</g>
		</g>
		<g id="group58-190" transform="translate(-248.512,35.6584) rotate(-90)" v:mID="58" v:groupContext="group">
			<title>x-as</title>
			<g id="shape59-191" v:mID="59" v:groupContext="shape" transform="translate(-3.47258E-12,-14.1732)">
				<title>Blad.59</title>
				<path d="M0 305.32 L22.62 305.32" class="st15"/>
			</g>
			<g id="shape60-198" v:mID="60" v:groupContext="shape" transform="translate(319.498,291.152) rotate(90)">
				<title>Blad.60</title>
				<desc>x</desc>
				<v:textBlock v:margins="rect(4,4,4,4)" v:tabSpace="42.5197"/>
				<v:textRect cx="7.08661" cy="298.238" width="14.18" height="14.1732"/>
				<rect x="0" y="291.152" width="14.1732" height="14.1732" class="st14"/>
				<text x="4.42" y="301.84" class="st17" v:langID="1043"><v:paragraph v:horizAlign="1"/><v:tabList/>x</text>			</g>
		</g>
		<g id="group61-201" transform="translate(-135.126,262.43) rotate(-90)" v:mID="61" v:groupContext="group">
			<title>z-as</title>
			<g id="shape62-202" v:mID="62" v:groupContext="shape" transform="translate(305.325,206.112) rotate(90)">
				<title>Blad.62</title>
				<path d="M0 305.32 L93.49 305.32" class="st15"/>
			</g>
			<g id="shape63-207" v:mID="63" v:groupContext="shape" transform="translate(305.325,291.152) rotate(90)">
				<title>Blad.63</title>
				<desc>z</desc>
				<v:textBlock v:margins="rect(4,4,4,4)" v:tabSpace="42.5197"/>
				<v:textRect cx="7.08661" cy="298.238" width="14.18" height="14.1732"/>
				<rect x="0" y="291.152" width="14.1732" height="14.1732" class="st14"/>
				<text x="4.75" y="301.84" class="st17" v:langID="1043"><v:paragraph v:horizAlign="1"/><v:tabList/>z</text>			</g>
		</g>
		<g id="shape64-210" v:mID="64" v:groupContext="shape" transform="translate(241.065,-42.8947)">
			<title>Blad.64</title>
			<path d="M0 135.25 L0 305.32 L56.69 305.32 L56.69 241.55 L170.08 241.55 L170.08 305.32 L226.77 305.32 L226.77 135.25
						 L170.08 135.25 L170.08 199.03 L56.69 199.03 L56.69 135.25 L0 135.25 Z" class="st18"/>
		</g>
		<g id="group72-212" transform="translate(77.4724,205.737) rotate(-90)" v:mID="72" v:groupContext="group">
			<title>y,z-assenstelsel</title>
			<g id="group73-213" transform="translate(28.3465,-1.13687E-13)" v:mID="73" v:groupContext="group">
				<title>z-as.13611</title>
				<g id="shape74-214" v:mID="74" v:groupContext="shape" transform="translate(305.325,276.978) rotate(90)">
					<title>Blad.74</title>
					<path d="M0 305.32 L22.62 305.32" class="st15"/>
				</g>
				<g id="shape75-219" v:mID="75" v:groupContext="shape" transform="translate(309.577,295.403) rotate(90)">
					<title>Blad.75</title>
					<desc>z</desc>
					<v:textBlock v:margins="rect(4,4,4,4)" v:tabSpace="42.5197"/>
					<v:textRect cx="7.08661" cy="302.49" width="14.18" height="5.66929"/>
					<rect x="0" y="299.655" width="14.1732" height="5.66929" class="st14"/>
					<text x="4.75" y="306.09" class="st17" v:langID="1043"><v:paragraph v:horizAlign="1"/><v:tabList/>z</text>				</g>
			</g>
			<g id="group76-222" transform="translate(292.285,276.978) rotate(90)" v:mID="76" v:groupContext="group">
				<title>z-as.13614</title>
				<g id="shape77-223" v:mID="77" v:groupContext="shape" transform="translate(305.325,263.939) rotate(90)">
					<title>Blad.77</title>
					<path d="M0 305.32 L35.66 305.32" class="st15"/>
				</g>
				<g id="shape78-228" v:mID="78" v:groupContext="shape" transform="translate(-3.25985,-1.13386)">
					<title>Blad.78</title>
					<desc>y</desc>
					<v:textBlock v:margins="rect(4,4,4,4)" v:tabSpace="42.5197"/>
					<v:textRect cx="10.3465" cy="298.238" width="20.7" height="14.1732"/>
					<rect x="0" y="291.152" width="20.6929" height="14.1732" class="st14"/>
					<text x="7.68" y="301.84" class="st17" v:langID="1043"><v:paragraph v:horizAlign="1"/><v:tabList/>y</text>				</g>
			</g>
		</g>
		<g id="group80-231" transform="translate(241.065,-14.5482)" v:mID="80" v:groupContext="group">
			<title>Maatlijn.80</title>
			<g id="group81-232" transform="translate(0,-9.92126)" v:mID="81" v:groupContext="group">
				<title>Maatlijn.31</title>
				<g id="shape82-233" v:mID="82" v:groupContext="shape" transform="translate(305.325,296.821) rotate(90)">
					<title>Blad.82</title>
					<path d="M0 305.32 L8.5 305.32" class="st11"/>
				</g>
				<g id="shape83-236" v:mID="83" v:groupContext="shape" transform="translate(362.018,296.821) rotate(90)">
					<title>Blad.83</title>
					<path d="M0 305.32 L8.5 305.32" class="st11"/>
				</g>
				<g id="shape84-239" v:mID="84" v:groupContext="shape" transform="translate(0,-4.25197)">
					<title>Blad.84</title>
					<path d="M3.74 305.32 L4.1 305.32 L52.59 305.32" class="st12"/>
				</g>
			</g>
			<g id="shape85-246" v:mID="85" v:groupContext="shape">
				<title>Blad.85</title>
				<desc>20 mm</desc>
				<v:textBlock v:margins="rect(4,4,4,4)" v:tabSpace="42.5197"/>
				<v:textRect cx="28.3464" cy="298.238" width="56.7" height="14.1732"/>
				<rect x="0" y="291.152" width="56.6929" height="14.1732" class="st14"/>
				<text x="11.51" y="301.84" class="st7" v:langID="1043"><v:paragraph v:horizAlign="1"/><v:tabList/>20 mm</text>			</g>
		</g>
		<g id="group86-249" transform="translate(297.758,-14.5482)" v:mID="86" v:groupContext="group">
			<title>Maatlijn.86</title>
			<g id="group87-250" transform="translate(0,-9.92126)" v:mID="87" v:groupContext="group">
				<title>Maatlijn.31</title>
				<g id="shape88-251" v:mID="88" v:groupContext="shape" transform="translate(305.325,296.821) rotate(90)">
					<title>Blad.88</title>
					<path d="M0 305.32 L8.5 305.32" class="st11"/>
				</g>
				<g id="shape89-254" v:mID="89" v:groupContext="shape" transform="translate(418.711,296.821) rotate(90)">
					<title>Blad.89</title>
					<path d="M0 305.32 L8.5 305.32" class="st11"/>
				</g>
				<g id="shape90-257" v:mID="90" v:groupContext="shape" transform="translate(0,-4.25197)">
					<title>Blad.90</title>
					<path d="M3.74 305.32 L4.1 305.32 L109.29 305.32" class="st12"/>
				</g>
			</g>
			<g id="shape91-264" v:mID="91" v:groupContext="shape">
				<title>Blad.91</title>
				<desc>40 mm</desc>
				<v:textBlock v:margins="rect(4,4,4,4)" v:tabSpace="42.5197"/>
				<v:textRect cx="56.6929" cy="298.238" width="113.39" height="14.1732"/>
				<rect x="0" y="291.152" width="113.386" height="14.1732" class="st14"/>
				<text x="39.86" y="301.84" class="st7" v:langID="1043"><v:paragraph v:horizAlign="1"/><v:tabList/>40 mm</text>			</g>
		</g>
		<g id="group92-267" transform="translate(411.144,-14.5482)" v:mID="92" v:groupContext="group">
			<title>Maatlijn.92</title>
			<g id="group93-268" transform="translate(0,-9.92126)" v:mID="93" v:groupContext="group">
				<title>Maatlijn.31</title>
				<g id="shape94-269" v:mID="94" v:groupContext="shape" transform="translate(305.325,296.821) rotate(90)">
					<title>Blad.94</title>
					<path d="M0 305.32 L8.5 305.32" class="st11"/>
				</g>
				<g id="shape95-272" v:mID="95" v:groupContext="shape" transform="translate(362.018,296.821) rotate(90)">
					<title>Blad.95</title>
					<path d="M0 305.32 L8.5 305.32" class="st11"/>
				</g>
				<g id="shape96-275" v:mID="96" v:groupContext="shape" transform="translate(0,-4.25197)">
					<title>Blad.96</title>
					<path d="M3.74 305.32 L4.1 305.32 L52.59 305.32" class="st12"/>
				</g>
			</g>
			<g id="shape97-282" v:mID="97" v:groupContext="shape">
				<title>Blad.97</title>
				<desc>20 mm</desc>
				<v:textBlock v:margins="rect(4,4,4,4)" v:tabSpace="42.5197"/>
				<v:textRect cx="28.3464" cy="298.238" width="56.7" height="14.1732"/>
				<rect x="0" y="291.152" width="56.6929" height="14.1732" class="st14"/>
				<text x="11.51" y="301.84" class="st7" v:langID="1043"><v:paragraph v:horizAlign="1"/><v:tabList/>20 mm</text>			</g>
		</g>
		<g id="group98-285" transform="translate(477.758,-42.8947)" v:mID="98" v:groupContext="group">
			<title>Maatlijn verticaal.98</title>
			<g id="group99-286" transform="translate(-296.821,305.325) rotate(-90)" v:mID="99" v:groupContext="group">
				<title>Maatlijn.31</title>
				<g id="shape100-287" v:mID="100" v:groupContext="shape" transform="translate(305.325,296.821) rotate(90)">
					<title>Blad.100</title>
					<path d="M0 305.32 L8.5 305.32" class="st11"/>
				</g>
				<g id="shape101-290" v:mID="101" v:groupContext="shape" transform="translate(369.104,296.821) rotate(90)">
					<title>Blad.101</title>
					<path d="M0 305.32 L8.5 305.32" class="st11"/>
				</g>
				<g id="shape102-293" v:mID="102" v:groupContext="shape" transform="translate(0,-4.25197)">
					<title>Blad.102</title>
					<path d="M3.74 305.32 L4.1 305.32 L59.68 305.32" class="st12"/>
				</g>
			</g>
			<g id="shape103-300" v:mID="103" v:groupContext="shape" transform="translate(4.25197,-25.5118)">
				<title>Blad.103</title>
				<desc>22.5 mm</desc>
				<v:textBlock v:margins="rect(4,4,4,4)" v:tabSpace="42.5197"/>
				<v:textRect cx="28.3464" cy="298.947" width="56.7" height="12.7559"/>
				<rect x="0" y="292.569" width="56.6929" height="12.7559" class="st14"/>
				<text x="7.01" y="302.55" class="st7" v:langID="1043"><v:paragraph v:horizAlign="1"/><v:tabList/>22.5 mm</text>			</g>
		</g>
		<g id="group104-303" transform="translate(477.758,-149.194)" v:mID="104" v:groupContext="group">
			<title>Maatlijn verticaal.104</title>
			<g id="group105-304" transform="translate(-296.821,305.325) rotate(-90)" v:mID="105" v:groupContext="group">
				<title>Maatlijn.31</title>
				<g id="shape106-305" v:mID="106" v:groupContext="shape" transform="translate(305.325,296.821) rotate(90)">
					<title>Blad.106</title>
					<path d="M0 305.32 L8.5 305.32" class="st11"/>
				</g>
				<g id="shape107-308" v:mID="107" v:groupContext="shape" transform="translate(369.104,296.821) rotate(90)">
					<title>Blad.107</title>
					<path d="M0 305.32 L8.5 305.32" class="st11"/>
				</g>
				<g id="shape108-311" v:mID="108" v:groupContext="shape" transform="translate(0,-4.25197)">
					<title>Blad.108</title>
					<path d="M3.74 305.32 L4.1 305.32 L59.68 305.32" class="st12"/>
				</g>
			</g>
			<g id="shape109-318" v:mID="109" v:groupContext="shape" transform="translate(4.25197,-25.5118)">
				<title>Blad.109</title>
				<desc>22.5 mm</desc>
				<v:textBlock v:margins="rect(4,4,4,4)" v:tabSpace="42.5197"/>
				<v:textRect cx="28.3464" cy="298.947" width="56.7" height="12.7559"/>
				<rect x="0" y="292.569" width="56.6929" height="12.7559" class="st14"/>
				<text x="7.01" y="302.55" class="st7" v:langID="1043"><v:paragraph v:horizAlign="1"/><v:tabList/>22.5 mm</text>			</g>
		</g>
		<g id="group110-321" transform="translate(477.758,-106.674)" v:mID="110" v:groupContext="group">
			<title>Maatlijn verticaal.110</title>
			<g id="group111-322" transform="translate(-296.821,305.325) rotate(-90)" v:mID="111" v:groupContext="group">
				<title>Maatlijn.31</title>
				<g id="shape112-323" v:mID="112" v:groupContext="shape" transform="translate(305.325,296.821) rotate(90)">
					<title>Blad.112</title>
					<path d="M0 305.32 L8.5 305.32" class="st11"/>
				</g>
				<g id="shape113-326" v:mID="113" v:groupContext="shape" transform="translate(347.844,296.821) rotate(90)">
					<title>Blad.113</title>
					<path d="M0 305.32 L8.5 305.32" class="st11"/>
				</g>
				<g id="shape114-329" v:mID="114" v:groupContext="shape" transform="translate(0,-4.25197)">
					<title>Blad.114</title>
					<path d="M3.74 305.32 L4.1 305.32 L38.42 305.32" class="st12"/>
				</g>
			</g>
			<g id="shape115-336" v:mID="115" v:groupContext="shape" transform="translate(4.25197,-17.0079)">
				<title>Blad.115</title>
				<desc>15 mm</desc>
				<v:textBlock v:margins="rect(4,4,4,4)" v:tabSpace="42.5197"/>
				<v:textRect cx="21.2598" cy="301.073" width="42.52" height="8.50394"/>
				<rect x="0" y="296.821" width="42.5197" height="8.50394" class="st14"/>
				<text x="4.43" y="304.67" class="st7" v:langID="1043"><v:paragraph v:horizAlign="1"/><v:tabList/>15 mm</text>			</g>
		</g>
		<g id="shape170-339" v:mID="170" v:groupContext="shape" transform="translate(70.9861,-269.666)">
			<title>Blad.170</title>
			<desc>Forces are applied in normal- and shear force centre</desc>
			<v:textBlock v:margins="rect(4,4,4,4)" v:tabSpace="42.5197"/>
			<v:textRect cx="130.916" cy="291.152" width="261.84" height="28.3465"/>
			<rect x="0" y="276.978" width="261.832" height="28.3465" class="st14"/>
			<text x="5.97" y="294.75" class="st7" v:langID="1043"><v:paragraph v:horizAlign="1"/><v:tabList/>Forces are applied in normal- and shear force centre</text>		</g>
	</g>
</svg>
