<?xml version="1.0" encoding="utf-8" standalone="no"?>
<!DOCTYPE svg PUBLIC "-//W3C//DTD SVG 1.1//EN"
  "http://www.w3.org/Graphics/SVG/1.1/DTD/svg11.dtd">
<svg xmlns:xlink="http://www.w3.org/1999/xlink" width="398.231023pt" height="281.787608pt" viewBox="0 0 398.231023 281.787608" xmlns="http://www.w3.org/2000/svg" version="1.1">
 <metadata>
  <rdf:RDF xmlns:dc="http://purl.org/dc/elements/1.1/" xmlns:cc="http://creativecommons.org/ns#" xmlns:rdf="http://www.w3.org/1999/02/22-rdf-syntax-ns#">
   <cc:Work>
    <dc:type rdf:resource="http://purl.org/dc/dcmitype/StillImage"/>
    <dc:date>2024-08-09T08:13:08.443483</dc:date>
    <dc:format>image/svg+xml</dc:format>
    <dc:creator>
     <cc:Agent>
      <dc:title>Matplotlib v3.8.0, https://matplotlib.org/</dc:title>
     </cc:Agent>
    </dc:creator>
   </cc:Work>
  </rdf:RDF>
 </metadata>
 <defs>
  <style type="text/css">*{stroke-linejoin: round; stroke-linecap: butt}</style>
 </defs>
 <g id="figure_1">
  <g id="patch_1">
   <path d="M 0 281.787608 
L 398.231023 281.787608 
L 398.231023 0 
L 0 0 
z
" style="fill: #ffffff"/>
  </g>
  <g id="axes_1">
   <g id="patch_2">
    <path d="M 33.911023 273.312 
L 391.031023 273.312 
L 391.031023 7.2 
L 33.911023 7.2 
z
" style="fill: #ffffff"/>
   </g>
   <g id="matplotlib.axis_1">
    <g id="xtick_1">
     <g id="line2d_1">
      <defs>
       <path id="m83e1baeb0d" d="M 0 0 
L 0 3.5 
" style="stroke: #000000; stroke-width: 0.8"/>
      </defs>
      <g>
       <use xlink:href="#m83e1baeb0d" x="50.14375" y="19.296" style="stroke: #000000; stroke-width: 0.8"/>
      </g>
     </g>
     <g id="text_1">
      <!-- 0 -->
      <g transform="translate(46.9625 33.894438) scale(0.1 -0.1)">
       <defs>
        <path id="DejaVuSans-30" d="M 2034 4250 
Q 1547 4250 1301 3770 
Q 1056 3291 1056 2328 
Q 1056 1369 1301 889 
Q 1547 409 2034 409 
Q 2525 409 2770 889 
Q 3016 1369 3016 2328 
Q 3016 3291 2770 3770 
Q 2525 4250 2034 4250 
z
M 2034 4750 
Q 2819 4750 3233 4129 
Q 3647 3509 3647 2328 
Q 3647 1150 3233 529 
Q 2819 -91 2034 -91 
Q 1250 -91 836 529 
Q 422 1150 422 2328 
Q 422 3509 836 4129 
Q 1250 4750 2034 4750 
z
" transform="scale(0.015625)"/>
       </defs>
       <use xlink:href="#DejaVuSans-30"/>
      </g>
     </g>
    </g>
    <g id="xtick_2">
     <g id="line2d_2">
      <g>
       <use xlink:href="#m83e1baeb0d" x="93.431023" y="19.296" style="stroke: #000000; stroke-width: 0.8"/>
      </g>
     </g>
     <g id="text_2">
      <!-- 2 -->
      <g transform="translate(90.249773 33.894438) scale(0.1 -0.1)">
       <defs>
        <path id="DejaVuSans-32" d="M 1228 531 
L 3431 531 
L 3431 0 
L 469 0 
L 469 531 
Q 828 903 1448 1529 
Q 2069 2156 2228 2338 
Q 2531 2678 2651 2914 
Q 2772 3150 2772 3378 
Q 2772 3750 2511 3984 
Q 2250 4219 1831 4219 
Q 1534 4219 1204 4116 
Q 875 4013 500 3803 
L 500 4441 
Q 881 4594 1212 4672 
Q 1544 4750 1819 4750 
Q 2544 4750 2975 4387 
Q 3406 4025 3406 3419 
Q 3406 3131 3298 2873 
Q 3191 2616 2906 2266 
Q 2828 2175 2409 1742 
Q 1991 1309 1228 531 
z
" transform="scale(0.015625)"/>
       </defs>
       <use xlink:href="#DejaVuSans-32"/>
      </g>
     </g>
    </g>
    <g id="xtick_3">
     <g id="line2d_3">
      <g>
       <use xlink:href="#m83e1baeb0d" x="136.718295" y="19.296" style="stroke: #000000; stroke-width: 0.8"/>
      </g>
     </g>
     <g id="text_3">
      <!-- 4 -->
      <g transform="translate(133.537045 33.894438) scale(0.1 -0.1)">
       <defs>
        <path id="DejaVuSans-34" d="M 2419 4116 
L 825 1625 
L 2419 1625 
L 2419 4116 
z
M 2253 4666 
L 3047 4666 
L 3047 1625 
L 3713 1625 
L 3713 1100 
L 3047 1100 
L 3047 0 
L 2419 0 
L 2419 1100 
L 313 1100 
L 313 1709 
L 2253 4666 
z
" transform="scale(0.015625)"/>
       </defs>
       <use xlink:href="#DejaVuSans-34"/>
      </g>
     </g>
    </g>
    <g id="xtick_4">
     <g id="line2d_4">
      <g>
       <use xlink:href="#m83e1baeb0d" x="180.005568" y="19.296" style="stroke: #000000; stroke-width: 0.8"/>
      </g>
     </g>
     <g id="text_4">
      <!-- 6 -->
      <g transform="translate(176.824318 33.894438) scale(0.1 -0.1)">
       <defs>
        <path id="DejaVuSans-36" d="M 2113 2584 
Q 1688 2584 1439 2293 
Q 1191 2003 1191 1497 
Q 1191 994 1439 701 
Q 1688 409 2113 409 
Q 2538 409 2786 701 
Q 3034 994 3034 1497 
Q 3034 2003 2786 2293 
Q 2538 2584 2113 2584 
z
M 3366 4563 
L 3366 3988 
Q 3128 4100 2886 4159 
Q 2644 4219 2406 4219 
Q 1781 4219 1451 3797 
Q 1122 3375 1075 2522 
Q 1259 2794 1537 2939 
Q 1816 3084 2150 3084 
Q 2853 3084 3261 2657 
Q 3669 2231 3669 1497 
Q 3669 778 3244 343 
Q 2819 -91 2113 -91 
Q 1303 -91 875 529 
Q 447 1150 447 2328 
Q 447 3434 972 4092 
Q 1497 4750 2381 4750 
Q 2619 4750 2861 4703 
Q 3103 4656 3366 4563 
z
" transform="scale(0.015625)"/>
       </defs>
       <use xlink:href="#DejaVuSans-36"/>
      </g>
     </g>
    </g>
    <g id="xtick_5">
     <g id="line2d_5">
      <g>
       <use xlink:href="#m83e1baeb0d" x="223.292841" y="19.296" style="stroke: #000000; stroke-width: 0.8"/>
      </g>
     </g>
     <g id="text_5">
      <!-- 8 -->
      <g transform="translate(220.111591 33.894438) scale(0.1 -0.1)">
       <defs>
        <path id="DejaVuSans-38" d="M 2034 2216 
Q 1584 2216 1326 1975 
Q 1069 1734 1069 1313 
Q 1069 891 1326 650 
Q 1584 409 2034 409 
Q 2484 409 2743 651 
Q 3003 894 3003 1313 
Q 3003 1734 2745 1975 
Q 2488 2216 2034 2216 
z
M 1403 2484 
Q 997 2584 770 2862 
Q 544 3141 544 3541 
Q 544 4100 942 4425 
Q 1341 4750 2034 4750 
Q 2731 4750 3128 4425 
Q 3525 4100 3525 3541 
Q 3525 3141 3298 2862 
Q 3072 2584 2669 2484 
Q 3125 2378 3379 2068 
Q 3634 1759 3634 1313 
Q 3634 634 3220 271 
Q 2806 -91 2034 -91 
Q 1263 -91 848 271 
Q 434 634 434 1313 
Q 434 1759 690 2068 
Q 947 2378 1403 2484 
z
M 1172 3481 
Q 1172 3119 1398 2916 
Q 1625 2713 2034 2713 
Q 2441 2713 2670 2916 
Q 2900 3119 2900 3481 
Q 2900 3844 2670 4047 
Q 2441 4250 2034 4250 
Q 1625 4250 1398 4047 
Q 1172 3844 1172 3481 
z
" transform="scale(0.015625)"/>
       </defs>
       <use xlink:href="#DejaVuSans-38"/>
      </g>
     </g>
    </g>
    <g id="xtick_6">
     <g id="line2d_6">
      <g>
       <use xlink:href="#m83e1baeb0d" x="266.580114" y="19.296" style="stroke: #000000; stroke-width: 0.8"/>
      </g>
     </g>
     <g id="text_6">
      <!-- 10 -->
      <g transform="translate(260.217614 33.894438) scale(0.1 -0.1)">
       <defs>
        <path id="DejaVuSans-31" d="M 794 531 
L 1825 531 
L 1825 4091 
L 703 3866 
L 703 4441 
L 1819 4666 
L 2450 4666 
L 2450 531 
L 3481 531 
L 3481 0 
L 794 0 
L 794 531 
z
" transform="scale(0.015625)"/>
       </defs>
       <use xlink:href="#DejaVuSans-31"/>
       <use xlink:href="#DejaVuSans-30" x="63.623047"/>
      </g>
     </g>
    </g>
    <g id="xtick_7">
     <g id="line2d_7">
      <g>
       <use xlink:href="#m83e1baeb0d" x="309.867386" y="19.296" style="stroke: #000000; stroke-width: 0.8"/>
      </g>
     </g>
     <g id="text_7">
      <!-- 12 -->
      <g transform="translate(303.504886 33.894438) scale(0.1 -0.1)">
       <use xlink:href="#DejaVuSans-31"/>
       <use xlink:href="#DejaVuSans-32" x="63.623047"/>
      </g>
     </g>
    </g>
    <g id="xtick_8">
     <g id="line2d_8">
      <g>
       <use xlink:href="#m83e1baeb0d" x="353.154659" y="19.296" style="stroke: #000000; stroke-width: 0.8"/>
      </g>
     </g>
     <g id="text_8">
      <!-- 14 -->
      <g transform="translate(346.792159 33.894438) scale(0.1 -0.1)">
       <use xlink:href="#DejaVuSans-31"/>
       <use xlink:href="#DejaVuSans-34" x="63.623047"/>
      </g>
     </g>
    </g>
    <g id="text_9">
     <!-- $x$ -->
     <g transform="translate(209.471023 47.572563) scale(0.1 -0.1)">
      <defs>
       <path id="DejaVuSans-Oblique-78" d="M 3841 3500 
L 2234 1784 
L 3219 0 
L 2559 0 
L 1819 1388 
L 531 0 
L -166 0 
L 1556 1844 
L 641 3500 
L 1300 3500 
L 1972 2234 
L 3144 3500 
L 3841 3500 
z
" transform="scale(0.015625)"/>
      </defs>
      <use xlink:href="#DejaVuSans-Oblique-78" transform="translate(0 0.3125)"/>
     </g>
    </g>
   </g>
   <g id="matplotlib.axis_2">
    <g id="ytick_1">
     <g id="line2d_9">
      <defs>
       <path id="m28f839c580" d="M 0 0 
L -3.5 0 
" style="stroke: #000000; stroke-width: 0.8"/>
      </defs>
      <g>
       <use xlink:href="#m28f839c580" x="50.14375" y="19.296" style="stroke: #000000; stroke-width: 0.8"/>
      </g>
     </g>
     <g id="text_10">
      <!-- 0.00 -->
      <g transform="translate(20.878125 23.095219) scale(0.1 -0.1)">
       <defs>
        <path id="DejaVuSans-2e" d="M 684 794 
L 1344 794 
L 1344 0 
L 684 0 
L 684 794 
z
" transform="scale(0.015625)"/>
       </defs>
       <use xlink:href="#DejaVuSans-30"/>
       <use xlink:href="#DejaVuSans-2e" x="63.623047"/>
       <use xlink:href="#DejaVuSans-30" x="95.410156"/>
       <use xlink:href="#DejaVuSans-30" x="159.033203"/>
      </g>
     </g>
    </g>
    <g id="ytick_2">
     <g id="line2d_10">
      <g>
       <use xlink:href="#m28f839c580" x="50.14375" y="54.926386" style="stroke: #000000; stroke-width: 0.8"/>
      </g>
     </g>
     <g id="text_11">
      <!-- 0.01 -->
      <g transform="translate(20.878125 58.725605) scale(0.1 -0.1)">
       <use xlink:href="#DejaVuSans-30"/>
       <use xlink:href="#DejaVuSans-2e" x="63.623047"/>
       <use xlink:href="#DejaVuSans-30" x="95.410156"/>
       <use xlink:href="#DejaVuSans-31" x="159.033203"/>
      </g>
     </g>
    </g>
    <g id="ytick_3">
     <g id="line2d_11">
      <g>
       <use xlink:href="#m28f839c580" x="50.14375" y="90.556772" style="stroke: #000000; stroke-width: 0.8"/>
      </g>
     </g>
     <g id="text_12">
      <!-- 0.02 -->
      <g transform="translate(20.878125 94.355991) scale(0.1 -0.1)">
       <use xlink:href="#DejaVuSans-30"/>
       <use xlink:href="#DejaVuSans-2e" x="63.623047"/>
       <use xlink:href="#DejaVuSans-30" x="95.410156"/>
       <use xlink:href="#DejaVuSans-32" x="159.033203"/>
      </g>
     </g>
    </g>
    <g id="ytick_4">
     <g id="line2d_12">
      <g>
       <use xlink:href="#m28f839c580" x="50.14375" y="126.187158" style="stroke: #000000; stroke-width: 0.8"/>
      </g>
     </g>
     <g id="text_13">
      <!-- 0.03 -->
      <g transform="translate(20.878125 129.986377) scale(0.1 -0.1)">
       <defs>
        <path id="DejaVuSans-33" d="M 2597 2516 
Q 3050 2419 3304 2112 
Q 3559 1806 3559 1356 
Q 3559 666 3084 287 
Q 2609 -91 1734 -91 
Q 1441 -91 1130 -33 
Q 819 25 488 141 
L 488 750 
Q 750 597 1062 519 
Q 1375 441 1716 441 
Q 2309 441 2620 675 
Q 2931 909 2931 1356 
Q 2931 1769 2642 2001 
Q 2353 2234 1838 2234 
L 1294 2234 
L 1294 2753 
L 1863 2753 
Q 2328 2753 2575 2939 
Q 2822 3125 2822 3475 
Q 2822 3834 2567 4026 
Q 2313 4219 1838 4219 
Q 1578 4219 1281 4162 
Q 984 4106 628 3988 
L 628 4550 
Q 988 4650 1302 4700 
Q 1616 4750 1894 4750 
Q 2613 4750 3031 4423 
Q 3450 4097 3450 3541 
Q 3450 3153 3228 2886 
Q 3006 2619 2597 2516 
z
" transform="scale(0.015625)"/>
       </defs>
       <use xlink:href="#DejaVuSans-30"/>
       <use xlink:href="#DejaVuSans-2e" x="63.623047"/>
       <use xlink:href="#DejaVuSans-30" x="95.410156"/>
       <use xlink:href="#DejaVuSans-33" x="159.033203"/>
      </g>
     </g>
    </g>
    <g id="ytick_5">
     <g id="line2d_13">
      <g>
       <use xlink:href="#m28f839c580" x="50.14375" y="161.817544" style="stroke: #000000; stroke-width: 0.8"/>
      </g>
     </g>
     <g id="text_14">
      <!-- 0.04 -->
      <g transform="translate(20.878125 165.616763) scale(0.1 -0.1)">
       <use xlink:href="#DejaVuSans-30"/>
       <use xlink:href="#DejaVuSans-2e" x="63.623047"/>
       <use xlink:href="#DejaVuSans-30" x="95.410156"/>
       <use xlink:href="#DejaVuSans-34" x="159.033203"/>
      </g>
     </g>
    </g>
    <g id="ytick_6">
     <g id="line2d_14">
      <g>
       <use xlink:href="#m28f839c580" x="50.14375" y="197.44793" style="stroke: #000000; stroke-width: 0.8"/>
      </g>
     </g>
     <g id="text_15">
      <!-- 0.05 -->
      <g transform="translate(20.878125 201.247149) scale(0.1 -0.1)">
       <defs>
        <path id="DejaVuSans-35" d="M 691 4666 
L 3169 4666 
L 3169 4134 
L 1269 4134 
L 1269 2991 
Q 1406 3038 1543 3061 
Q 1681 3084 1819 3084 
Q 2600 3084 3056 2656 
Q 3513 2228 3513 1497 
Q 3513 744 3044 326 
Q 2575 -91 1722 -91 
Q 1428 -91 1123 -41 
Q 819 9 494 109 
L 494 744 
Q 775 591 1075 516 
Q 1375 441 1709 441 
Q 2250 441 2565 725 
Q 2881 1009 2881 1497 
Q 2881 1984 2565 2268 
Q 2250 2553 1709 2553 
Q 1456 2553 1204 2497 
Q 953 2441 691 2322 
L 691 4666 
z
" transform="scale(0.015625)"/>
       </defs>
       <use xlink:href="#DejaVuSans-30"/>
       <use xlink:href="#DejaVuSans-2e" x="63.623047"/>
       <use xlink:href="#DejaVuSans-30" x="95.410156"/>
       <use xlink:href="#DejaVuSans-35" x="159.033203"/>
      </g>
     </g>
    </g>
    <g id="ytick_7">
     <g id="line2d_15">
      <g>
       <use xlink:href="#m28f839c580" x="50.14375" y="233.078316" style="stroke: #000000; stroke-width: 0.8"/>
      </g>
     </g>
     <g id="text_16">
      <!-- 0.06 -->
      <g transform="translate(20.878125 236.877535) scale(0.1 -0.1)">
       <use xlink:href="#DejaVuSans-30"/>
       <use xlink:href="#DejaVuSans-2e" x="63.623047"/>
       <use xlink:href="#DejaVuSans-30" x="95.410156"/>
       <use xlink:href="#DejaVuSans-36" x="159.033203"/>
      </g>
     </g>
    </g>
    <g id="ytick_8">
     <g id="line2d_16">
      <g>
       <use xlink:href="#m28f839c580" x="50.14375" y="268.708702" style="stroke: #000000; stroke-width: 0.8"/>
      </g>
     </g>
     <g id="text_17">
      <!-- 0.07 -->
      <g transform="translate(20.878125 272.507921) scale(0.1 -0.1)">
       <defs>
        <path id="DejaVuSans-37" d="M 525 4666 
L 3525 4666 
L 3525 4397 
L 1831 0 
L 1172 0 
L 2766 4134 
L 525 4134 
L 525 4666 
z
" transform="scale(0.015625)"/>
       </defs>
       <use xlink:href="#DejaVuSans-30"/>
       <use xlink:href="#DejaVuSans-2e" x="63.623047"/>
       <use xlink:href="#DejaVuSans-30" x="95.410156"/>
       <use xlink:href="#DejaVuSans-37" x="159.033203"/>
      </g>
     </g>
    </g>
    <g id="text_18">
     <!-- w(x) -->
     <g transform="translate(14.798437 151.206) rotate(-90) scale(0.1 -0.1)">
      <defs>
       <path id="DejaVuSans-77" d="M 269 3500 
L 844 3500 
L 1563 769 
L 2278 3500 
L 2956 3500 
L 3675 769 
L 4391 3500 
L 4966 3500 
L 4050 0 
L 3372 0 
L 2619 2869 
L 1863 0 
L 1184 0 
L 269 3500 
z
" transform="scale(0.015625)"/>
       <path id="DejaVuSans-28" d="M 1984 4856 
Q 1566 4138 1362 3434 
Q 1159 2731 1159 2009 
Q 1159 1288 1364 580 
Q 1569 -128 1984 -844 
L 1484 -844 
Q 1016 -109 783 600 
Q 550 1309 550 2009 
Q 550 2706 781 3412 
Q 1013 4119 1484 4856 
L 1984 4856 
z
" transform="scale(0.015625)"/>
       <path id="DejaVuSans-78" d="M 3513 3500 
L 2247 1797 
L 3578 0 
L 2900 0 
L 1881 1375 
L 863 0 
L 184 0 
L 1544 1831 
L 300 3500 
L 978 3500 
L 1906 2253 
L 2834 3500 
L 3513 3500 
z
" transform="scale(0.015625)"/>
       <path id="DejaVuSans-29" d="M 513 4856 
L 1013 4856 
Q 1481 4119 1714 3412 
Q 1947 2706 1947 2009 
Q 1947 1309 1714 600 
Q 1481 -109 1013 -844 
L 513 -844 
Q 928 -128 1133 580 
Q 1338 1288 1338 2009 
Q 1338 2731 1133 3434 
Q 928 4138 513 4856 
z
" transform="scale(0.015625)"/>
      </defs>
      <use xlink:href="#DejaVuSans-77"/>
      <use xlink:href="#DejaVuSans-28" x="81.787109"/>
      <use xlink:href="#DejaVuSans-78" x="120.800781"/>
      <use xlink:href="#DejaVuSans-29" x="179.980469"/>
     </g>
    </g>
   </g>
   <g id="line2d_17">
    <path d="M 50.14375 19.296 
L 51.01824 21.430746 
L 51.892731 23.565264 
L 52.767221 25.699329 
L 53.641711 27.832716 
L 54.516202 29.965204 
L 55.390692 32.096572 
L 56.265183 34.226601 
L 57.139673 36.355076 
L 58.014163 38.481782 
L 58.888654 40.606506 
L 59.763144 42.729038 
L 60.637634 44.849169 
L 61.512125 46.966692 
L 62.386615 49.081402 
L 63.261105 51.193095 
L 64.135596 53.301571 
L 65.010086 55.40663 
L 65.884576 57.508076 
L 66.759067 59.605711 
L 67.633557 61.699344 
L 68.508048 63.788781 
L 69.382538 65.873833 
L 70.257028 67.954313 
L 71.131519 70.030034 
L 72.006009 72.100813 
L 72.880499 74.166466 
L 73.75499 76.226814 
L 74.62948 78.281678 
L 75.50397 80.330881 
L 76.378461 82.37425 
L 77.252951 84.411611 
L 78.127441 86.442794 
L 79.001932 88.467629 
L 79.876422 90.48595 
L 80.750913 92.497591 
L 81.625403 94.502389 
L 82.499893 96.500183 
L 83.374384 98.490814 
L 84.248874 100.474124 
L 85.123364 102.449956 
L 85.997855 104.418159 
L 86.872345 106.378579 
L 87.746835 108.331067 
L 88.621326 110.275474 
L 89.495816 112.211656 
L 90.370306 114.139466 
L 91.244797 116.058764 
L 92.119287 117.969408 
L 92.993778 119.87126 
L 93.868268 121.764184 
L 94.742758 123.648044 
L 95.617249 125.522708 
L 96.491739 127.388045 
L 97.366229 129.243926 
L 98.24072 131.090223 
L 99.11521 132.926812 
L 99.9897 134.753569 
L 100.864191 136.570373 
L 101.738681 138.377104 
L 102.613171 140.173644 
L 103.487662 141.959878 
L 104.362152 143.735692 
L 105.236643 145.500974 
L 106.111133 147.255613 
L 106.985623 148.999502 
L 107.860114 150.732535 
L 108.734604 152.454607 
L 109.609094 154.165615 
L 110.483585 155.865459 
L 111.358075 157.554041 
L 112.232565 159.231264 
L 113.107056 160.897032 
L 113.981546 162.551253 
L 114.856037 164.193836 
L 115.730527 165.824691 
L 116.605017 167.443732 
L 117.479508 169.050873 
L 118.353998 170.64603 
L 119.228488 172.229122 
L 120.102979 173.800069 
L 120.977469 175.358794 
L 121.851959 176.905221 
L 122.72645 178.439275 
L 123.60094 179.960885 
L 124.47543 181.46998 
L 125.349921 182.966492 
L 126.224411 184.450355 
L 127.098902 185.921505 
L 127.973392 187.379878 
L 128.847882 188.825414 
L 129.722373 190.258054 
L 130.596863 191.677742 
L 131.471353 193.084422 
L 132.345844 194.478042 
L 133.220334 195.858549 
L 134.094824 197.225896 
L 134.969315 198.580034 
L 135.843805 199.920918 
L 136.718295 201.248504 
" clip-path="url(#pfa7a315ab3)" style="fill: none; stroke: #1f77b4; stroke-width: 1.5; stroke-linecap: square"/>
   </g>
   <g id="line2d_18">
    <path d="M 136.718295 201.248504 
L 137.811408 202.889224 
L 138.904521 204.509022 
L 139.997634 206.107817 
L 141.090747 207.685531 
L 142.18386 209.242084 
L 143.276973 210.777396 
L 144.370086 212.291387 
L 145.463199 213.783979 
L 146.556312 215.255092 
L 147.649425 216.704646 
L 148.742538 218.132561 
L 149.835651 219.538758 
L 150.928764 220.923158 
L 152.021877 222.28568 
L 153.11499 223.626246 
L 154.208103 224.944775 
L 155.301216 226.241189 
L 156.394329 227.515407 
L 157.487441 228.76735 
L 158.580554 229.996939 
L 159.673667 231.204093 
L 160.76678 232.388734 
L 161.859893 233.550782 
L 162.953006 234.690156 
L 164.046119 235.806779 
L 165.139232 236.900569 
L 166.232345 237.971449 
L 167.325458 239.019337 
L 168.418571 240.044154 
L 169.511684 241.045821 
L 170.604797 242.024259 
L 171.69791 242.979387 
L 172.791023 243.911126 
L 173.884136 244.819397 
L 174.977249 245.70412 
L 176.070362 246.565216 
L 177.163475 247.402604 
L 178.256587 248.216206 
L 179.3497 249.005941 
L 180.442813 249.771731 
L 181.535926 250.513495 
L 182.629039 251.231154 
L 183.722152 251.924629 
L 184.815265 252.59384 
L 185.908378 253.238708 
L 187.001491 253.859152 
L 188.094604 254.455093 
L 189.187717 255.026452 
L 190.28083 255.573149 
L 191.373943 256.095105 
L 192.467056 256.59224 
L 193.560169 257.064474 
L 194.653282 257.511729 
L 195.746395 257.933923 
L 196.839508 258.330979 
L 197.932621 258.702815 
L 199.025733 259.049353 
L 200.118846 259.370514 
L 201.211959 259.666217 
L 202.305072 259.936382 
L 203.398185 260.180932 
L 204.491298 260.399785 
L 205.584411 260.592862 
L 206.677524 260.760084 
L 207.770637 260.901371 
L 208.86375 261.016644 
L 209.956863 261.105823 
L 211.049976 261.168828 
L 212.143089 261.20558 
L 213.236202 261.216 
L 214.329315 261.200007 
L 215.422428 261.157523 
L 216.515541 261.088467 
L 217.608654 260.99276 
L 218.701767 260.870323 
L 219.794879 260.721076 
L 220.887992 260.544939 
L 221.981105 260.341833 
L 223.074218 260.111679 
L 224.167331 259.854396 
L 225.260444 259.569905 
L 226.353557 259.258127 
L 227.44667 258.918982 
L 228.539783 258.55239 
L 229.632896 258.158272 
L 230.726009 257.736549 
L 231.819122 257.28714 
L 232.912235 256.809967 
L 234.005348 256.304949 
L 235.098461 255.772007 
L 236.191574 255.211062 
L 237.284687 254.622034 
L 238.3778 254.004844 
L 239.470913 253.359411 
L 240.564025 252.685656 
L 241.657138 251.9835 
L 242.750251 251.252864 
L 243.843364 250.493666 
L 244.936477 249.705829 
" clip-path="url(#pfa7a315ab3)" style="fill: none; stroke: #ff7f0e; stroke-width: 1.5; stroke-linecap: square"/>
   </g>
   <g id="line2d_19">
    <path d="M 244.936477 249.705829 
L 246.248213 248.722601 
L 247.559948 247.698434 
L 248.871684 246.633746 
L 250.183419 245.528955 
L 251.495155 244.38448 
L 252.80689 243.200736 
L 254.118626 241.978143 
L 255.430362 240.717119 
L 256.742097 239.41808 
L 258.053833 238.081444 
L 259.365568 236.70763 
L 260.677304 235.297055 
L 261.989039 233.850136 
L 263.300775 232.367292 
L 264.61251 230.848941 
L 265.924246 229.295499 
L 267.235981 227.707385 
L 268.547717 226.085016 
L 269.859452 224.428811 
L 271.171188 222.739186 
L 272.482924 221.01656 
L 273.794659 219.261351 
L 275.106395 217.473975 
L 276.41813 215.654852 
L 277.729866 213.804398 
L 279.041601 211.923032 
L 280.353337 210.01117 
L 281.665072 208.069232 
L 282.976808 206.097633 
L 284.288543 204.096794 
L 285.600279 202.06713 
L 286.912014 200.00906 
L 288.22375 197.923002 
L 289.535486 195.809373 
L 290.847221 193.66859 
L 292.158957 191.501073 
L 293.470692 189.307238 
L 294.782428 187.087503 
L 296.094163 184.842287 
L 297.405899 182.572006 
L 298.717634 180.277078 
L 300.02937 177.957921 
L 301.341105 175.614954 
L 302.652841 173.248593 
L 303.964576 170.859256 
L 305.276312 168.447362 
L 306.588048 166.013327 
L 307.899783 163.55757 
L 309.211519 161.080509 
L 310.523254 158.58256 
L 311.83499 156.064142 
L 313.146725 153.525673 
L 314.458461 150.96757 
L 315.770196 148.390251 
L 317.081932 145.794134 
L 318.393667 143.179637 
L 319.705403 140.547176 
L 321.017138 137.897171 
L 322.328874 135.230038 
L 323.64061 132.546196 
L 324.952345 129.846062 
L 326.264081 127.130054 
L 327.575816 124.398589 
L 328.887552 121.652086 
L 330.199287 118.890962 
L 331.511023 116.115636 
L 332.822758 113.326523 
L 334.134494 110.524043 
L 335.446229 107.708613 
L 336.757965 104.880651 
L 338.0697 102.040575 
L 339.381436 99.188802 
L 340.693171 96.32575 
L 342.004907 93.451837 
L 343.316643 90.56748 
L 344.628378 87.673097 
L 345.940114 84.769107 
L 347.251849 81.855926 
L 348.563585 78.933973 
L 349.87532 76.003665 
L 351.187056 73.06542 
L 352.498791 70.119656 
L 353.810527 67.16679 
L 355.122262 64.20724 
L 356.433998 61.241425 
L 357.745733 58.269761 
L 359.057469 55.292666 
L 360.369205 52.310558 
L 361.68094 49.323856 
L 362.992676 46.332976 
L 364.304411 43.338336 
L 365.616147 40.340355 
L 366.927882 37.339449 
L 368.239618 34.336037 
L 369.551353 31.330536 
L 370.863089 28.323364 
L 372.174824 25.314939 
L 373.48656 22.305678 
L 374.798295 19.296 
" clip-path="url(#pfa7a315ab3)" style="fill: none; stroke: #2ca02c; stroke-width: 1.5; stroke-linecap: square"/>
   </g>
   <g id="patch_3">
    <path d="M 50.14375 273.312 
L 50.14375 7.2 
" style="fill: none; stroke: #000000; stroke-width: 0.8; stroke-linejoin: miter; stroke-linecap: square"/>
   </g>
   <g id="patch_4">
    <path d="M 391.031023 273.312 
L 391.031023 7.2 
" style="fill: none"/>
   </g>
   <g id="patch_5">
    <path d="M 33.911023 19.296 
L 391.031023 19.296 
" style="fill: none; stroke: #000000; stroke-width: 0.8; stroke-linejoin: miter; stroke-linecap: square"/>
   </g>
   <g id="patch_6">
    <path d="M 33.911023 7.2 
L 391.031023 7.2 
" style="fill: none"/>
   </g>
  </g>
 </g>
 <defs>
  <clipPath id="pfa7a315ab3">
   <rect x="33.911023" y="7.2" width="357.12" height="266.112"/>
  </clipPath>
 </defs>
</svg>