<?xml version="1.0" encoding="utf-8" standalone="no"?>
<!DOCTYPE svg PUBLIC "-//W3C//DTD SVG 1.1//EN"
  "http://www.w3.org/Graphics/SVG/1.1/DTD/svg11.dtd">
<svg xmlns:xlink="http://www.w3.org/1999/xlink" width="395.052898pt" height="280.512pt" viewBox="0 0 395.052898 280.512" xmlns="http://www.w3.org/2000/svg" version="1.1">
 <metadata>
  <rdf:RDF xmlns:dc="http://purl.org/dc/elements/1.1/" xmlns:cc="http://creativecommons.org/ns#" xmlns:rdf="http://www.w3.org/1999/02/22-rdf-syntax-ns#">
   <cc:Work>
    <dc:type rdf:resource="http://purl.org/dc/dcmitype/StillImage"/>
    <dc:date>2024-08-09T08:13:04.154871</dc:date>
    <dc:format>image/svg+xml</dc:format>
    <dc:creator>
     <cc:Agent>
      <dc:title>Matplotlib v3.8.0, https://matplotlib.org/</dc:title>
     </cc:Agent>
    </dc:creator>
   </cc:Work>
  </rdf:RDF>
 </metadata>
 <defs>
  <style type="text/css">*{stroke-linejoin: round; stroke-linecap: butt}</style>
 </defs>
 <g id="figure_1">
  <g id="patch_1">
   <path d="M 0 280.512 
L 395.052898 280.512 
L 395.052898 0 
L 0 0 
z
" style="fill: #ffffff"/>
  </g>
  <g id="axes_1">
   <g id="patch_2">
    <path d="M 30.732898 273.312 
L 387.852898 273.312 
L 387.852898 7.2 
L 30.732898 7.2 
z
" style="fill: #ffffff"/>
   </g>
   <g id="matplotlib.axis_1">
    <g id="xtick_1">
     <g id="line2d_1">
      <defs>
       <path id="me4e837827a" d="M 0 0 
L 0 3.5 
" style="stroke: #000000; stroke-width: 0.8"/>
      </defs>
      <g>
       <use xlink:href="#me4e837827a" x="46.965625" y="19.296" style="stroke: #000000; stroke-width: 0.8"/>
      </g>
     </g>
     <g id="text_1">
      <!-- 0 -->
      <g transform="translate(43.784375 33.894437) scale(0.1 -0.1)">
       <defs>
        <path id="DejaVuSans-30" d="M 2034 4250 
Q 1547 4250 1301 3770 
Q 1056 3291 1056 2328 
Q 1056 1369 1301 889 
Q 1547 409 2034 409 
Q 2525 409 2770 889 
Q 3016 1369 3016 2328 
Q 3016 3291 2770 3770 
Q 2525 4250 2034 4250 
z
M 2034 4750 
Q 2819 4750 3233 4129 
Q 3647 3509 3647 2328 
Q 3647 1150 3233 529 
Q 2819 -91 2034 -91 
Q 1250 -91 836 529 
Q 422 1150 422 2328 
Q 422 3509 836 4129 
Q 1250 4750 2034 4750 
z
" transform="scale(0.015625)"/>
       </defs>
       <use xlink:href="#DejaVuSans-30"/>
      </g>
     </g>
    </g>
    <g id="xtick_2">
     <g id="line2d_2">
      <g>
       <use xlink:href="#me4e837827a" x="90.252898" y="19.296" style="stroke: #000000; stroke-width: 0.8"/>
      </g>
     </g>
     <g id="text_2">
      <!-- 2 -->
      <g transform="translate(87.071648 33.894437) scale(0.1 -0.1)">
       <defs>
        <path id="DejaVuSans-32" d="M 1228 531 
L 3431 531 
L 3431 0 
L 469 0 
L 469 531 
Q 828 903 1448 1529 
Q 2069 2156 2228 2338 
Q 2531 2678 2651 2914 
Q 2772 3150 2772 3378 
Q 2772 3750 2511 3984 
Q 2250 4219 1831 4219 
Q 1534 4219 1204 4116 
Q 875 4013 500 3803 
L 500 4441 
Q 881 4594 1212 4672 
Q 1544 4750 1819 4750 
Q 2544 4750 2975 4387 
Q 3406 4025 3406 3419 
Q 3406 3131 3298 2873 
Q 3191 2616 2906 2266 
Q 2828 2175 2409 1742 
Q 1991 1309 1228 531 
z
" transform="scale(0.015625)"/>
       </defs>
       <use xlink:href="#DejaVuSans-32"/>
      </g>
     </g>
    </g>
    <g id="xtick_3">
     <g id="line2d_3">
      <g>
       <use xlink:href="#me4e837827a" x="133.54017" y="19.296" style="stroke: #000000; stroke-width: 0.8"/>
      </g>
     </g>
     <g id="text_3">
      <!-- 4 -->
      <g transform="translate(130.35892 33.894437) scale(0.1 -0.1)">
       <defs>
        <path id="DejaVuSans-34" d="M 2419 4116 
L 825 1625 
L 2419 1625 
L 2419 4116 
z
M 2253 4666 
L 3047 4666 
L 3047 1625 
L 3713 1625 
L 3713 1100 
L 3047 1100 
L 3047 0 
L 2419 0 
L 2419 1100 
L 313 1100 
L 313 1709 
L 2253 4666 
z
" transform="scale(0.015625)"/>
       </defs>
       <use xlink:href="#DejaVuSans-34"/>
      </g>
     </g>
    </g>
    <g id="xtick_4">
     <g id="line2d_4">
      <g>
       <use xlink:href="#me4e837827a" x="176.827443" y="19.296" style="stroke: #000000; stroke-width: 0.8"/>
      </g>
     </g>
     <g id="text_4">
      <!-- 6 -->
      <g transform="translate(173.646193 33.894437) scale(0.1 -0.1)">
       <defs>
        <path id="DejaVuSans-36" d="M 2113 2584 
Q 1688 2584 1439 2293 
Q 1191 2003 1191 1497 
Q 1191 994 1439 701 
Q 1688 409 2113 409 
Q 2538 409 2786 701 
Q 3034 994 3034 1497 
Q 3034 2003 2786 2293 
Q 2538 2584 2113 2584 
z
M 3366 4563 
L 3366 3988 
Q 3128 4100 2886 4159 
Q 2644 4219 2406 4219 
Q 1781 4219 1451 3797 
Q 1122 3375 1075 2522 
Q 1259 2794 1537 2939 
Q 1816 3084 2150 3084 
Q 2853 3084 3261 2657 
Q 3669 2231 3669 1497 
Q 3669 778 3244 343 
Q 2819 -91 2113 -91 
Q 1303 -91 875 529 
Q 447 1150 447 2328 
Q 447 3434 972 4092 
Q 1497 4750 2381 4750 
Q 2619 4750 2861 4703 
Q 3103 4656 3366 4563 
z
" transform="scale(0.015625)"/>
       </defs>
       <use xlink:href="#DejaVuSans-36"/>
      </g>
     </g>
    </g>
    <g id="xtick_5">
     <g id="line2d_5">
      <g>
       <use xlink:href="#me4e837827a" x="220.114716" y="19.296" style="stroke: #000000; stroke-width: 0.8"/>
      </g>
     </g>
     <g id="text_5">
      <!-- 8 -->
      <g transform="translate(216.933466 33.894437) scale(0.1 -0.1)">
       <defs>
        <path id="DejaVuSans-38" d="M 2034 2216 
Q 1584 2216 1326 1975 
Q 1069 1734 1069 1313 
Q 1069 891 1326 650 
Q 1584 409 2034 409 
Q 2484 409 2743 651 
Q 3003 894 3003 1313 
Q 3003 1734 2745 1975 
Q 2488 2216 2034 2216 
z
M 1403 2484 
Q 997 2584 770 2862 
Q 544 3141 544 3541 
Q 544 4100 942 4425 
Q 1341 4750 2034 4750 
Q 2731 4750 3128 4425 
Q 3525 4100 3525 3541 
Q 3525 3141 3298 2862 
Q 3072 2584 2669 2484 
Q 3125 2378 3379 2068 
Q 3634 1759 3634 1313 
Q 3634 634 3220 271 
Q 2806 -91 2034 -91 
Q 1263 -91 848 271 
Q 434 634 434 1313 
Q 434 1759 690 2068 
Q 947 2378 1403 2484 
z
M 1172 3481 
Q 1172 3119 1398 2916 
Q 1625 2713 2034 2713 
Q 2441 2713 2670 2916 
Q 2900 3119 2900 3481 
Q 2900 3844 2670 4047 
Q 2441 4250 2034 4250 
Q 1625 4250 1398 4047 
Q 1172 3844 1172 3481 
z
" transform="scale(0.015625)"/>
       </defs>
       <use xlink:href="#DejaVuSans-38"/>
      </g>
     </g>
    </g>
    <g id="xtick_6">
     <g id="line2d_6">
      <g>
       <use xlink:href="#me4e837827a" x="263.401989" y="19.296" style="stroke: #000000; stroke-width: 0.8"/>
      </g>
     </g>
     <g id="text_6">
      <!-- 10 -->
      <g transform="translate(257.039489 33.894437) scale(0.1 -0.1)">
       <defs>
        <path id="DejaVuSans-31" d="M 794 531 
L 1825 531 
L 1825 4091 
L 703 3866 
L 703 4441 
L 1819 4666 
L 2450 4666 
L 2450 531 
L 3481 531 
L 3481 0 
L 794 0 
L 794 531 
z
" transform="scale(0.015625)"/>
       </defs>
       <use xlink:href="#DejaVuSans-31"/>
       <use xlink:href="#DejaVuSans-30" x="63.623047"/>
      </g>
     </g>
    </g>
    <g id="xtick_7">
     <g id="line2d_7">
      <g>
       <use xlink:href="#me4e837827a" x="306.689261" y="19.296" style="stroke: #000000; stroke-width: 0.8"/>
      </g>
     </g>
     <g id="text_7">
      <!-- 12 -->
      <g transform="translate(300.326761 33.894437) scale(0.1 -0.1)">
       <use xlink:href="#DejaVuSans-31"/>
       <use xlink:href="#DejaVuSans-32" x="63.623047"/>
      </g>
     </g>
    </g>
    <g id="xtick_8">
     <g id="line2d_8">
      <g>
       <use xlink:href="#me4e837827a" x="349.976534" y="19.296" style="stroke: #000000; stroke-width: 0.8"/>
      </g>
     </g>
     <g id="text_8">
      <!-- 14 -->
      <g transform="translate(343.614034 33.894437) scale(0.1 -0.1)">
       <use xlink:href="#DejaVuSans-31"/>
       <use xlink:href="#DejaVuSans-34" x="63.623047"/>
      </g>
     </g>
    </g>
    <g id="text_9">
     <!-- $x$ -->
     <g transform="translate(206.292898 47.572562) scale(0.1 -0.1)">
      <defs>
       <path id="DejaVuSans-Oblique-78" d="M 3841 3500 
L 2234 1784 
L 3219 0 
L 2559 0 
L 1819 1388 
L 531 0 
L -166 0 
L 1556 1844 
L 641 3500 
L 1300 3500 
L 1972 2234 
L 3144 3500 
L 3841 3500 
z
" transform="scale(0.015625)"/>
      </defs>
      <use xlink:href="#DejaVuSans-Oblique-78" transform="translate(0 0.3125)"/>
     </g>
    </g>
   </g>
   <g id="matplotlib.axis_2">
    <g id="ytick_1">
     <g id="line2d_9">
      <defs>
       <path id="md59ab7b846" d="M 0 0 
L -3.5 0 
" style="stroke: #000000; stroke-width: 0.8"/>
      </defs>
      <g>
       <use xlink:href="#md59ab7b846" x="46.965625" y="19.296" style="stroke: #000000; stroke-width: 0.8"/>
      </g>
     </g>
     <g id="text_10">
      <!-- 0 -->
      <g transform="translate(33.603125 23.095219) scale(0.1 -0.1)">
       <use xlink:href="#DejaVuSans-30"/>
      </g>
     </g>
    </g>
    <g id="ytick_2">
     <g id="line2d_10">
      <g>
       <use xlink:href="#md59ab7b846" x="46.965625" y="49.918785" style="stroke: #000000; stroke-width: 0.8"/>
      </g>
     </g>
     <g id="text_11">
      <!-- 20 -->
      <g transform="translate(27.240625 53.718004) scale(0.1 -0.1)">
       <use xlink:href="#DejaVuSans-32"/>
       <use xlink:href="#DejaVuSans-30" x="63.623047"/>
      </g>
     </g>
    </g>
    <g id="ytick_3">
     <g id="line2d_11">
      <g>
       <use xlink:href="#md59ab7b846" x="46.965625" y="80.54157" style="stroke: #000000; stroke-width: 0.8"/>
      </g>
     </g>
     <g id="text_12">
      <!-- 40 -->
      <g transform="translate(27.240625 84.340788) scale(0.1 -0.1)">
       <use xlink:href="#DejaVuSans-34"/>
       <use xlink:href="#DejaVuSans-30" x="63.623047"/>
      </g>
     </g>
    </g>
    <g id="ytick_4">
     <g id="line2d_12">
      <g>
       <use xlink:href="#md59ab7b846" x="46.965625" y="111.164354" style="stroke: #000000; stroke-width: 0.8"/>
      </g>
     </g>
     <g id="text_13">
      <!-- 60 -->
      <g transform="translate(27.240625 114.963573) scale(0.1 -0.1)">
       <use xlink:href="#DejaVuSans-36"/>
       <use xlink:href="#DejaVuSans-30" x="63.623047"/>
      </g>
     </g>
    </g>
    <g id="ytick_5">
     <g id="line2d_13">
      <g>
       <use xlink:href="#md59ab7b846" x="46.965625" y="141.787139" style="stroke: #000000; stroke-width: 0.8"/>
      </g>
     </g>
     <g id="text_14">
      <!-- 80 -->
      <g transform="translate(27.240625 145.586358) scale(0.1 -0.1)">
       <use xlink:href="#DejaVuSans-38"/>
       <use xlink:href="#DejaVuSans-30" x="63.623047"/>
      </g>
     </g>
    </g>
    <g id="ytick_6">
     <g id="line2d_14">
      <g>
       <use xlink:href="#md59ab7b846" x="46.965625" y="172.409924" style="stroke: #000000; stroke-width: 0.8"/>
      </g>
     </g>
     <g id="text_15">
      <!-- 100 -->
      <g transform="translate(20.878125 176.209143) scale(0.1 -0.1)">
       <use xlink:href="#DejaVuSans-31"/>
       <use xlink:href="#DejaVuSans-30" x="63.623047"/>
       <use xlink:href="#DejaVuSans-30" x="127.246094"/>
      </g>
     </g>
    </g>
    <g id="ytick_7">
     <g id="line2d_15">
      <g>
       <use xlink:href="#md59ab7b846" x="46.965625" y="203.032709" style="stroke: #000000; stroke-width: 0.8"/>
      </g>
     </g>
     <g id="text_16">
      <!-- 120 -->
      <g transform="translate(20.878125 206.831928) scale(0.1 -0.1)">
       <use xlink:href="#DejaVuSans-31"/>
       <use xlink:href="#DejaVuSans-32" x="63.623047"/>
       <use xlink:href="#DejaVuSans-30" x="127.246094"/>
      </g>
     </g>
    </g>
    <g id="ytick_8">
     <g id="line2d_16">
      <g>
       <use xlink:href="#md59ab7b846" x="46.965625" y="233.655494" style="stroke: #000000; stroke-width: 0.8"/>
      </g>
     </g>
     <g id="text_17">
      <!-- 140 -->
      <g transform="translate(20.878125 237.454712) scale(0.1 -0.1)">
       <use xlink:href="#DejaVuSans-31"/>
       <use xlink:href="#DejaVuSans-34" x="63.623047"/>
       <use xlink:href="#DejaVuSans-30" x="127.246094"/>
      </g>
     </g>
    </g>
    <g id="ytick_9">
     <g id="line2d_17">
      <g>
       <use xlink:href="#md59ab7b846" x="46.965625" y="264.278278" style="stroke: #000000; stroke-width: 0.8"/>
      </g>
     </g>
     <g id="text_18">
      <!-- 160 -->
      <g transform="translate(20.878125 268.077497) scale(0.1 -0.1)">
       <use xlink:href="#DejaVuSans-31"/>
       <use xlink:href="#DejaVuSans-36" x="63.623047"/>
       <use xlink:href="#DejaVuSans-30" x="127.246094"/>
      </g>
     </g>
    </g>
    <g id="text_19">
     <!-- M(x) -->
     <g transform="translate(14.798438 151.431) rotate(-90) scale(0.1 -0.1)">
      <defs>
       <path id="DejaVuSans-4d" d="M 628 4666 
L 1569 4666 
L 2759 1491 
L 3956 4666 
L 4897 4666 
L 4897 0 
L 4281 0 
L 4281 4097 
L 3078 897 
L 2444 897 
L 1241 4097 
L 1241 0 
L 628 0 
L 628 4666 
z
" transform="scale(0.015625)"/>
       <path id="DejaVuSans-28" d="M 1984 4856 
Q 1566 4138 1362 3434 
Q 1159 2731 1159 2009 
Q 1159 1288 1364 580 
Q 1569 -128 1984 -844 
L 1484 -844 
Q 1016 -109 783 600 
Q 550 1309 550 2009 
Q 550 2706 781 3412 
Q 1013 4119 1484 4856 
L 1984 4856 
z
" transform="scale(0.015625)"/>
       <path id="DejaVuSans-78" d="M 3513 3500 
L 2247 1797 
L 3578 0 
L 2900 0 
L 1881 1375 
L 863 0 
L 184 0 
L 1544 1831 
L 300 3500 
L 978 3500 
L 1906 2253 
L 2834 3500 
L 3513 3500 
z
" transform="scale(0.015625)"/>
       <path id="DejaVuSans-29" d="M 513 4856 
L 1013 4856 
Q 1481 4119 1714 3412 
Q 1947 2706 1947 2009 
Q 1947 1309 1714 600 
Q 1481 -109 1013 -844 
L 513 -844 
Q 928 -128 1133 580 
Q 1338 1288 1338 2009 
Q 1338 2731 1133 3434 
Q 928 4138 513 4856 
z
" transform="scale(0.015625)"/>
      </defs>
      <use xlink:href="#DejaVuSans-4d"/>
      <use xlink:href="#DejaVuSans-28" x="86.279297"/>
      <use xlink:href="#DejaVuSans-78" x="125.292969"/>
      <use xlink:href="#DejaVuSans-29" x="184.472656"/>
     </g>
    </g>
   </g>
   <g id="line2d_18">
    <path d="M 46.965625 19.296 
L 47.840115 22.294227 
L 48.714606 25.267459 
L 49.589096 28.215695 
L 50.463586 31.138935 
L 51.338077 34.037179 
L 52.212567 36.910428 
L 53.087058 39.758682 
L 53.961548 42.581939 
L 54.836038 45.380201 
L 55.710529 48.153468 
L 56.585019 50.901738 
L 57.459509 53.625013 
L 58.334 56.323293 
L 59.20849 58.996577 
L 60.08298 61.644865 
L 60.957471 64.268157 
L 61.831961 66.866454 
L 62.706451 69.439756 
L 63.580942 71.988061 
L 64.455432 74.511371 
L 65.329923 77.009686 
L 66.204413 79.483004 
L 67.078903 81.931327 
L 67.953394 84.354655 
L 68.827884 86.752986 
L 69.702374 89.126323 
L 70.576865 91.474663 
L 71.451355 93.798008 
L 72.325845 96.096357 
L 73.200336 98.369711 
L 74.074826 100.618069 
L 74.949316 102.841431 
L 75.823807 105.039797 
L 76.698297 107.213168 
L 77.572788 109.361544 
L 78.447278 111.484924 
L 79.321768 113.583308 
L 80.196259 115.656696 
L 81.070749 117.705089 
L 81.945239 119.728486 
L 82.81973 121.726887 
L 83.69422 123.700293 
L 84.56871 125.648704 
L 85.443201 127.572118 
L 86.317691 129.470537 
L 87.192181 131.34396 
L 88.066672 133.192388 
L 88.941162 135.01582 
L 89.815653 136.814256 
L 90.690143 138.587697 
L 91.564633 140.336142 
L 92.439124 142.059592 
L 93.313614 143.758046 
L 94.188104 145.431504 
L 95.062595 147.079966 
L 95.937085 148.703433 
L 96.811575 150.301904 
L 97.686066 151.87538 
L 98.560556 153.42386 
L 99.435046 154.947344 
L 100.309537 156.445833 
L 101.184027 157.919326 
L 102.058518 159.367823 
L 102.933008 160.791325 
L 103.807498 162.189831 
L 104.681989 163.563342 
L 105.556479 164.911857 
L 106.430969 166.235376 
L 107.30546 167.533899 
L 108.17995 168.807427 
L 109.05444 170.05596 
L 109.928931 171.279496 
L 110.803421 172.478037 
L 111.677912 173.651583 
L 112.552402 174.800132 
L 113.426892 175.923686 
L 114.301383 177.022245 
L 115.175873 178.095808 
L 116.050363 179.144375 
L 116.924854 180.167946 
L 117.799344 181.166522 
L 118.673834 182.140102 
L 119.548325 183.088687 
L 120.422815 184.012276 
L 121.297305 184.910869 
L 122.171796 185.784467 
L 123.046286 186.633069 
L 123.920777 187.456675 
L 124.795267 188.255286 
L 125.669757 189.028901 
L 126.544248 189.77752 
L 127.418738 190.501144 
L 128.293228 191.199772 
L 129.167719 191.873405 
L 130.042209 192.522042 
L 130.916699 193.145683 
L 131.79119 193.744329 
L 132.66568 194.317979 
L 133.54017 194.866633 
" clip-path="url(#p837dabc5fb)" style="fill: none; stroke: #1f77b4; stroke-width: 1.5; stroke-linecap: square"/>
   </g>
   <g id="line2d_19">
    <path d="M 133.54017 194.866633 
L 134.633283 195.536829 
L 135.726396 196.207024 
L 136.819509 196.87722 
L 137.912622 197.547415 
L 139.005735 198.217611 
L 140.098848 198.887807 
L 141.191961 199.558002 
L 142.285074 200.228198 
L 143.378187 200.898394 
L 144.4713 201.568589 
L 145.564413 202.238785 
L 146.657526 202.90898 
L 147.750639 203.579176 
L 148.843752 204.249372 
L 149.936865 204.919567 
L 151.029978 205.589763 
L 152.123091 206.259959 
L 153.216204 206.930154 
L 154.309316 207.60035 
L 155.402429 208.270545 
L 156.495542 208.940741 
L 157.588655 209.610937 
L 158.681768 210.281132 
L 159.774881 210.951328 
L 160.867994 211.621524 
L 161.961107 212.291719 
L 163.05422 212.961915 
L 164.147333 213.63211 
L 165.240446 214.302306 
L 166.333559 214.972502 
L 167.426672 215.642697 
L 168.519785 216.312893 
L 169.612898 216.983089 
L 170.706011 217.653284 
L 171.799124 218.32348 
L 172.892237 218.993675 
L 173.98535 219.663871 
L 175.078462 220.334067 
L 176.171575 221.004262 
L 177.264688 221.674458 
L 178.357801 222.344654 
L 179.450914 223.014849 
L 180.544027 223.685045 
L 181.63714 224.355241 
L 182.730253 225.025436 
L 183.823366 225.695632 
L 184.916479 226.365827 
L 186.009592 227.036023 
L 187.102705 227.706219 
L 188.195818 228.376414 
L 189.288931 229.04661 
L 190.382044 229.716806 
L 191.475157 230.387001 
L 192.56827 231.057197 
L 193.661383 231.727392 
L 194.754496 232.397588 
L 195.847608 233.067784 
L 196.940721 233.737979 
L 198.033834 234.408175 
L 199.126947 235.078371 
L 200.22006 235.748566 
L 201.313173 236.418762 
L 202.406286 237.088957 
L 203.499399 237.759153 
L 204.592512 238.429349 
L 205.685625 239.099544 
L 206.778738 239.76974 
L 207.871851 240.439936 
L 208.964964 241.110131 
L 210.058077 241.780327 
L 211.15119 242.450522 
L 212.244303 243.120718 
L 213.337416 243.790914 
L 214.430529 244.461109 
L 215.523642 245.131305 
L 216.616754 245.801501 
L 217.709867 246.471696 
L 218.80298 247.141892 
L 219.896093 247.812087 
L 220.989206 248.482283 
L 222.082319 249.152479 
L 223.175432 249.822674 
L 224.268545 250.49287 
L 225.361658 251.163066 
L 226.454771 251.833261 
L 227.547884 252.503457 
L 228.640997 253.173652 
L 229.73411 253.843848 
L 230.827223 254.514044 
L 231.920336 255.184239 
L 233.013449 255.854435 
L 234.106562 256.524631 
L 235.199675 257.194826 
L 236.292788 257.865022 
L 237.3859 258.535217 
L 238.479013 259.205413 
L 239.572126 259.875609 
L 240.665239 260.545804 
L 241.758352 261.216 
" clip-path="url(#p837dabc5fb)" style="fill: none; stroke: #ff7f0e; stroke-width: 1.5; stroke-linecap: square"/>
   </g>
   <g id="line2d_20">
    <path d="M 241.758352 261.216 
L 243.070088 258.772364 
L 244.381823 256.328727 
L 245.693559 253.885091 
L 247.005294 251.441455 
L 248.31703 248.997818 
L 249.628765 246.554182 
L 250.940501 244.110545 
L 252.252237 241.666909 
L 253.563972 239.223273 
L 254.875708 236.779636 
L 256.187443 234.336 
L 257.499179 231.892364 
L 258.810914 229.448727 
L 260.12265 227.005091 
L 261.434385 224.561455 
L 262.746121 222.117818 
L 264.057856 219.674182 
L 265.369592 217.230545 
L 266.681327 214.786909 
L 267.993063 212.343273 
L 269.304799 209.899636 
L 270.616534 207.456 
L 271.92827 205.012364 
L 273.240005 202.568727 
L 274.551741 200.125091 
L 275.863476 197.681455 
L 277.175212 195.237818 
L 278.486947 192.794182 
L 279.798683 190.350545 
L 281.110418 187.906909 
L 282.422154 185.463273 
L 283.733889 183.019636 
L 285.045625 180.576 
L 286.357361 178.132364 
L 287.669096 175.688727 
L 288.980832 173.245091 
L 290.292567 170.801455 
L 291.604303 168.357818 
L 292.916038 165.914182 
L 294.227774 163.470545 
L 295.539509 161.026909 
L 296.851245 158.583273 
L 298.16298 156.139636 
L 299.474716 153.696 
L 300.786451 151.252364 
L 302.098187 148.808727 
L 303.409923 146.365091 
L 304.721658 143.921455 
L 306.033394 141.477818 
L 307.345129 139.034182 
L 308.656865 136.590545 
L 309.9686 134.146909 
L 311.280336 131.703273 
L 312.592071 129.259636 
L 313.903807 126.816 
L 315.215542 124.372364 
L 316.527278 121.928727 
L 317.839013 119.485091 
L 319.150749 117.041455 
L 320.462485 114.597818 
L 321.77422 112.154182 
L 323.085956 109.710545 
L 324.397691 107.266909 
L 325.709427 104.823273 
L 327.021162 102.379636 
L 328.332898 99.936 
L 329.644633 97.492364 
L 330.956369 95.048727 
L 332.268104 92.605091 
L 333.57984 90.161455 
L 334.891575 87.717818 
L 336.203311 85.274182 
L 337.515046 82.830545 
L 338.826782 80.386909 
L 340.138518 77.943273 
L 341.450253 75.499636 
L 342.761989 73.056 
L 344.073724 70.612364 
L 345.38546 68.168727 
L 346.697195 65.725091 
L 348.008931 63.281455 
L 349.320666 60.837818 
L 350.632402 58.394182 
L 351.944137 55.950545 
L 353.255873 53.506909 
L 354.567608 51.063273 
L 355.879344 48.619636 
L 357.19108 46.176 
L 358.502815 43.732364 
L 359.814551 41.288727 
L 361.126286 38.845091 
L 362.438022 36.401455 
L 363.749757 33.957818 
L 365.061493 31.514182 
L 366.373228 29.070545 
L 367.684964 26.626909 
L 368.996699 24.183273 
L 370.308435 21.739636 
L 371.62017 19.296 
" clip-path="url(#p837dabc5fb)" style="fill: none; stroke: #2ca02c; stroke-width: 1.5; stroke-linecap: square"/>
   </g>
   <g id="patch_3">
    <path d="M 46.965625 273.312 
L 46.965625 7.2 
" style="fill: none; stroke: #000000; stroke-width: 0.8; stroke-linejoin: miter; stroke-linecap: square"/>
   </g>
   <g id="patch_4">
    <path d="M 387.852898 273.312 
L 387.852898 7.2 
" style="fill: none"/>
   </g>
   <g id="patch_5">
    <path d="M 30.732898 19.296 
L 387.852898 19.296 
" style="fill: none; stroke: #000000; stroke-width: 0.8; stroke-linejoin: miter; stroke-linecap: square"/>
   </g>
   <g id="patch_6">
    <path d="M 30.732898 7.2 
L 387.852898 7.2 
" style="fill: none"/>
   </g>
  </g>
 </g>
 <defs>
  <clipPath id="p837dabc5fb">
   <rect x="30.732898" y="7.2" width="357.12" height="266.112"/>
  </clipPath>
 </defs>
</svg>