<?xml version="1.0" encoding="UTF-8" standalone="no"?>
<!DOCTYPE svg PUBLIC "-//W3C//DTD SVG 1.1//EN" "http://www.w3.org/Graphics/SVG/1.1/DTD/svg11.dtd">
<!-- Gegenereerd door Microsoft Visio, SVG Export Vline.svg Pagina-1 -->
<svg xmlns="http://www.w3.org/2000/svg" xmlns:xlink="http://www.w3.org/1999/xlink" xmlns:ev="http://www.w3.org/2001/xml-events"
		xmlns:v="http://schemas.microsoft.com/visio/2003/SVGExtensions/" width="2.96317in" height="1.7786in"
		viewBox="0 0 213.348 128.059" xml:space="preserve" color-interpolation-filters="sRGB" class="st10">
	<v:documentProperties v:langID="1043" v:metric="true" v:viewMarkup="false"/>

	<style type="text/css">
	<![CDATA[
		.st1 {fill:none;stroke:#bfbfbf;stroke-linecap:round;stroke-linejoin:round;stroke-width:0.5}
		.st2 {stroke:#000000;stroke-linecap:round;stroke-linejoin:round;stroke-width:0.75}
		.st3 {stroke:#000000;stroke-linecap:round;stroke-linejoin:round;stroke-width:2.25}
		.st4 {stroke:#000000;stroke-linecap:round;stroke-linejoin:round;stroke-width:1.2}
		.st5 {fill:none;stroke:none;stroke-linecap:round;stroke-linejoin:round;stroke-width:0.75}
		.st6 {fill:#000000;font-family:Times New Roman;font-size:1.00001em}
		.st7 {stroke:#000000;stroke-linecap:round;stroke-linejoin:round;stroke-width:0.25}
		.st8 {marker-end:url(#mrkr4-321);marker-start:url(#mrkr4-319);stroke:#000000;stroke-linecap:round;stroke-linejoin:round;stroke-width:0.25}
		.st9 {fill:#000000;fill-opacity:1;stroke:#000000;stroke-opacity:1;stroke-width:0.1219512195122}
		.st10 {fill:none;fill-rule:evenodd;font-size:12px;overflow:visible;stroke-linecap:square;stroke-miterlimit:3}
	]]>
	</style>

	<defs id="Markers">
		<g id="lend4">
			<path d="M 2 1 L 0 0 L 2 -1 L 2 1 " style="stroke:none"/>
		</g>
		<marker id="mrkr4-319" class="st9" v:arrowType="4" v:arrowSize="1" v:setback="14.96" refX="14.96" orient="auto"
				markerUnits="strokeWidth" overflow="visible">
			<use xlink:href="#lend4" transform="scale(8.2) "/>
		</marker>
		<marker id="mrkr4-321" class="st9" v:arrowType="4" v:arrowSize="1" v:setback="16.4" refX="-16.4" orient="auto"
				markerUnits="strokeWidth" overflow="visible">
			<use xlink:href="#lend4" transform="scale(-8.2,-8.2) "/>
		</marker>
	</defs>
	<g v:mID="0" v:index="1" v:groupContext="foregroundPage">
		<title>Pagina-1</title>
		<v:pageProperties v:drawingScale="0.0393701" v:pageScale="0.0393701" v:drawingUnits="24" v:shadowOffsetX="8.50394"
				v:shadowOffsetY="-8.50394"/>
		<g id="group2005-1" transform="translate(0.375,-0.25)" v:mID="2005" v:groupContext="group">
			<title>Blad.2005</title>
			<g id="shape1814-2" v:mID="1814" v:groupContext="shape" transform="translate(141.732,2.84217E-14)">
				<title>Blad.1814</title>
				<rect x="0" y="113.886" width="14.1732" height="14.1732" class="st1"/>
			</g>
			<g id="shape1815-4" v:mID="1815" v:groupContext="shape" transform="translate(141.732,-14.1732)">
				<title>Blad.1815</title>
				<rect x="0" y="113.886" width="14.1732" height="14.1732" class="st1"/>
			</g>
			<g id="shape1816-6" v:mID="1816" v:groupContext="shape" transform="translate(155.906,2.84217E-14)">
				<title>Blad.1816</title>
				<rect x="0" y="113.886" width="14.1732" height="14.1732" class="st1"/>
			</g>
			<g id="shape1817-8" v:mID="1817" v:groupContext="shape" transform="translate(155.906,-14.1732)">
				<title>Blad.1817</title>
				<rect x="0" y="113.886" width="14.1732" height="14.1732" class="st1"/>
			</g>
			<g id="shape1818-10" v:mID="1818" v:groupContext="shape" transform="translate(170.079,2.84217E-14)">
				<title>Blad.1818</title>
				<rect x="0" y="113.886" width="14.1732" height="14.1732" class="st1"/>
			</g>
			<g id="shape1819-12" v:mID="1819" v:groupContext="shape" transform="translate(170.079,-14.1732)">
				<title>Blad.1819</title>
				<rect x="0" y="113.886" width="14.1732" height="14.1732" class="st1"/>
			</g>
			<g id="shape1820-14" v:mID="1820" v:groupContext="shape" transform="translate(184.252,2.84217E-14)">
				<title>Blad.1820</title>
				<rect x="0" y="113.886" width="14.1732" height="14.1732" class="st1"/>
			</g>
			<g id="shape1821-16" v:mID="1821" v:groupContext="shape" transform="translate(184.252,-14.1732)">
				<title>Blad.1821</title>
				<rect x="0" y="113.886" width="14.1732" height="14.1732" class="st1"/>
			</g>
			<g id="shape1830-18" v:mID="1830" v:groupContext="shape" transform="translate(198.425,2.84217E-14)">
				<title>Blad.1830</title>
				<rect x="0" y="113.886" width="14.1732" height="14.1732" class="st1"/>
			</g>
			<g id="shape1831-20" v:mID="1831" v:groupContext="shape" transform="translate(198.425,-14.1732)">
				<title>Blad.1831</title>
				<rect x="0" y="113.886" width="14.1732" height="14.1732" class="st1"/>
			</g>
			<g id="shape1834-22" v:mID="1834" v:groupContext="shape" transform="translate(141.732,-56.6929)">
				<title>Blad.1834</title>
				<rect x="0" y="113.886" width="14.1732" height="14.1732" class="st1"/>
			</g>
			<g id="shape1835-24" v:mID="1835" v:groupContext="shape" transform="translate(141.732,-70.8661)">
				<title>Blad.1835</title>
				<rect x="0" y="113.886" width="14.1732" height="14.1732" class="st1"/>
			</g>
			<g id="shape1836-26" v:mID="1836" v:groupContext="shape" transform="translate(155.906,-56.6929)">
				<title>Blad.1836</title>
				<rect x="0" y="113.886" width="14.1732" height="14.1732" class="st1"/>
			</g>
			<g id="shape1837-28" v:mID="1837" v:groupContext="shape" transform="translate(155.906,-70.8661)">
				<title>Blad.1837</title>
				<rect x="0" y="113.886" width="14.1732" height="14.1732" class="st1"/>
			</g>
			<g id="shape1838-30" v:mID="1838" v:groupContext="shape" transform="translate(170.079,-56.6929)">
				<title>Blad.1838</title>
				<rect x="0" y="113.886" width="14.1732" height="14.1732" class="st1"/>
			</g>
			<g id="shape1839-32" v:mID="1839" v:groupContext="shape" transform="translate(170.079,-70.8661)">
				<title>Blad.1839</title>
				<rect x="0" y="113.886" width="14.1732" height="14.1732" class="st1"/>
			</g>
			<g id="shape1840-34" v:mID="1840" v:groupContext="shape" transform="translate(184.252,-56.6929)">
				<title>Blad.1840</title>
				<rect x="0" y="113.886" width="14.1732" height="14.1732" class="st1"/>
			</g>
			<g id="shape1841-36" v:mID="1841" v:groupContext="shape" transform="translate(184.252,-70.8661)">
				<title>Blad.1841</title>
				<rect x="0" y="113.886" width="14.1732" height="14.1732" class="st1"/>
			</g>
			<g id="shape1842-38" v:mID="1842" v:groupContext="shape" transform="translate(141.732,-28.3465)">
				<title>Blad.1842</title>
				<rect x="0" y="113.886" width="14.1732" height="14.1732" class="st1"/>
			</g>
			<g id="shape1843-40" v:mID="1843" v:groupContext="shape" transform="translate(141.732,-42.5197)">
				<title>Blad.1843</title>
				<rect x="0" y="113.886" width="14.1732" height="14.1732" class="st1"/>
			</g>
			<g id="shape1844-42" v:mID="1844" v:groupContext="shape" transform="translate(155.906,-28.3465)">
				<title>Blad.1844</title>
				<rect x="0" y="113.886" width="14.1732" height="14.1732" class="st1"/>
			</g>
			<g id="shape1845-44" v:mID="1845" v:groupContext="shape" transform="translate(155.906,-42.5197)">
				<title>Blad.1845</title>
				<rect x="0" y="113.886" width="14.1732" height="14.1732" class="st1"/>
			</g>
			<g id="shape1846-46" v:mID="1846" v:groupContext="shape" transform="translate(170.079,-28.3465)">
				<title>Blad.1846</title>
				<rect x="0" y="113.886" width="14.1732" height="14.1732" class="st1"/>
			</g>
			<g id="shape1847-48" v:mID="1847" v:groupContext="shape" transform="translate(170.079,-42.5197)">
				<title>Blad.1847</title>
				<rect x="0" y="113.886" width="14.1732" height="14.1732" class="st1"/>
			</g>
			<g id="shape1848-50" v:mID="1848" v:groupContext="shape" transform="translate(184.252,-28.3465)">
				<title>Blad.1848</title>
				<rect x="0" y="113.886" width="14.1732" height="14.1732" class="st1"/>
			</g>
			<g id="shape1849-52" v:mID="1849" v:groupContext="shape" transform="translate(184.252,-42.5197)">
				<title>Blad.1849</title>
				<rect x="0" y="113.886" width="14.1732" height="14.1732" class="st1"/>
			</g>
			<g id="shape1850-54" v:mID="1850" v:groupContext="shape" transform="translate(198.425,-56.6929)">
				<title>Blad.1850</title>
				<rect x="0" y="113.886" width="14.1732" height="14.1732" class="st1"/>
			</g>
			<g id="shape1851-56" v:mID="1851" v:groupContext="shape" transform="translate(198.425,-70.8661)">
				<title>Blad.1851</title>
				<rect x="0" y="113.886" width="14.1732" height="14.1732" class="st1"/>
			</g>
			<g id="shape1852-58" v:mID="1852" v:groupContext="shape" transform="translate(198.425,-28.3465)">
				<title>Blad.1852</title>
				<rect x="0" y="113.886" width="14.1732" height="14.1732" class="st1"/>
			</g>
			<g id="shape1853-60" v:mID="1853" v:groupContext="shape" transform="translate(198.425,-42.5197)">
				<title>Blad.1853</title>
				<rect x="0" y="113.886" width="14.1732" height="14.1732" class="st1"/>
			</g>
			<g id="shape1854-62" v:mID="1854" v:groupContext="shape" transform="translate(85.0394,2.84217E-14)">
				<title>Blad.1854</title>
				<rect x="0" y="113.886" width="14.1732" height="14.1732" class="st1"/>
			</g>
			<g id="shape1855-64" v:mID="1855" v:groupContext="shape" transform="translate(85.0394,-14.1732)">
				<title>Blad.1855</title>
				<rect x="0" y="113.886" width="14.1732" height="14.1732" class="st1"/>
			</g>
			<g id="shape1856-66" v:mID="1856" v:groupContext="shape" transform="translate(99.2126,2.84217E-14)">
				<title>Blad.1856</title>
				<rect x="0" y="113.886" width="14.1732" height="14.1732" class="st1"/>
			</g>
			<g id="shape1857-68" v:mID="1857" v:groupContext="shape" transform="translate(99.2126,-14.1732)">
				<title>Blad.1857</title>
				<rect x="0" y="113.886" width="14.1732" height="14.1732" class="st1"/>
			</g>
			<g id="shape1858-70" v:mID="1858" v:groupContext="shape" transform="translate(113.386,2.84217E-14)">
				<title>Blad.1858</title>
				<rect x="0" y="113.886" width="14.1732" height="14.1732" class="st1"/>
			</g>
			<g id="shape1859-72" v:mID="1859" v:groupContext="shape" transform="translate(113.386,-14.1732)">
				<title>Blad.1859</title>
				<rect x="0" y="113.886" width="14.1732" height="14.1732" class="st1"/>
			</g>
			<g id="shape1860-74" v:mID="1860" v:groupContext="shape" transform="translate(127.559,2.84217E-14)">
				<title>Blad.1860</title>
				<rect x="0" y="113.886" width="14.1732" height="14.1732" class="st1"/>
			</g>
			<g id="shape1861-76" v:mID="1861" v:groupContext="shape" transform="translate(127.559,-14.1732)">
				<title>Blad.1861</title>
				<rect x="0" y="113.886" width="14.1732" height="14.1732" class="st1"/>
			</g>
			<g id="shape1870-78" v:mID="1870" v:groupContext="shape" transform="translate(85.0394,-56.6929)">
				<title>Blad.1870</title>
				<rect x="0" y="113.886" width="14.1732" height="14.1732" class="st1"/>
			</g>
			<g id="shape1871-80" v:mID="1871" v:groupContext="shape" transform="translate(85.0394,-70.8661)">
				<title>Blad.1871</title>
				<rect x="0" y="113.886" width="14.1732" height="14.1732" class="st1"/>
			</g>
			<g id="shape1872-82" v:mID="1872" v:groupContext="shape" transform="translate(99.2126,-56.6929)">
				<title>Blad.1872</title>
				<rect x="0" y="113.886" width="14.1732" height="14.1732" class="st1"/>
			</g>
			<g id="shape1873-84" v:mID="1873" v:groupContext="shape" transform="translate(99.2126,-70.8661)">
				<title>Blad.1873</title>
				<rect x="0" y="113.886" width="14.1732" height="14.1732" class="st1"/>
			</g>
			<g id="shape1874-86" v:mID="1874" v:groupContext="shape" transform="translate(113.386,-56.6929)">
				<title>Blad.1874</title>
				<rect x="0" y="113.886" width="14.1732" height="14.1732" class="st1"/>
			</g>
			<g id="shape1875-88" v:mID="1875" v:groupContext="shape" transform="translate(113.386,-70.8661)">
				<title>Blad.1875</title>
				<rect x="0" y="113.886" width="14.1732" height="14.1732" class="st1"/>
			</g>
			<g id="shape1876-90" v:mID="1876" v:groupContext="shape" transform="translate(127.559,-56.6929)">
				<title>Blad.1876</title>
				<rect x="0" y="113.886" width="14.1732" height="14.1732" class="st1"/>
			</g>
			<g id="shape1877-92" v:mID="1877" v:groupContext="shape" transform="translate(127.559,-70.8661)">
				<title>Blad.1877</title>
				<rect x="0" y="113.886" width="14.1732" height="14.1732" class="st1"/>
			</g>
			<g id="shape1878-94" v:mID="1878" v:groupContext="shape" transform="translate(85.0394,-28.3465)">
				<title>Blad.1878</title>
				<rect x="0" y="113.886" width="14.1732" height="14.1732" class="st1"/>
			</g>
			<g id="shape1879-96" v:mID="1879" v:groupContext="shape" transform="translate(85.0394,-42.5197)">
				<title>Blad.1879</title>
				<rect x="0" y="113.886" width="14.1732" height="14.1732" class="st1"/>
			</g>
			<g id="shape1880-98" v:mID="1880" v:groupContext="shape" transform="translate(99.2126,-28.3465)">
				<title>Blad.1880</title>
				<rect x="0" y="113.886" width="14.1732" height="14.1732" class="st1"/>
			</g>
			<g id="shape1881-100" v:mID="1881" v:groupContext="shape" transform="translate(99.2126,-42.5197)">
				<title>Blad.1881</title>
				<rect x="0" y="113.886" width="14.1732" height="14.1732" class="st1"/>
			</g>
			<g id="shape1882-102" v:mID="1882" v:groupContext="shape" transform="translate(113.386,-28.3465)">
				<title>Blad.1882</title>
				<rect x="0" y="113.886" width="14.1732" height="14.1732" class="st1"/>
			</g>
			<g id="shape1883-104" v:mID="1883" v:groupContext="shape" transform="translate(113.386,-42.5197)">
				<title>Blad.1883</title>
				<rect x="0" y="113.886" width="14.1732" height="14.1732" class="st1"/>
			</g>
			<g id="shape1884-106" v:mID="1884" v:groupContext="shape" transform="translate(127.559,-28.3465)">
				<title>Blad.1884</title>
				<rect x="0" y="113.886" width="14.1732" height="14.1732" class="st1"/>
			</g>
			<g id="shape1885-108" v:mID="1885" v:groupContext="shape" transform="translate(127.559,-42.5197)">
				<title>Blad.1885</title>
				<rect x="0" y="113.886" width="14.1732" height="14.1732" class="st1"/>
			</g>
			<g id="shape1886-110" v:mID="1886" v:groupContext="shape" transform="translate(42.5197,2.84217E-14)">
				<title>Blad.1886</title>
				<rect x="0" y="113.886" width="14.1732" height="14.1732" class="st1"/>
			</g>
			<g id="shape1887-112" v:mID="1887" v:groupContext="shape" transform="translate(42.5197,-14.1732)">
				<title>Blad.1887</title>
				<rect x="0" y="113.886" width="14.1732" height="14.1732" class="st1"/>
			</g>
			<g id="shape1888-114" v:mID="1888" v:groupContext="shape" transform="translate(56.6929,2.84217E-14)">
				<title>Blad.1888</title>
				<rect x="0" y="113.886" width="14.1732" height="14.1732" class="st1"/>
			</g>
			<g id="shape1889-116" v:mID="1889" v:groupContext="shape" transform="translate(56.6929,-14.1732)">
				<title>Blad.1889</title>
				<rect x="0" y="113.886" width="14.1732" height="14.1732" class="st1"/>
			</g>
			<g id="shape1890-118" v:mID="1890" v:groupContext="shape" transform="translate(70.8661,2.84217E-14)">
				<title>Blad.1890</title>
				<rect x="0" y="113.886" width="14.1732" height="14.1732" class="st1"/>
			</g>
			<g id="shape1891-120" v:mID="1891" v:groupContext="shape" transform="translate(70.8661,-14.1732)">
				<title>Blad.1891</title>
				<rect x="0" y="113.886" width="14.1732" height="14.1732" class="st1"/>
			</g>
			<g id="shape1898-122" v:mID="1898" v:groupContext="shape" transform="translate(42.5197,-56.6929)">
				<title>Blad.1898</title>
				<rect x="0" y="113.886" width="14.1732" height="14.1732" class="st1"/>
			</g>
			<g id="shape1899-124" v:mID="1899" v:groupContext="shape" transform="translate(42.5197,-70.8661)">
				<title>Blad.1899</title>
				<rect x="0" y="113.886" width="14.1732" height="14.1732" class="st1"/>
			</g>
			<g id="shape1900-126" v:mID="1900" v:groupContext="shape" transform="translate(56.6929,-56.6929)">
				<title>Blad.1900</title>
				<rect x="0" y="113.886" width="14.1732" height="14.1732" class="st1"/>
			</g>
			<g id="shape1901-128" v:mID="1901" v:groupContext="shape" transform="translate(56.6929,-70.8661)">
				<title>Blad.1901</title>
				<rect x="0" y="113.886" width="14.1732" height="14.1732" class="st1"/>
			</g>
			<g id="shape1902-130" v:mID="1902" v:groupContext="shape" transform="translate(70.8661,-56.6929)">
				<title>Blad.1902</title>
				<rect x="0" y="113.886" width="14.1732" height="14.1732" class="st1"/>
			</g>
			<g id="shape1903-132" v:mID="1903" v:groupContext="shape" transform="translate(70.8661,-70.8661)">
				<title>Blad.1903</title>
				<rect x="0" y="113.886" width="14.1732" height="14.1732" class="st1"/>
			</g>
			<g id="shape1904-134" v:mID="1904" v:groupContext="shape" transform="translate(42.5197,-28.3465)">
				<title>Blad.1904</title>
				<rect x="0" y="113.886" width="14.1732" height="14.1732" class="st1"/>
			</g>
			<g id="shape1905-136" v:mID="1905" v:groupContext="shape" transform="translate(42.5197,-42.5197)">
				<title>Blad.1905</title>
				<rect x="0" y="113.886" width="14.1732" height="14.1732" class="st1"/>
			</g>
			<g id="shape1906-138" v:mID="1906" v:groupContext="shape" transform="translate(56.6929,-28.3465)">
				<title>Blad.1906</title>
				<rect x="0" y="113.886" width="14.1732" height="14.1732" class="st1"/>
			</g>
			<g id="shape1907-140" v:mID="1907" v:groupContext="shape" transform="translate(56.6929,-42.5197)">
				<title>Blad.1907</title>
				<rect x="0" y="113.886" width="14.1732" height="14.1732" class="st1"/>
			</g>
			<g id="shape1908-142" v:mID="1908" v:groupContext="shape" transform="translate(70.8661,-28.3465)">
				<title>Blad.1908</title>
				<rect x="0" y="113.886" width="14.1732" height="14.1732" class="st1"/>
			</g>
			<g id="shape1909-144" v:mID="1909" v:groupContext="shape" transform="translate(70.8661,-42.5197)">
				<title>Blad.1909</title>
				<rect x="0" y="113.886" width="14.1732" height="14.1732" class="st1"/>
			</g>
			<g id="shape1922-146" v:mID="1922" v:groupContext="shape" transform="translate(141.732,-85.0394)">
				<title>Blad.1922</title>
				<rect x="0" y="113.886" width="14.1732" height="14.1732" class="st1"/>
			</g>
			<g id="shape1923-148" v:mID="1923" v:groupContext="shape" transform="translate(141.732,-99.2126)">
				<title>Blad.1923</title>
				<rect x="0" y="113.886" width="14.1732" height="14.1732" class="st1"/>
			</g>
			<g id="shape1924-150" v:mID="1924" v:groupContext="shape" transform="translate(155.906,-85.0394)">
				<title>Blad.1924</title>
				<rect x="0" y="113.886" width="14.1732" height="14.1732" class="st1"/>
			</g>
			<g id="shape1925-152" v:mID="1925" v:groupContext="shape" transform="translate(155.906,-99.2126)">
				<title>Blad.1925</title>
				<rect x="0" y="113.886" width="14.1732" height="14.1732" class="st1"/>
			</g>
			<g id="shape1926-154" v:mID="1926" v:groupContext="shape" transform="translate(170.079,-85.0394)">
				<title>Blad.1926</title>
				<rect x="0" y="113.886" width="14.1732" height="14.1732" class="st1"/>
			</g>
			<g id="shape1927-156" v:mID="1927" v:groupContext="shape" transform="translate(170.079,-99.2126)">
				<title>Blad.1927</title>
				<rect x="0" y="113.886" width="14.1732" height="14.1732" class="st1"/>
			</g>
			<g id="shape1928-158" v:mID="1928" v:groupContext="shape" transform="translate(184.252,-85.0394)">
				<title>Blad.1928</title>
				<rect x="0" y="113.886" width="14.1732" height="14.1732" class="st1"/>
			</g>
			<g id="shape1929-160" v:mID="1929" v:groupContext="shape" transform="translate(184.252,-99.2126)">
				<title>Blad.1929</title>
				<rect x="0" y="113.886" width="14.1732" height="14.1732" class="st1"/>
			</g>
			<g id="shape1930-162" v:mID="1930" v:groupContext="shape" transform="translate(198.425,-85.0394)">
				<title>Blad.1930</title>
				<rect x="0" y="113.886" width="14.1732" height="14.1732" class="st1"/>
			</g>
			<g id="shape1931-164" v:mID="1931" v:groupContext="shape" transform="translate(198.425,-99.2126)">
				<title>Blad.1931</title>
				<rect x="0" y="113.886" width="14.1732" height="14.1732" class="st1"/>
			</g>
			<g id="shape1932-166" v:mID="1932" v:groupContext="shape" transform="translate(85.0394,-85.0394)">
				<title>Blad.1932</title>
				<rect x="0" y="113.886" width="14.1732" height="14.1732" class="st1"/>
			</g>
			<g id="shape1933-168" v:mID="1933" v:groupContext="shape" transform="translate(85.0394,-99.2126)">
				<title>Blad.1933</title>
				<rect x="0" y="113.886" width="14.1732" height="14.1732" class="st1"/>
			</g>
			<g id="shape1934-170" v:mID="1934" v:groupContext="shape" transform="translate(99.2126,-85.0394)">
				<title>Blad.1934</title>
				<rect x="0" y="113.886" width="14.1732" height="14.1732" class="st1"/>
			</g>
			<g id="shape1935-172" v:mID="1935" v:groupContext="shape" transform="translate(99.2126,-99.2126)">
				<title>Blad.1935</title>
				<rect x="0" y="113.886" width="14.1732" height="14.1732" class="st1"/>
			</g>
			<g id="shape1936-174" v:mID="1936" v:groupContext="shape" transform="translate(113.386,-85.0394)">
				<title>Blad.1936</title>
				<rect x="0" y="113.886" width="14.1732" height="14.1732" class="st1"/>
			</g>
			<g id="shape1937-176" v:mID="1937" v:groupContext="shape" transform="translate(113.386,-99.2126)">
				<title>Blad.1937</title>
				<rect x="0" y="113.886" width="14.1732" height="14.1732" class="st1"/>
			</g>
			<g id="shape1938-178" v:mID="1938" v:groupContext="shape" transform="translate(127.559,-85.0394)">
				<title>Blad.1938</title>
				<rect x="0" y="113.886" width="14.1732" height="14.1732" class="st1"/>
			</g>
			<g id="shape1939-180" v:mID="1939" v:groupContext="shape" transform="translate(127.559,-99.2126)">
				<title>Blad.1939</title>
				<rect x="0" y="113.886" width="14.1732" height="14.1732" class="st1"/>
			</g>
			<g id="shape1940-182" v:mID="1940" v:groupContext="shape" transform="translate(42.5197,-85.0394)">
				<title>Blad.1940</title>
				<rect x="0" y="113.886" width="14.1732" height="14.1732" class="st1"/>
			</g>
			<g id="shape1941-184" v:mID="1941" v:groupContext="shape" transform="translate(42.5197,-99.2126)">
				<title>Blad.1941</title>
				<rect x="0" y="113.886" width="14.1732" height="14.1732" class="st1"/>
			</g>
			<g id="shape1942-186" v:mID="1942" v:groupContext="shape" transform="translate(56.6929,-85.0394)">
				<title>Blad.1942</title>
				<rect x="0" y="113.886" width="14.1732" height="14.1732" class="st1"/>
			</g>
			<g id="shape1943-188" v:mID="1943" v:groupContext="shape" transform="translate(56.6929,-99.2126)">
				<title>Blad.1943</title>
				<rect x="0" y="113.886" width="14.1732" height="14.1732" class="st1"/>
			</g>
			<g id="shape1944-190" v:mID="1944" v:groupContext="shape" transform="translate(70.8661,-85.0394)">
				<title>Blad.1944</title>
				<rect x="0" y="113.886" width="14.1732" height="14.1732" class="st1"/>
			</g>
			<g id="shape1945-192" v:mID="1945" v:groupContext="shape" transform="translate(70.8661,-99.2126)">
				<title>Blad.1945</title>
				<rect x="0" y="113.886" width="14.1732" height="14.1732" class="st1"/>
			</g>
			<g id="shape1946-194" v:mID="1946" v:groupContext="shape">
				<title>Blad.1946</title>
				<rect x="0" y="113.886" width="14.1732" height="14.1732" class="st1"/>
			</g>
			<g id="shape1947-196" v:mID="1947" v:groupContext="shape" transform="translate(2.9976E-15,-14.1732)">
				<title>Blad.1947</title>
				<rect x="0" y="113.886" width="14.1732" height="14.1732" class="st1"/>
			</g>
			<g id="shape1948-198" v:mID="1948" v:groupContext="shape" transform="translate(14.1732,2.84217E-14)">
				<title>Blad.1948</title>
				<rect x="0" y="113.886" width="14.1732" height="14.1732" class="st1"/>
			</g>
			<g id="shape1949-200" v:mID="1949" v:groupContext="shape" transform="translate(14.1732,-14.1732)">
				<title>Blad.1949</title>
				<rect x="0" y="113.886" width="14.1732" height="14.1732" class="st1"/>
			</g>
			<g id="shape1950-202" v:mID="1950" v:groupContext="shape" transform="translate(28.3465,2.84217E-14)">
				<title>Blad.1950</title>
				<rect x="0" y="113.886" width="14.1732" height="14.1732" class="st1"/>
			</g>
			<g id="shape1951-204" v:mID="1951" v:groupContext="shape" transform="translate(28.3465,-14.1732)">
				<title>Blad.1951</title>
				<rect x="0" y="113.886" width="14.1732" height="14.1732" class="st1"/>
			</g>
			<g id="shape1958-206" v:mID="1958" v:groupContext="shape" transform="translate(2.9976E-15,-56.6929)">
				<title>Blad.1958</title>
				<rect x="0" y="113.886" width="14.1732" height="14.1732" class="st1"/>
			</g>
			<g id="shape1959-208" v:mID="1959" v:groupContext="shape" transform="translate(2.9976E-15,-70.8661)">
				<title>Blad.1959</title>
				<rect x="0" y="113.886" width="14.1732" height="14.1732" class="st1"/>
			</g>
			<g id="shape1960-210" v:mID="1960" v:groupContext="shape" transform="translate(14.1732,-56.6929)">
				<title>Blad.1960</title>
				<rect x="0" y="113.886" width="14.1732" height="14.1732" class="st1"/>
			</g>
			<g id="shape1961-212" v:mID="1961" v:groupContext="shape" transform="translate(14.1732,-70.8661)">
				<title>Blad.1961</title>
				<rect x="0" y="113.886" width="14.1732" height="14.1732" class="st1"/>
			</g>
			<g id="shape1962-214" v:mID="1962" v:groupContext="shape" transform="translate(28.3465,-56.6929)">
				<title>Blad.1962</title>
				<rect x="0" y="113.886" width="14.1732" height="14.1732" class="st1"/>
			</g>
			<g id="shape1963-216" v:mID="1963" v:groupContext="shape" transform="translate(28.3465,-70.8661)">
				<title>Blad.1963</title>
				<rect x="0" y="113.886" width="14.1732" height="14.1732" class="st1"/>
			</g>
			<g id="shape1964-218" v:mID="1964" v:groupContext="shape" transform="translate(2.9976E-15,-28.3465)">
				<title>Blad.1964</title>
				<rect x="0" y="113.886" width="14.1732" height="14.1732" class="st1"/>
			</g>
			<g id="shape1965-220" v:mID="1965" v:groupContext="shape" transform="translate(2.9976E-15,-42.5197)">
				<title>Blad.1965</title>
				<rect x="0" y="113.886" width="14.1732" height="14.1732" class="st1"/>
			</g>
			<g id="shape1966-222" v:mID="1966" v:groupContext="shape" transform="translate(14.1732,-28.3465)">
				<title>Blad.1966</title>
				<rect x="0" y="113.886" width="14.1732" height="14.1732" class="st1"/>
			</g>
			<g id="shape1967-224" v:mID="1967" v:groupContext="shape" transform="translate(14.1732,-42.5197)">
				<title>Blad.1967</title>
				<rect x="0" y="113.886" width="14.1732" height="14.1732" class="st1"/>
			</g>
			<g id="shape1968-226" v:mID="1968" v:groupContext="shape" transform="translate(28.3465,-28.3465)">
				<title>Blad.1968</title>
				<rect x="0" y="113.886" width="14.1732" height="14.1732" class="st1"/>
			</g>
			<g id="shape1969-228" v:mID="1969" v:groupContext="shape" transform="translate(28.3465,-42.5197)">
				<title>Blad.1969</title>
				<rect x="0" y="113.886" width="14.1732" height="14.1732" class="st1"/>
			</g>
			<g id="shape1973-230" v:mID="1973" v:groupContext="shape" transform="translate(5.13589E-13,-85.0394)">
				<title>Blad.1973</title>
				<rect x="0" y="113.886" width="14.1732" height="14.1732" class="st1"/>
			</g>
			<g id="shape1974-232" v:mID="1974" v:groupContext="shape" transform="translate(5.13589E-13,-99.2126)">
				<title>Blad.1974</title>
				<rect x="0" y="113.886" width="14.1732" height="14.1732" class="st1"/>
			</g>
			<g id="shape1975-234" v:mID="1975" v:groupContext="shape" transform="translate(14.1732,-85.0394)">
				<title>Blad.1975</title>
				<rect x="0" y="113.886" width="14.1732" height="14.1732" class="st1"/>
			</g>
			<g id="shape1976-236" v:mID="1976" v:groupContext="shape" transform="translate(14.1732,-99.2126)">
				<title>Blad.1976</title>
				<rect x="0" y="113.886" width="14.1732" height="14.1732" class="st1"/>
			</g>
			<g id="shape1977-238" v:mID="1977" v:groupContext="shape" transform="translate(28.3465,-85.0394)">
				<title>Blad.1977</title>
				<rect x="0" y="113.886" width="14.1732" height="14.1732" class="st1"/>
			</g>
			<g id="shape1978-240" v:mID="1978" v:groupContext="shape" transform="translate(28.3465,-99.2126)">
				<title>Blad.1978</title>
				<rect x="0" y="113.886" width="14.1732" height="14.1732" class="st1"/>
			</g>
			<g id="shape1979-242" v:mID="1979" v:groupContext="shape" transform="translate(141.732,-113.386)">
				<title>Blad.1979</title>
				<rect x="0" y="113.886" width="14.1732" height="14.1732" class="st1"/>
			</g>
			<g id="shape1980-244" v:mID="1980" v:groupContext="shape" transform="translate(155.906,-113.386)">
				<title>Blad.1980</title>
				<rect x="0" y="113.886" width="14.1732" height="14.1732" class="st1"/>
			</g>
			<g id="shape1981-246" v:mID="1981" v:groupContext="shape" transform="translate(170.079,-113.386)">
				<title>Blad.1981</title>
				<rect x="0" y="113.886" width="14.1732" height="14.1732" class="st1"/>
			</g>
			<g id="shape1982-248" v:mID="1982" v:groupContext="shape" transform="translate(184.252,-113.386)">
				<title>Blad.1982</title>
				<rect x="0" y="113.886" width="14.1732" height="14.1732" class="st1"/>
			</g>
			<g id="shape1983-250" v:mID="1983" v:groupContext="shape" transform="translate(198.425,-113.386)">
				<title>Blad.1983</title>
				<rect x="0" y="113.886" width="14.1732" height="14.1732" class="st1"/>
			</g>
			<g id="shape1984-252" v:mID="1984" v:groupContext="shape" transform="translate(85.0394,-113.386)">
				<title>Blad.1984</title>
				<rect x="0" y="113.886" width="14.1732" height="14.1732" class="st1"/>
			</g>
			<g id="shape1985-254" v:mID="1985" v:groupContext="shape" transform="translate(99.2126,-113.386)">
				<title>Blad.1985</title>
				<rect x="0" y="113.886" width="14.1732" height="14.1732" class="st1"/>
			</g>
			<g id="shape1986-256" v:mID="1986" v:groupContext="shape" transform="translate(113.386,-113.386)">
				<title>Blad.1986</title>
				<rect x="0" y="113.886" width="14.1732" height="14.1732" class="st1"/>
			</g>
			<g id="shape1987-258" v:mID="1987" v:groupContext="shape" transform="translate(127.559,-113.386)">
				<title>Blad.1987</title>
				<rect x="0" y="113.886" width="14.1732" height="14.1732" class="st1"/>
			</g>
			<g id="shape1988-260" v:mID="1988" v:groupContext="shape" transform="translate(42.5197,-113.386)">
				<title>Blad.1988</title>
				<rect x="0" y="113.886" width="14.1732" height="14.1732" class="st1"/>
			</g>
			<g id="shape1989-262" v:mID="1989" v:groupContext="shape" transform="translate(56.6929,-113.386)">
				<title>Blad.1989</title>
				<rect x="0" y="113.886" width="14.1732" height="14.1732" class="st1"/>
			</g>
			<g id="shape1990-264" v:mID="1990" v:groupContext="shape" transform="translate(70.8661,-113.386)">
				<title>Blad.1990</title>
				<rect x="0" y="113.886" width="14.1732" height="14.1732" class="st1"/>
			</g>
			<g id="shape1991-266" v:mID="1991" v:groupContext="shape" transform="translate(2.9976E-15,-113.386)">
				<title>Blad.1991</title>
				<rect x="0" y="113.886" width="14.1732" height="14.1732" class="st1"/>
			</g>
			<g id="shape1992-268" v:mID="1992" v:groupContext="shape" transform="translate(14.1732,-113.386)">
				<title>Blad.1992</title>
				<rect x="0" y="113.886" width="14.1732" height="14.1732" class="st1"/>
			</g>
			<g id="shape1993-270" v:mID="1993" v:groupContext="shape" transform="translate(28.3465,-113.386)">
				<title>Blad.1993</title>
				<rect x="0" y="113.886" width="14.1732" height="14.1732" class="st1"/>
			</g>
		</g>
		<g id="shape1994-272" v:mID="1994" v:groupContext="shape" transform="translate(14.5482,-56.9429)">
			<title>Blad.1994</title>
			<path d="M0 128.06 L187.09 128.06" class="st2"/>
		</g>
		<g id="shape1995-275" v:mID="1995" v:groupContext="shape" transform="translate(329.694,71.1161) rotate(90)">
			<title>Blad.1995</title>
			<path d="M0 128.06 L28.35 128.06" class="st3"/>
		</g>
		<g id="shape1996-278" v:mID="1996" v:groupContext="shape" transform="translate(-113.511,71.1161) rotate(-90)">
			<title>Blad.1996</title>
			<path d="M0 128.06 L45.35 128.06" class="st2"/>
		</g>
		<g id="shape1997-281" v:mID="1997" v:groupContext="shape" transform="translate(139.273,-28.5965)">
			<title>Blad.1997</title>
			<path d="M0 128.06 L62.36 128.06" class="st3"/>
		</g>
		<g id="shape1998-284" v:mID="1998" v:groupContext="shape" transform="translate(14.5482,-28.5965)">
			<title>Blad.1998</title>
			<path d="M0 54.36 L51.02 54.36 L124.72 128.06" class="st3"/>
		</g>
		<g id="shape1999-287" v:mID="1999" v:groupContext="shape" transform="translate(156.281,-35.6831)">
			<title>Dwarskrachtvervormingsteken negatief</title>
			<path d="M0 128.06 L14.17 128.06 L14.17 113.89 L28.35 113.89" class="st4"/>
		</g>
		<g id="shape2000-290" v:mID="2000" v:groupContext="shape" transform="translate(35.8081,167.285) scale(1,-1)">
			<title>Dwarskrachtvervormingsteken positief</title>
			<path d="M0 128.06 L14.17 128.06 L14.17 113.89 L28.35 113.89" class="st4"/>
		</g>
		<g id="shape2001-293" v:mID="2001" v:groupContext="shape" transform="translate(0.375,-102.297)">
			<title>Maatlijn.2001</title>
			<desc>16</desc>
			<v:textBlock v:margins="rect(4,4,4,4)" v:tabSpace="42.5197"/>
			<v:textRect cx="14.1732" cy="120.972" width="28.35" height="14.1732"/>
			<rect x="0" y="113.886" width="28.3465" height="14.1732" class="st5"/>
			<text x="8.17" y="124.57" class="st6" v:langID="1043"><v:paragraph v:horizAlign="1"/><v:tabList/>16</text>		</g>
		<g id="shape2002-296" v:mID="2002" v:groupContext="shape" transform="translate(51.3986,-102.297)">
			<title>Maatlijn.2002</title>
			<desc>16</desc>
			<v:textBlock v:margins="rect(4,4,4,4)" v:tabSpace="42.5197"/>
			<v:textRect cx="14.1732" cy="120.972" width="28.35" height="14.1732"/>
			<rect x="0" y="113.886" width="28.3465" height="14.1732" class="st5"/>
			<text x="8.17" y="124.57" class="st6" v:langID="1043"><v:paragraph v:horizAlign="1"/><v:tabList/>16</text>		</g>
		<g id="shape2003-299" v:mID="2003" v:groupContext="shape" transform="translate(125.099,-14.4232)">
			<title>Maatlijn.2003</title>
			<desc>10</desc>
			<v:textBlock v:margins="rect(4,4,4,4)" v:tabSpace="42.5197"/>
			<v:textRect cx="14.1732" cy="120.972" width="28.35" height="14.1732"/>
			<rect x="0" y="113.886" width="28.3465" height="14.1732" class="st5"/>
			<text x="8.17" y="124.57" class="st6" v:langID="1043"><v:paragraph v:horizAlign="1"/><v:tabList/>10</text>		</g>
		<g id="shape2004-302" v:mID="2004" v:groupContext="shape" transform="translate(184.627,-14.4232)">
			<title>Maatlijn.2004</title>
			<desc>10</desc>
			<v:textBlock v:margins="rect(4,4,4,4)" v:tabSpace="42.5197"/>
			<v:textRect cx="14.1732" cy="120.972" width="28.35" height="14.1732"/>
			<rect x="0" y="113.886" width="28.3465" height="14.1732" class="st5"/>
			<text x="8.17" y="124.57" class="st6" v:langID="1043"><v:paragraph v:horizAlign="1"/><v:tabList/>10</text>		</g>
		<g id="group2006-305" transform="translate(142.107,-99.4626)" v:mID="2006" v:groupContext="group">
			<title>Maatlijn.2006</title>
			<g id="group2007-306" transform="translate(0,-9.92126)" v:mID="2007" v:groupContext="group">
				<title>Maatlijn.31</title>
				<g id="shape2008-307" v:mID="2008" v:groupContext="shape" transform="translate(128.059,119.555) rotate(90)">
					<title>Blad.2008</title>
					<path d="M0 128.06 L8.5 128.06" class="st7"/>
				</g>
				<g id="shape2009-310" v:mID="2009" v:groupContext="shape" transform="translate(184.752,119.555) rotate(90)">
					<title>Blad.2009</title>
					<path d="M0 128.06 L8.5 128.06" class="st7"/>
				</g>
				<g id="shape2010-313" v:mID="2010" v:groupContext="shape" transform="translate(0,-4.25197)">
					<title>Blad.2010</title>
					<path d="M3.74 128.06 L4.1 128.06 L52.59 128.06" class="st8"/>
				</g>
			</g>
			<g id="shape2011-322" v:mID="2011" v:groupContext="shape" transform="translate(-14.1732,5.68434E-14)">
				<title>Blad.2011</title>
				<desc>20 m / 20 kN</desc>
				<v:textBlock v:margins="rect(4,4,4,4)" v:tabSpace="42.5197"/>
				<v:textRect cx="42.5197" cy="120.972" width="85.04" height="14.1732"/>
				<rect x="0" y="113.886" width="85.0394" height="14.1732" class="st5"/>
				<text x="10.85" y="124.57" class="st6" v:langID="1043"><v:paragraph v:horizAlign="1"/><v:tabList/>20 m / 20 kN</text>			</g>
		</g>
	</g>
</svg>
