<?xml version="1.0" encoding="UTF-8" standalone="no"?>
<!DOCTYPE svg PUBLIC "-//W3C//DTD SVG 1.1//EN" "http://www.w3.org/Graphics/SVG/1.1/DTD/svg11.dtd">
<!-- Gegenereerd door Microsoft Visio, SVG Export cs3_NC.svg Pagina-1 -->
<svg xmlns="http://www.w3.org/2000/svg" xmlns:xlink="http://www.w3.org/1999/xlink" xmlns:ev="http://www.w3.org/2001/xml-events"
		xmlns:v="http://schemas.microsoft.com/visio/2003/SVGExtensions/" width="3.62262in" height="3.61218in"
		viewBox="0 0 260.829 260.077" xml:space="preserve" color-interpolation-filters="sRGB" class="st9">
	<v:documentProperties v:langID="1043" v:metric="true" v:viewMarkup="false"/>

	<style type="text/css">
	<![CDATA[
		.st1 {fill:#d8d8d8;stroke:none;stroke-linecap:round;stroke-linejoin:round;stroke-width:0.75}
		.st2 {fill:#ffffff;stroke:none;stroke-linecap:round;stroke-linejoin:round;stroke-width:0.24}
		.st3 {stroke:#000000;stroke-linecap:round;stroke-linejoin:round;stroke-width:0.25}
		.st4 {marker-end:url(#mrkr4-21);marker-start:url(#mrkr4-19);stroke:#000000;stroke-linecap:round;stroke-linejoin:round;stroke-width:0.25}
		.st5 {fill:#000000;fill-opacity:1;stroke:#000000;stroke-opacity:1;stroke-width:0.12195121951219}
		.st6 {fill:none;stroke:none;stroke-linecap:round;stroke-linejoin:round;stroke-width:0.75}
		.st7 {fill:#000000;font-family:Times New Roman;font-size:1.00001em}
		.st8 {stroke:#000000;stroke-linecap:round;stroke-linejoin:round;stroke-width:0.75}
		.st9 {fill:none;fill-rule:evenodd;font-size:12px;overflow:visible;stroke-linecap:square;stroke-miterlimit:3}
	]]>
	</style>

	<defs id="Markers">
		<g id="lend4">
			<path d="M 2 1 L 0 0 L 2 -1 L 2 1 " style="stroke:none"/>
		</g>
		<marker id="mrkr4-19" class="st5" v:arrowType="4" v:arrowSize="1" v:setback="14.96" refX="14.96" orient="auto"
				markerUnits="strokeWidth" overflow="visible">
			<use xlink:href="#lend4" transform="scale(8.2) "/>
		</marker>
		<marker id="mrkr4-21" class="st5" v:arrowType="4" v:arrowSize="1" v:setback="16.4" refX="-16.4" orient="auto"
				markerUnits="strokeWidth" overflow="visible">
			<use xlink:href="#lend4" transform="scale(-8.2,-8.2) "/>
		</marker>
	</defs>
	<g v:mID="0" v:index="1" v:groupContext="foregroundPage">
		<title>Pagina-1</title>
		<v:pageProperties v:drawingScale="0.0393701" v:pageScale="0.0393701" v:drawingUnits="24" v:shadowOffsetX="8.50394"
				v:shadowOffsetY="-8.50394"/>
		<g id="shape9-1" v:mID="9" v:groupContext="shape" transform="translate(11.0049,-28.7215)">
			<title>Blad.9</title>
			<path d="M0 260.08 L184.25 260.08 L184.25 33.31 L0 33.31 L0 260.08 Z" class="st1"/>
		</g>
		<g id="shape10-3" v:mID="10" v:groupContext="shape" transform="translate(46.438,-113.761)">
			<title>Cirkel</title>
			<v:userDefs>
				<v:ud v:nameU="visVersion" v:val="VT0(15):26"/>
			</v:userDefs>
			<path d="M0 203.38 A56.6929 56.6929 0 0 1 113.39 203.38 A56.6929 56.6929 0 1 1 0 203.38 Z" class="st2"/>
		</g>
		<g id="group119-5" transform="translate(205.178,-227.147)" v:mID="119" v:groupContext="group">
			<title>Maatlijn verticaal.119</title>
			<g id="group120-6" transform="translate(-251.573,260.077) rotate(-90)" v:mID="120" v:groupContext="group">
				<title>Maatlijn.31</title>
				<g id="shape121-7" v:mID="121" v:groupContext="shape" transform="translate(260.077,251.573) rotate(90)">
					<title>Blad.121</title>
					<path d="M0 260.08 L8.5 260.08" class="st3"/>
				</g>
				<g id="shape122-10" v:mID="122" v:groupContext="shape" transform="translate(288.424,251.573) rotate(90)">
					<title>Blad.122</title>
					<path d="M0 260.08 L8.5 260.08" class="st3"/>
				</g>
				<g id="shape123-13" v:mID="123" v:groupContext="shape" transform="translate(0,-4.25197)">
					<title>Blad.123</title>
					<path d="M3.74 260.08 L4.1 260.08 L24.25 260.08" class="st4"/>
				</g>
			</g>
			<g id="shape124-22" v:mID="124" v:groupContext="shape" transform="translate(4.25197,-11.3386)">
				<title>Blad.124</title>
				<desc>100 mm</desc>
				<v:textBlock v:margins="rect(4,4,4,4)" v:tabSpace="42.5197"/>
				<v:textRect cx="25.5118" cy="257.242" width="51.03" height="5.6693"/>
				<rect x="0" y="254.408" width="51.0236" height="5.6693" class="st6"/>
				<text x="5.68" y="260.84" class="st7" v:langID="1043"><v:paragraph v:horizAlign="1"/><v:tabList/>100 mm</text>			</g>
		</g>
		<g id="group131-25" transform="translate(205.178,-28.7215)" v:mID="131" v:groupContext="group">
			<title>Maatlijn verticaal.131</title>
			<g id="group132-26" transform="translate(-251.573,260.077) rotate(-90)" v:mID="132" v:groupContext="group">
				<title>Maatlijn.31</title>
				<g id="shape133-27" v:mID="133" v:groupContext="shape" transform="translate(260.077,251.573) rotate(90)">
					<title>Blad.133</title>
					<path d="M0 260.08 L8.5 260.08" class="st3"/>
				</g>
				<g id="shape134-30" v:mID="134" v:groupContext="shape" transform="translate(345.116,251.573) rotate(90)">
					<title>Blad.134</title>
					<path d="M0 260.08 L8.5 260.08" class="st3"/>
				</g>
				<g id="shape135-33" v:mID="135" v:groupContext="shape" transform="translate(0,-4.25197)">
					<title>Blad.135</title>
					<path d="M3.74 260.08 L4.1 260.08 L80.94 260.08" class="st4"/>
				</g>
			</g>
			<g id="shape136-40" v:mID="136" v:groupContext="shape" transform="translate(4.25197,-34.0157)">
				<title>Blad.136</title>
				<desc>300 mm</desc>
				<v:textBlock v:margins="rect(4,4,4,4)" v:tabSpace="42.5197"/>
				<v:textRect cx="25.5118" cy="251.573" width="51.03" height="17.0079"/>
				<rect x="0" y="243.069" width="51.0236" height="17.0079" class="st6"/>
				<text x="5.68" y="255.17" class="st7" v:langID="1043"><v:paragraph v:horizAlign="1"/><v:tabList/>300 mm</text>			</g>
		</g>
		<g id="group137-43" transform="translate(11.0049,-0.375)" v:mID="137" v:groupContext="group">
			<title>Maatlijn.137</title>
			<g id="group138-44" transform="translate(0,-9.92126)" v:mID="138" v:groupContext="group">
				<title>Maatlijn.31</title>
				<g id="shape139-45" v:mID="139" v:groupContext="shape" transform="translate(260.077,251.573) rotate(90)">
					<title>Blad.139</title>
					<path d="M0 260.08 L8.5 260.08" class="st3"/>
				</g>
				<g id="shape140-48" v:mID="140" v:groupContext="shape" transform="translate(295.51,251.573) rotate(90)">
					<title>Blad.140</title>
					<path d="M0 260.08 L8.5 260.08" class="st3"/>
				</g>
				<g id="shape141-51" v:mID="141" v:groupContext="shape" transform="translate(0,-4.25197)">
					<title>Blad.141</title>
					<path d="M3.74 260.08 L4.1 260.08 L31.33 260.08" class="st4"/>
				</g>
			</g>
			<g id="shape142-58" v:mID="142" v:groupContext="shape" transform="translate(-10.6299,5.68434E-14)">
				<title>Blad.142</title>
				<desc>125 mm</desc>
				<v:textBlock v:margins="rect(4,4,4,4)" v:tabSpace="42.5197"/>
				<v:textRect cx="28.3465" cy="252.99" width="56.7" height="14.1732"/>
				<rect x="0" y="245.904" width="56.6929" height="14.1732" class="st6"/>
				<text x="8.51" y="256.59" class="st7" v:langID="1043"><v:paragraph v:horizAlign="1"/><v:tabList/>125 mm</text>			</g>
		</g>
		<g id="group143-61" transform="translate(159.824,-0.375)" v:mID="143" v:groupContext="group">
			<title>Maatlijn.143</title>
			<g id="group144-62" transform="translate(0,-9.92126)" v:mID="144" v:groupContext="group">
				<title>Maatlijn.31</title>
				<g id="shape145-63" v:mID="145" v:groupContext="shape" transform="translate(260.077,251.573) rotate(90)">
					<title>Blad.145</title>
					<path d="M0 260.08 L8.5 260.08" class="st3"/>
				</g>
				<g id="shape146-66" v:mID="146" v:groupContext="shape" transform="translate(295.51,251.573) rotate(90)">
					<title>Blad.146</title>
					<path d="M0 260.08 L8.5 260.08" class="st3"/>
				</g>
				<g id="shape147-69" v:mID="147" v:groupContext="shape" transform="translate(0,-4.25197)">
					<title>Blad.147</title>
					<path d="M3.74 260.08 L4.1 260.08 L31.33 260.08" class="st4"/>
				</g>
			</g>
			<g id="shape148-76" v:mID="148" v:groupContext="shape" transform="translate(-10.6299,5.68434E-14)">
				<title>Blad.148</title>
				<desc>125 mm</desc>
				<v:textBlock v:margins="rect(4,4,4,4)" v:tabSpace="42.5197"/>
				<v:textRect cx="28.3465" cy="252.99" width="56.7" height="14.1732"/>
				<rect x="0" y="245.904" width="56.6929" height="14.1732" class="st6"/>
				<text x="8.51" y="256.59" class="st7" v:langID="1043"><v:paragraph v:horizAlign="1"/><v:tabList/>125 mm</text>			</g>
		</g>
		<g id="shape161-79" v:mID="161" v:groupContext="shape" transform="translate(-80.7713,-56.8616) rotate(-45)">
			<title>Blad.161</title>
			<path d="M0 260.08 L2.83 260.08" class="st8"/>
		</g>
		<g id="shape162-82" v:mID="162" v:groupContext="shape" transform="translate(-82.7757,-54.8572) rotate(-45)">
			<title>Blad.162</title>
			<path d="M0 260.08 L2.83 260.08" class="st8"/>
		</g>
		<g id="shape163-85" v:mID="163" v:groupContext="shape" transform="translate(287.033,-56.8616) rotate(45)">
			<title>Blad.163</title>
			<path d="M0 260.08 L2.83 260.08" class="st8"/>
		</g>
		<g id="shape164-88" v:mID="164" v:groupContext="shape" transform="translate(285.029,-58.866) rotate(45)">
			<title>Blad.164</title>
			<path d="M0 260.08 L2.83 260.08" class="st8"/>
		</g>
		<g id="shape165-91" v:mID="165" v:groupContext="shape" transform="translate(103.131,-126.517)">
			<title>Blad.165</title>
			<desc>NC</desc>
			<v:textBlock v:margins="rect(4,4,4,4)" v:tabSpace="42.5197"/>
			<v:textRect cx="12.7559" cy="252.99" width="25.52" height="14.1732"/>
			<rect x="0" y="245.904" width="25.5118" height="14.1732" class="st6"/>
			<text x="4.42" y="256.59" class="st7" v:langID="1043"><v:paragraph v:horizAlign="1"/><v:tabList/>NC</text>		</g>
		<g id="group167-94" transform="translate(205.178,-133.036)" v:mID="167" v:groupContext="group">
			<title>Maatlijn verticaal.167</title>
			<g id="group168-95" transform="translate(-251.573,260.077) rotate(-90)" v:mID="168" v:groupContext="group">
				<title>Maatlijn.31</title>
				<g id="shape169-96" v:mID="169" v:groupContext="shape" transform="translate(260.077,251.573) rotate(90)">
					<title>Blad.169</title>
					<path d="M0 260.08 L8.5 260.08" class="st3"/>
				</g>
				<g id="shape170-99" v:mID="170" v:groupContext="shape" transform="translate(354.187,251.573) rotate(90)">
					<title>Blad.170</title>
					<path d="M0 260.08 L8.5 260.08" class="st3"/>
				</g>
				<g id="shape171-102" v:mID="171" v:groupContext="shape" transform="translate(0,-4.25197)">
					<title>Blad.171</title>
					<path d="M3.74 260.08 L4.1 260.08 L90.01 260.08" class="st4"/>
				</g>
			</g>
			<g id="shape172-109" v:mID="172" v:groupContext="shape" transform="translate(4.25197,-37.6441)">
				<title>Blad.172</title>
				<desc>332 mm</desc>
				<v:textBlock v:margins="rect(4,4,4,4)" v:tabSpace="42.5197"/>
				<v:textRect cx="25.5118" cy="250.666" width="51.03" height="18.822"/>
				<rect x="0" y="241.255" width="51.0236" height="18.822" class="st6"/>
				<text x="5.68" y="254.27" class="st7" v:langID="1043"><v:paragraph v:horizAlign="1"/><v:tabList/>332 mm</text>			</g>
		</g>
		<g id="group173-112" transform="translate(205.178,-113.761)" v:mID="173" v:groupContext="group">
			<title>Maatlijn verticaal.173</title>
			<g id="group174-113" transform="translate(-251.573,260.077) rotate(-90)" v:mID="174" v:groupContext="group">
				<title>Maatlijn.31</title>
				<g id="shape175-114" v:mID="175" v:groupContext="shape" transform="translate(260.077,251.573) rotate(90)">
					<title>Blad.175</title>
					<path d="M0 260.08 L8.5 260.08" class="st3"/>
				</g>
				<g id="shape176-117" v:mID="176" v:groupContext="shape" transform="translate(279.353,251.573) rotate(90)">
					<title>Blad.176</title>
					<path d="M0 260.08 L8.5 260.08" class="st3"/>
				</g>
				<g id="shape177-120" v:mID="177" v:groupContext="shape" transform="translate(0,-4.25197)">
					<title>Blad.177</title>
					<path d="M3.74 260.08 L4.1 260.08 L15.18 260.08" class="st4"/>
				</g>
			</g>
			<g id="shape178-127" v:mID="178" v:groupContext="shape" transform="translate(4.25197,-7.71024)">
				<title>Blad.178</title>
				<desc>68 mm</desc>
				<v:textBlock v:margins="rect(4,4,4,4)" v:tabSpace="42.5197"/>
				<v:textRect cx="25.5118" cy="258.15" width="51.03" height="3.85512"/>
				<rect x="0" y="256.222" width="51.0236" height="3.85512" class="st6"/>
				<text x="8.68" y="261.75" class="st7" v:langID="1043"><v:paragraph v:horizAlign="1"/><v:tabList/>68 mm</text>			</g>
		</g>
		<g id="group262-130" transform="translate(46.438,-0.375)" v:mID="262" v:groupContext="group">
			<title>Maatlijn.262</title>
			<g id="group263-131" transform="translate(0,-9.92126)" v:mID="263" v:groupContext="group">
				<title>Maatlijn.31</title>
				<g id="shape264-132" v:mID="264" v:groupContext="shape" transform="translate(260.077,251.573) rotate(90)">
					<title>Blad.264</title>
					<path d="M0 260.08 L8.5 260.08" class="st3"/>
				</g>
				<g id="shape265-135" v:mID="265" v:groupContext="shape" transform="translate(316.77,251.573) rotate(90)">
					<title>Blad.265</title>
					<path d="M0 260.08 L8.5 260.08" class="st3"/>
				</g>
				<g id="shape266-138" v:mID="266" v:groupContext="shape" transform="translate(0,-4.25197)">
					<title>Blad.266</title>
					<path d="M3.74 260.08 L4.1 260.08 L52.59 260.08" class="st4"/>
				</g>
			</g>
			<g id="shape267-145" v:mID="267" v:groupContext="shape" transform="translate(-17.0079,5.68434E-14)">
				<title>Blad.267</title>
				<desc>200 mm</desc>
				<v:textBlock v:margins="rect(4,4,4,4)" v:tabSpace="42.5197"/>
				<v:textRect cx="45.3543" cy="252.99" width="90.71" height="14.1732"/>
				<rect x="0" y="245.904" width="90.7087" height="14.1732" class="st6"/>
				<text x="25.52" y="256.59" class="st7" v:langID="1043"><v:paragraph v:horizAlign="1"/><v:tabList/>200 mm</text>			</g>
		</g>
		<g id="group268-148" transform="translate(103.131,-0.375)" v:mID="268" v:groupContext="group">
			<title>Maatlijn.268</title>
			<g id="group269-149" transform="translate(0,-9.92126)" v:mID="269" v:groupContext="group">
				<title>Maatlijn.31</title>
				<g id="shape270-150" v:mID="270" v:groupContext="shape" transform="translate(260.077,251.573) rotate(90)">
					<title>Blad.270</title>
					<path d="M0 260.08 L8.5 260.08" class="st3"/>
				</g>
				<g id="shape271-153" v:mID="271" v:groupContext="shape" transform="translate(316.77,251.573) rotate(90)">
					<title>Blad.271</title>
					<path d="M0 260.08 L8.5 260.08" class="st3"/>
				</g>
				<g id="shape272-156" v:mID="272" v:groupContext="shape" transform="translate(0,-4.25197)">
					<title>Blad.272</title>
					<path d="M3.74 260.08 L4.1 260.08 L52.59 260.08" class="st4"/>
				</g>
			</g>
			<g id="shape273-163" v:mID="273" v:groupContext="shape" transform="translate(-17.0079,5.68434E-14)">
				<title>Blad.273</title>
				<desc>200 mm</desc>
				<v:textBlock v:margins="rect(4,4,4,4)" v:tabSpace="42.5197"/>
				<v:textRect cx="45.3543" cy="252.99" width="90.71" height="14.1732"/>
				<rect x="0" y="245.904" width="90.7087" height="14.1732" class="st6"/>
				<text x="25.52" y="256.59" class="st7" v:langID="1043"><v:paragraph v:horizAlign="1"/><v:tabList/>200 mm</text>			</g>
		</g>
	</g>
</svg>
