<?xml version="1.0" encoding="UTF-8" standalone="no"?>
<!DOCTYPE svg PUBLIC "-//W3C//DTD SVG 1.1//EN" "http://www.w3.org/Graphics/SVG/1.1/DTD/svg11.dtd">
<!-- Gegenereerd door Microsoft Visio, SVG Export direction_support.svg Pagina-1 -->
<svg xmlns="http://www.w3.org/2000/svg" xmlns:xlink="http://www.w3.org/1999/xlink" xmlns:ev="http://www.w3.org/2001/xml-events"
		xmlns:v="http://schemas.microsoft.com/visio/2003/SVGExtensions/" width="2.96317in" height="0.940259in"
		viewBox="0 0 213.348 67.6986" xml:space="preserve" color-interpolation-filters="sRGB" class="st8">
	<v:documentProperties v:langID="1043" v:metric="true" v:viewMarkup="false"/>

	<style type="text/css">
	<![CDATA[
		.st1 {stroke:#000000;stroke-linecap:round;stroke-linejoin:round;stroke-width:1.2}
		.st2 {stroke:#000000;stroke-linecap:round;stroke-linejoin:round;stroke-width:0.75}
		.st3 {stroke:#000000;stroke-linecap:round;stroke-linejoin:round;stroke-width:2}
		.st4 {fill:#00cc99;stroke:#000000;stroke-linecap:round;stroke-linejoin:round;stroke-width:0.75}
		.st5 {fill:none;stroke:none;stroke-linecap:round;stroke-linejoin:round;stroke-width:0.75}
		.st6 {fill:#000000;font-family:Times New Roman;font-size:1.00001em}
		.st7 {font-size:1em}
		.st8 {fill:none;fill-rule:evenodd;font-size:12px;overflow:visible;stroke-linecap:square;stroke-miterlimit:3}
	]]>
	</style>

	<g v:mID="0" v:index="1" v:groupContext="foregroundPage">
		<title>Pagina-1</title>
		<v:pageProperties v:drawingScale="0.0393701" v:pageScale="0.0393701" v:drawingUnits="24" v:shadowOffsetX="8.50394"
				v:shadowOffsetY="-8.50394"/>
		<g id="group66-1" transform="translate(162.507,-38.6371)" v:mID="66" v:groupContext="group">
			<title>Blad.66</title>
			<g id="group47-2" transform="translate(-27.8262,21.8329) rotate(-45)" v:mID="47" v:groupContext="group">
				<title>Inklemming.47</title>
				<g id="shape48-3" v:mID="48" v:groupContext="shape" transform="translate(79.0372,39.3522) rotate(90)">
					<title>Blad.48</title>
					<path d="M0 67.7 L28.35 67.7" class="st1"/>
				</g>
				<g id="shape49-6" v:mID="49" v:groupContext="shape" transform="translate(56.3741,-8.51798) rotate(45)">
					<title>Blad.49</title>
					<path d="M0 67.7 L4.01 67.7" class="st2"/>
				</g>
				<g id="shape50-9" v:mID="50" v:groupContext="shape" transform="translate(53.5395,-8.51798) rotate(45)">
					<title>Blad.50</title>
					<path d="M0 67.7 L8.02 67.7" class="st2"/>
				</g>
				<g id="shape51-12" v:mID="51" v:groupContext="shape" transform="translate(50.7048,-8.51798) rotate(45)">
					<title>Blad.51</title>
					<path d="M0 67.7 L12.03 67.7" class="st2"/>
				</g>
				<g id="shape52-15" v:mID="52" v:groupContext="shape" transform="translate(47.8702,-8.51798) rotate(45)">
					<title>Blad.52</title>
					<path d="M0 67.7 L16.04 67.7" class="st2"/>
				</g>
				<g id="shape53-18" v:mID="53" v:groupContext="shape" transform="translate(47.8702,-5.68334) rotate(45)">
					<title>Blad.53</title>
					<path d="M0 67.7 L16.04 67.7" class="st2"/>
				</g>
				<g id="shape54-21" v:mID="54" v:groupContext="shape" transform="translate(47.8702,-2.84869) rotate(45)">
					<title>Blad.54</title>
					<path d="M0 67.7 L16.04 67.7" class="st2"/>
				</g>
				<g id="shape55-24" v:mID="55" v:groupContext="shape" transform="translate(47.8702,-0.0140479) rotate(45)">
					<title>Blad.55</title>
					<path d="M0 67.7 L16.04 67.7" class="st2"/>
				</g>
				<g id="shape56-27" v:mID="56" v:groupContext="shape" transform="translate(47.8702,2.8206) rotate(45)">
					<title>Blad.56</title>
					<path d="M0 67.7 L16.04 67.7" class="st2"/>
				</g>
				<g id="shape57-30" v:mID="57" v:groupContext="shape" transform="translate(47.8702,5.65524) rotate(45)">
					<title>Blad.57</title>
					<path d="M0 67.7 L16.04 67.7" class="st2"/>
				</g>
				<g id="shape58-33" v:mID="58" v:groupContext="shape" transform="translate(47.8702,8.48989) rotate(45)">
					<title>Blad.58</title>
					<path d="M0 67.7 L16.04 67.7" class="st2"/>
				</g>
				<g id="shape59-36" v:mID="59" v:groupContext="shape" transform="translate(47.8702,11.3245) rotate(45)">
					<title>Blad.59</title>
					<path d="M0 67.7 L12.03 67.7" class="st2"/>
				</g>
				<g id="shape60-39" v:mID="60" v:groupContext="shape" transform="translate(47.8702,14.1592) rotate(45)">
					<title>Blad.60</title>
					<path d="M0 67.7 L8.02 67.7" class="st2"/>
				</g>
				<g id="shape61-42" v:mID="61" v:groupContext="shape" transform="translate(47.8702,16.9938) rotate(45)">
					<title>Blad.61</title>
					<path d="M0 67.7 L4.01 67.7" class="st2"/>
				</g>
			</g>
			<g id="shape62-45" v:mID="62" v:groupContext="shape" transform="translate(57.8922,-8.23309) rotate(45)">
				<title>Inklemming.48</title>
				<path d="M0 67.7 L28.35 67.7" class="st1"/>
			</g>
			<g id="shape64-48" v:mID="64" v:groupContext="shape" transform="translate(-27.8262,1.7889) rotate(-45)">
				<title>Ligger, 2 pt</title>
				<path d="M0 67.7 L14.17 67.7" class="st3"/>
			</g>
		</g>
		<g id="group67-51" transform="translate(93.9183,-38.4946)" v:mID="67" v:groupContext="group">
			<title>Blad.67</title>
			<g id="group5-52" transform="translate(79.0372,43.6041) rotate(90)" v:mID="5" v:groupContext="group">
				<title>Rol</title>
				<g id="group6-53" transform="translate(0.261477,-2.83465)" v:mID="6" v:groupContext="group">
					<title>Scharnier</title>
					<g id="shape7-54" v:mID="7" v:groupContext="shape" transform="translate(2.79729,0)">
						<title>Blad.7</title>
						<path d="M0 67.7 L13.99 67.7 L6.99 56.36 L0 67.7 Z" class="st4"/>
					</g>
					<g id="shape8-56" v:mID="8" v:groupContext="shape" transform="translate(2.79729,135.397) rotate(180)">
						<title>Blad.8</title>
						<path d="M0 67.7 L2.8 67.7" class="st2"/>
					</g>
					<g id="shape9-59" v:mID="9" v:groupContext="shape" transform="translate(16.7838,-1.42109E-14)">
						<title>Blad.9</title>
						<path d="M0 67.7 L2.8 67.7" class="st2"/>
					</g>
				</g>
				<g id="shape10-62" v:mID="10" v:groupContext="shape">
					<title>Blad.10</title>
					<path d="M0 67.7 L19.84 67.7" class="st2"/>
				</g>
			</g>
			<g id="group26-65" v:mID="26" v:groupContext="group">
				<title>Inklemming.26</title>
				<g id="shape27-66" v:mID="27" v:groupContext="shape" transform="translate(79.0372,39.3522) rotate(90)">
					<title>Blad.27</title>
					<path d="M0 67.7 L28.35 67.7" class="st1"/>
				</g>
				<g id="shape28-69" v:mID="28" v:groupContext="shape" transform="translate(56.3741,-8.51798) rotate(45)">
					<title>Blad.28</title>
					<path d="M0 67.7 L4.01 67.7" class="st2"/>
				</g>
				<g id="shape29-72" v:mID="29" v:groupContext="shape" transform="translate(53.5395,-8.51798) rotate(45)">
					<title>Blad.29</title>
					<path d="M0 67.7 L8.02 67.7" class="st2"/>
				</g>
				<g id="shape30-75" v:mID="30" v:groupContext="shape" transform="translate(50.7048,-8.51798) rotate(45)">
					<title>Blad.30</title>
					<path d="M0 67.7 L12.03 67.7" class="st2"/>
				</g>
				<g id="shape31-78" v:mID="31" v:groupContext="shape" transform="translate(47.8702,-8.51798) rotate(45)">
					<title>Blad.31</title>
					<path d="M0 67.7 L16.04 67.7" class="st2"/>
				</g>
				<g id="shape32-81" v:mID="32" v:groupContext="shape" transform="translate(47.8702,-5.68334) rotate(45)">
					<title>Blad.32</title>
					<path d="M0 67.7 L16.04 67.7" class="st2"/>
				</g>
				<g id="shape33-84" v:mID="33" v:groupContext="shape" transform="translate(47.8702,-2.84869) rotate(45)">
					<title>Blad.33</title>
					<path d="M0 67.7 L16.04 67.7" class="st2"/>
				</g>
				<g id="shape34-87" v:mID="34" v:groupContext="shape" transform="translate(47.8702,-0.0140479) rotate(45)">
					<title>Blad.34</title>
					<path d="M0 67.7 L16.04 67.7" class="st2"/>
				</g>
				<g id="shape35-90" v:mID="35" v:groupContext="shape" transform="translate(47.8702,2.8206) rotate(45)">
					<title>Blad.35</title>
					<path d="M0 67.7 L16.04 67.7" class="st2"/>
				</g>
				<g id="shape36-93" v:mID="36" v:groupContext="shape" transform="translate(47.8702,5.65524) rotate(45)">
					<title>Blad.36</title>
					<path d="M0 67.7 L16.04 67.7" class="st2"/>
				</g>
				<g id="shape37-96" v:mID="37" v:groupContext="shape" transform="translate(47.8702,8.48989) rotate(45)">
					<title>Blad.37</title>
					<path d="M0 67.7 L16.04 67.7" class="st2"/>
				</g>
				<g id="shape38-99" v:mID="38" v:groupContext="shape" transform="translate(47.8702,11.3245) rotate(45)">
					<title>Blad.38</title>
					<path d="M0 67.7 L12.03 67.7" class="st2"/>
				</g>
				<g id="shape39-102" v:mID="39" v:groupContext="shape" transform="translate(47.8702,14.1592) rotate(45)">
					<title>Blad.39</title>
					<path d="M0 67.7 L8.02 67.7" class="st2"/>
				</g>
				<g id="shape40-105" v:mID="40" v:groupContext="shape" transform="translate(47.8702,16.9938) rotate(45)">
					<title>Blad.40</title>
					<path d="M0 67.7 L4.01 67.7" class="st2"/>
				</g>
			</g>
		</g>
		<g id="group68-108" transform="translate(21.6348,-41.3293)" v:mID="68" v:groupContext="group">
			<title>Blad.68</title>
			<g id="group1-109" transform="translate(4.25197,-11.3386)" v:mID="1" v:groupContext="group">
				<title>Scharnieroplegging</title>
				<g id="shape2-110" v:mID="2" v:groupContext="shape" transform="translate(2.83465,0)">
					<title>Blad.2</title>
					<path d="M0 67.7 L14.17 67.7 L7.09 56.36 L0 67.7 Z" class="st4"/>
				</g>
				<g id="shape3-112" v:mID="3" v:groupContext="shape" transform="translate(2.83465,135.397) rotate(180)">
					<title>Blad.3</title>
					<path d="M0 67.7 L2.83 67.7" class="st2"/>
				</g>
				<g id="shape4-115" v:mID="4" v:groupContext="shape" transform="translate(17.0079,-1.42109E-14)">
					<title>Blad.4</title>
					<path d="M0 67.7 L2.83 67.7" class="st2"/>
				</g>
			</g>
			<g id="group11-118" transform="translate(-39.3522,67.6986) rotate(-90)" v:mID="11" v:groupContext="group">
				<title>Inklemming</title>
				<g id="shape12-119" v:mID="12" v:groupContext="shape" transform="translate(79.0372,39.3522) rotate(90)">
					<title>Blad.12</title>
					<path d="M0 67.7 L28.35 67.7" class="st1"/>
				</g>
				<g id="shape13-122" v:mID="13" v:groupContext="shape" transform="translate(56.3741,-8.51798) rotate(45)">
					<title>Blad.13</title>
					<path d="M0 67.7 L4.01 67.7" class="st2"/>
				</g>
				<g id="shape14-125" v:mID="14" v:groupContext="shape" transform="translate(53.5395,-8.51798) rotate(45)">
					<title>Blad.14</title>
					<path d="M0 67.7 L8.02 67.7" class="st2"/>
				</g>
				<g id="shape15-128" v:mID="15" v:groupContext="shape" transform="translate(50.7048,-8.51798) rotate(45)">
					<title>Blad.15</title>
					<path d="M0 67.7 L12.03 67.7" class="st2"/>
				</g>
				<g id="shape16-131" v:mID="16" v:groupContext="shape" transform="translate(47.8702,-8.51798) rotate(45)">
					<title>Blad.16</title>
					<path d="M0 67.7 L16.04 67.7" class="st2"/>
				</g>
				<g id="shape17-134" v:mID="17" v:groupContext="shape" transform="translate(47.8702,-5.68334) rotate(45)">
					<title>Blad.17</title>
					<path d="M0 67.7 L16.04 67.7" class="st2"/>
				</g>
				<g id="shape18-137" v:mID="18" v:groupContext="shape" transform="translate(47.8702,-2.84869) rotate(45)">
					<title>Blad.18</title>
					<path d="M0 67.7 L16.04 67.7" class="st2"/>
				</g>
				<g id="shape19-140" v:mID="19" v:groupContext="shape" transform="translate(47.8702,-0.0140479) rotate(45)">
					<title>Blad.19</title>
					<path d="M0 67.7 L16.04 67.7" class="st2"/>
				</g>
				<g id="shape20-143" v:mID="20" v:groupContext="shape" transform="translate(47.8702,2.8206) rotate(45)">
					<title>Blad.20</title>
					<path d="M0 67.7 L16.04 67.7" class="st2"/>
				</g>
				<g id="shape21-146" v:mID="21" v:groupContext="shape" transform="translate(47.8702,5.65524) rotate(45)">
					<title>Blad.21</title>
					<path d="M0 67.7 L16.04 67.7" class="st2"/>
				</g>
				<g id="shape22-149" v:mID="22" v:groupContext="shape" transform="translate(47.8702,8.48989) rotate(45)">
					<title>Blad.22</title>
					<path d="M0 67.7 L16.04 67.7" class="st2"/>
				</g>
				<g id="shape23-152" v:mID="23" v:groupContext="shape" transform="translate(47.8702,11.3245) rotate(45)">
					<title>Blad.23</title>
					<path d="M0 67.7 L12.03 67.7" class="st2"/>
				</g>
				<g id="shape24-155" v:mID="24" v:groupContext="shape" transform="translate(47.8702,14.1592) rotate(45)">
					<title>Blad.24</title>
					<path d="M0 67.7 L8.02 67.7" class="st2"/>
				</g>
				<g id="shape25-158" v:mID="25" v:groupContext="shape" transform="translate(47.8702,16.9938) rotate(45)">
					<title>Blad.25</title>
					<path d="M0 67.7 L4.01 67.7" class="st2"/>
				</g>
			</g>
		</g>
		<g id="shape69-161" v:mID="69" v:groupContext="shape" transform="translate(0.375,-7.31356)">
			<title>Blad.69</title>
			<desc>Horizontal support</desc>
			<v:textBlock v:margins="rect(4,4,4,4)" v:tabSpace="42.5197"/>
			<v:textRect cx="35.4331" cy="60.612" width="70.87" height="14.1732"/>
			<rect x="0" y="53.5254" width="70.8661" height="14.1732" class="st5"/>
			<text x="9.77" y="57.01" class="st6" v:langID="1043"><v:paragraph v:horizAlign="1"/><v:tabList/>Horizontal <tspan
						x="17.43" dy="1.2em" class="st7">support</tspan></text>		</g>
		<g id="shape70-165" v:mID="70" v:groupContext="shape" transform="translate(71.2411,-7.31356)">
			<title>Blad.70</title>
			<desc>Vertical support</desc>
			<v:textBlock v:margins="rect(4,4,4,4)" v:tabSpace="42.5197"/>
			<v:textRect cx="35.4331" cy="60.612" width="70.87" height="14.1732"/>
			<rect x="0" y="53.5254" width="70.8661" height="14.1732" class="st5"/>
			<text x="16.11" y="57.01" class="st6" v:langID="1043"><v:paragraph v:horizAlign="1"/><v:tabList/>Vertical <tspan
						x="17.43" dy="1.2em" class="st7">support</tspan></text>		</g>
		<g id="shape71-169" v:mID="71" v:groupContext="shape" transform="translate(142.107,-7.31356)">
			<title>Blad.71</title>
			<desc>Sloped support</desc>
			<v:textBlock v:margins="rect(4,4,4,4)" v:tabSpace="42.5197"/>
			<v:textRect cx="35.4331" cy="60.612" width="70.87" height="14.1732"/>
			<rect x="0" y="53.5254" width="70.8661" height="14.1732" class="st5"/>
			<text x="18.77" y="57.01" class="st6" v:langID="1043"><v:paragraph v:horizAlign="1"/><v:tabList/>Sloped <tspan
						x="17.43" dy="1.2em" class="st7">support</tspan></text>		</g>
	</g>
</svg>
