<?xml version="1.0" encoding="UTF-8" standalone="no"?>
<!DOCTYPE svg PUBLIC "-//W3C//DTD SVG 1.1//EN" "http://www.w3.org/Graphics/SVG/1.1/DTD/svg11.dtd">
<!-- Gegenereerd door Microsoft Visio, SVG Export frametruss.svg Pagina-1 -->
<svg xmlns="http://www.w3.org/2000/svg" xmlns:xlink="http://www.w3.org/1999/xlink" xmlns:ev="http://www.w3.org/2001/xml-events"
		xmlns:v="http://schemas.microsoft.com/visio/2003/SVGExtensions/" width="4.6789in" height="2.9238in"
		viewBox="0 0 336.881 210.514" xml:space="preserve" color-interpolation-filters="sRGB" class="st8">
	<v:documentProperties v:langID="1043" v:metric="true" v:viewMarkup="false"/>

	<style type="text/css">
	<![CDATA[
		.st1 {stroke:#000000;stroke-linecap:round;stroke-linejoin:round;stroke-width:1.2}
		.st2 {stroke:#000000;stroke-linecap:round;stroke-linejoin:round;stroke-width:0.75}
		.st3 {fill:#00cc99;stroke:#000000;stroke-linecap:round;stroke-linejoin:round;stroke-width:0.75}
		.st4 {stroke:#000000;stroke-linecap:round;stroke-linejoin:round;stroke-width:2}
		.st5 {fill:#ffffff;stroke:#000000;stroke-linecap:round;stroke-linejoin:round;stroke-width:0.75}
		.st6 {fill:none;stroke:none;stroke-linecap:round;stroke-linejoin:round;stroke-width:0.75}
		.st7 {fill:#000000;font-family:Times New Roman;font-size:1.00001em}
		.st8 {fill:none;fill-rule:evenodd;font-size:12px;overflow:visible;stroke-linecap:square;stroke-miterlimit:3}
	]]>
	</style>

	<g v:mID="0" v:index="1" v:groupContext="foregroundPage">
		<title>Pagina-1</title>
		<v:pageProperties v:drawingScale="0.0393701" v:pageScale="0.0393701" v:drawingUnits="24" v:shadowOffsetX="8.50394"
				v:shadowOffsetY="-8.50394"/>
		<g id="group1-1" transform="translate(-181.567,210.139) rotate(-90)" v:mID="1" v:groupContext="group">
			<title>Inklemming</title>
			<g id="shape2-2" v:mID="2" v:groupContext="shape" transform="translate(221.852,182.167) rotate(90)">
				<title>Blad.2</title>
				<path d="M0 210.51 L28.35 210.51" class="st1"/>
			</g>
			<g id="shape3-5" v:mID="3" v:groupContext="shape" transform="translate(157.36,33.3116) rotate(45)">
				<title>Blad.3</title>
				<path d="M0 210.51 L4.01 210.51" class="st2"/>
			</g>
			<g id="shape4-8" v:mID="4" v:groupContext="shape" transform="translate(154.525,33.3116) rotate(45)">
				<title>Blad.4</title>
				<path d="M0 210.51 L8.02 210.51" class="st2"/>
			</g>
			<g id="shape5-11" v:mID="5" v:groupContext="shape" transform="translate(151.69,33.3116) rotate(45)">
				<title>Blad.5</title>
				<path d="M0 210.51 L12.03 210.51" class="st2"/>
			</g>
			<g id="shape6-14" v:mID="6" v:groupContext="shape" transform="translate(148.856,33.3116) rotate(45)">
				<title>Blad.6</title>
				<path d="M0 210.51 L16.04 210.51" class="st2"/>
			</g>
			<g id="shape7-17" v:mID="7" v:groupContext="shape" transform="translate(148.856,36.1463) rotate(45)">
				<title>Blad.7</title>
				<path d="M0 210.51 L16.04 210.51" class="st2"/>
			</g>
			<g id="shape8-20" v:mID="8" v:groupContext="shape" transform="translate(148.856,38.9809) rotate(45)">
				<title>Blad.8</title>
				<path d="M0 210.51 L16.04 210.51" class="st2"/>
			</g>
			<g id="shape9-23" v:mID="9" v:groupContext="shape" transform="translate(148.856,41.8155) rotate(45)">
				<title>Blad.9</title>
				<path d="M0 210.51 L16.04 210.51" class="st2"/>
			</g>
			<g id="shape10-26" v:mID="10" v:groupContext="shape" transform="translate(148.856,44.6502) rotate(45)">
				<title>Blad.10</title>
				<path d="M0 210.51 L16.04 210.51" class="st2"/>
			</g>
			<g id="shape11-29" v:mID="11" v:groupContext="shape" transform="translate(148.856,47.4848) rotate(45)">
				<title>Blad.11</title>
				<path d="M0 210.51 L16.04 210.51" class="st2"/>
			</g>
			<g id="shape12-32" v:mID="12" v:groupContext="shape" transform="translate(148.856,50.3195) rotate(45)">
				<title>Blad.12</title>
				<path d="M0 210.51 L16.04 210.51" class="st2"/>
			</g>
			<g id="shape13-35" v:mID="13" v:groupContext="shape" transform="translate(148.856,53.1541) rotate(45)">
				<title>Blad.13</title>
				<path d="M0 210.51 L12.03 210.51" class="st2"/>
			</g>
			<g id="shape14-38" v:mID="14" v:groupContext="shape" transform="translate(148.856,55.9888) rotate(45)">
				<title>Blad.14</title>
				<path d="M0 210.51 L8.02 210.51" class="st2"/>
			</g>
			<g id="shape15-41" v:mID="15" v:groupContext="shape" transform="translate(148.856,58.8234) rotate(45)">
				<title>Blad.15</title>
				<path d="M0 210.51 L4.01 210.51" class="st2"/>
			</g>
		</g>
		<g id="group16-44" transform="translate(89.8914,-0.375)" v:mID="16" v:groupContext="group">
			<title>Scharnieroplegging</title>
			<g id="shape17-45" v:mID="17" v:groupContext="shape" transform="translate(2.83465,0)">
				<title>Blad.17</title>
				<path d="M0 210.51 L14.17 210.51 L7.09 199.18 L0 210.51 Z" class="st3"/>
			</g>
			<g id="shape18-47" v:mID="18" v:groupContext="shape" transform="translate(2.83465,421.028) rotate(180)">
				<title>Blad.18</title>
				<path d="M0 210.51 L2.83 210.51" class="st2"/>
			</g>
			<g id="shape19-50" v:mID="19" v:groupContext="shape" transform="translate(17.0079,0)">
				<title>Blad.19</title>
				<path d="M0 210.51 L2.83 210.51" class="st2"/>
			</g>
		</g>
		<g id="shape20-53" v:mID="20" v:groupContext="shape" transform="translate(-195.741,198.8) rotate(-90)">
			<title>Ligger, 2 pt</title>
			<path d="M0 210.51 L85.04 210.51" class="st4"/>
		</g>
		<g id="shape21-56" v:mID="21" v:groupContext="shape" transform="translate(-110.701,198.8) rotate(-90)">
			<title>Ligger, 2 pt.21</title>
			<path d="M0 210.51 L85.04 210.51" class="st4"/>
		</g>
		<g id="shape22-59" v:mID="22" v:groupContext="shape" transform="translate(-195.741,113.761) rotate(-90)">
			<title>Ligger, 2 pt.22</title>
			<path d="M0 210.51 L85.04 210.51" class="st4"/>
		</g>
		<g id="shape23-62" v:mID="23" v:groupContext="shape" transform="translate(-110.701,113.761) rotate(-90)">
			<title>Ligger, 2 pt.23</title>
			<path d="M0 210.51 L85.04 210.51" class="st4"/>
		</g>
		<g id="shape24-65" v:mID="24" v:groupContext="shape" transform="translate(99.8126,239.235) rotate(180)">
			<title>Ligger, 2 pt.24</title>
			<path d="M0 210.51 L85.04 210.51" class="st4"/>
		</g>
		<g id="shape25-68" v:mID="25" v:groupContext="shape" transform="translate(99.8126,324.275) rotate(180)">
			<title>Ligger, 2 pt.25</title>
			<path d="M0 210.51 L85.04 210.51" class="st4"/>
		</g>
		<g id="group26-71" transform="translate(316.663,-40.0601)" v:mID="26" v:groupContext="group">
			<title>Rol</title>
			<g id="group27-72" transform="translate(0.261477,-2.83465)" v:mID="27" v:groupContext="group">
				<title>Scharnier</title>
				<g id="shape28-73" v:mID="28" v:groupContext="shape" transform="translate(2.79729,0)">
					<title>Blad.28</title>
					<path d="M0 210.51 L13.99 210.51 L6.99 199.18 L0 210.51 Z" class="st3"/>
				</g>
				<g id="shape29-75" v:mID="29" v:groupContext="shape" transform="translate(2.79729,421.028) rotate(180)">
					<title>Blad.29</title>
					<path d="M0 210.51 L2.8 210.51" class="st2"/>
				</g>
				<g id="shape30-78" v:mID="30" v:groupContext="shape" transform="translate(16.7838,0)">
					<title>Blad.30</title>
					<path d="M0 210.51 L2.8 210.51" class="st2"/>
				</g>
			</g>
			<g id="shape31-81" v:mID="31" v:groupContext="shape">
				<title>Blad.31</title>
				<path d="M0 210.51 L19.84 210.51" class="st2"/>
			</g>
		</g>
		<g id="group32-84" transform="translate(146.584,-42.8947)" v:mID="32" v:groupContext="group">
			<title>Scharnieroplegging.32</title>
			<g id="shape33-85" v:mID="33" v:groupContext="shape" transform="translate(2.83465,0)">
				<title>Blad.33</title>
				<path d="M0 210.51 L14.17 210.51 L7.09 199.18 L0 210.51 Z" class="st3"/>
			</g>
			<g id="shape34-87" v:mID="34" v:groupContext="shape" transform="translate(2.83465,421.028) rotate(180)">
				<title>Blad.34</title>
				<path d="M0 210.51 L2.83 210.51" class="st2"/>
			</g>
			<g id="shape35-90" v:mID="35" v:groupContext="shape" transform="translate(17.0079,0)">
				<title>Blad.35</title>
				<path d="M0 210.51 L2.83 210.51" class="st2"/>
			</g>
		</g>
		<g id="shape36-93" v:mID="36" v:groupContext="shape" transform="translate(156.506,-54.2333)">
			<title>Ligger, 2 pt.36</title>
			<path d="M0 210.51 L56.69 210.51" class="st4"/>
		</g>
		<g id="shape37-96" v:mID="37" v:groupContext="shape" transform="translate(213.198,-54.2333)">
			<title>Ligger, 2 pt.37</title>
			<path d="M0 210.51 L56.69 210.51" class="st4"/>
		</g>
		<g id="shape38-99" v:mID="38" v:groupContext="shape" transform="translate(269.891,-54.2333)">
			<title>Ligger, 2 pt.38</title>
			<path d="M0 210.51 L56.69 210.51" class="st4"/>
		</g>
		<g id="shape39-102" v:mID="39" v:groupContext="shape" transform="translate(241.545,-110.926)">
			<title>Ligger, 2 pt.39</title>
			<path d="M0 210.51 L56.69 210.51" class="st4"/>
		</g>
		<g id="shape40-105" v:mID="40" v:groupContext="shape" transform="translate(184.852,-110.926)">
			<title>Ligger, 2 pt.40</title>
			<path d="M0 210.51 L56.69 210.51" class="st4"/>
		</g>
		<g id="shape41-108" v:mID="41" v:groupContext="shape" transform="translate(-31.7838,62.1359) rotate(-63.4349)">
			<title>Ligger, 2 pt.41</title>
			<path d="M0 210.51 L63.38 210.51" class="st4"/>
		</g>
		<g id="shape42-111" v:mID="42" v:groupContext="shape" transform="translate(24.9092,62.1359) rotate(-63.4349)">
			<title>Ligger, 2 pt.42</title>
			<path d="M0 210.51 L63.38 210.51" class="st4"/>
		</g>
		<g id="shape43-114" v:mID="43" v:groupContext="shape" transform="translate(81.6021,62.1359) rotate(-63.4349)">
			<title>Ligger, 2 pt.43</title>
			<path d="M0 210.51 L63.38 210.51" class="st4"/>
		</g>
		<g id="shape44-117" v:mID="44" v:groupContext="shape" transform="translate(138.295,250.425) rotate(-116.565)">
			<title>Ligger, 2 pt.44</title>
			<path d="M0 210.51 L63.38 210.51" class="st4"/>
		</g>
		<g id="shape45-120" v:mID="45" v:groupContext="shape" transform="translate(81.6021,250.425) rotate(-116.565)">
			<title>Ligger, 2 pt.45</title>
			<path d="M0 210.51 L63.38 210.51" class="st4"/>
		</g>
		<g id="shape46-123" v:mID="46" v:groupContext="shape" transform="translate(24.9092,250.425) rotate(-116.565)">
			<title>Ligger, 2 pt.46</title>
			<path d="M0 210.51 L63.38 210.51" class="st4"/>
		</g>
		<g id="shape47-126" v:mID="47" v:groupContext="shape" transform="translate(182.726,-108.8)">
			<title>Scharnier</title>
			<ellipse cx="2.12598" cy="208.388" rx="2.12598" ry="2.12598" class="st5"/>
		</g>
		<g id="shape48-128" v:mID="48" v:groupContext="shape" transform="translate(239.419,-108.8)">
			<title>Scharnier.48</title>
			<ellipse cx="2.12598" cy="208.388" rx="2.12598" ry="2.12598" class="st5"/>
		</g>
		<g id="shape49-130" v:mID="49" v:groupContext="shape" transform="translate(296.112,-108.8)">
			<title>Scharnier.49</title>
			<ellipse cx="2.12598" cy="208.388" rx="2.12598" ry="2.12598" class="st5"/>
		</g>
		<g id="shape50-132" v:mID="50" v:groupContext="shape" transform="translate(324.458,-52.1073)">
			<title>Scharnier.50</title>
			<ellipse cx="2.12598" cy="208.388" rx="2.12598" ry="2.12598" class="st5"/>
		</g>
		<g id="shape51-134" v:mID="51" v:groupContext="shape" transform="translate(267.765,-52.1073)">
			<title>Scharnier.51</title>
			<ellipse cx="2.12598" cy="208.388" rx="2.12598" ry="2.12598" class="st5"/>
		</g>
		<g id="shape52-136" v:mID="52" v:groupContext="shape" transform="translate(211.072,-52.1073)">
			<title>Scharnier.52</title>
			<ellipse cx="2.12598" cy="208.388" rx="2.12598" ry="2.12598" class="st5"/>
		</g>
		<g id="shape53-138" v:mID="53" v:groupContext="shape" transform="translate(154.38,-52.1073)">
			<title>Scharnier.53</title>
			<ellipse cx="2.12598" cy="208.388" rx="2.12598" ry="2.12598" class="st5"/>
		</g>
		<g id="shape54-140" v:mID="54" v:groupContext="shape" transform="translate(14.7732,-195.966)">
			<title>Blad.54</title>
			<desc>Frame</desc>
			<v:textBlock v:margins="rect(4,4,4,4)" v:tabSpace="42.5197"/>
			<v:textRect cx="42.5197" cy="203.427" width="85.04" height="14.1732"/>
			<rect x="0" y="196.341" width="85.0394" height="14.1732" class="st6"/>
			<text x="27.19" y="207.03" class="st7" v:langID="1043"><v:paragraph v:horizAlign="1"/><v:tabList/>Frame</text>		</g>
		<g id="shape55-143" v:mID="55" v:groupContext="shape" transform="translate(156.506,-195.966)">
			<title>Blad.55</title>
			<desc>Truss</desc>
			<v:textBlock v:margins="rect(4,4,4,4)" v:tabSpace="42.5197"/>
			<v:textRect cx="85.0394" cy="203.427" width="170.08" height="14.1732"/>
			<rect x="0" y="196.341" width="170.079" height="14.1732" class="st6"/>
			<text x="71.71" y="207.03" class="st7" v:langID="1043"><v:paragraph v:horizAlign="1"/><v:tabList/>Truss</text>		</g>
	</g>
</svg>
