<?xml version="1.0" encoding="UTF-8" standalone="no"?>
<!DOCTYPE svg PUBLIC "-//W3C//DTD SVG 1.1//EN" "http://www.w3.org/Graphics/SVG/1.1/DTD/svg11.dtd">
<!-- Gegenereerd door Microsoft Visio, SVG Export Mline.svg Pagina-1 -->
<svg xmlns="http://www.w3.org/2000/svg" xmlns:xlink="http://www.w3.org/1999/xlink" xmlns:ev="http://www.w3.org/2001/xml-events"
		xmlns:v="http://schemas.microsoft.com/visio/2003/SVGExtensions/" width="3.04018in" height="2.36915in"
		viewBox="0 0 218.893 170.579" xml:space="preserve" color-interpolation-filters="sRGB" class="st10">
	<v:documentProperties v:langID="1043" v:metric="true" v:viewMarkup="false"/>

	<style type="text/css">
	<![CDATA[
		.st1 {fill:none;stroke:#bfbfbf;stroke-linecap:round;stroke-linejoin:round;stroke-width:0.5}
		.st2 {stroke:#000000;stroke-linecap:round;stroke-linejoin:round;stroke-width:0.75}
		.st3 {stroke:#000000;stroke-linecap:round;stroke-linejoin:round;stroke-width:2.25}
		.st4 {fill:none;stroke:none;stroke-linecap:round;stroke-linejoin:round;stroke-width:0.75}
		.st5 {fill:#000000;font-family:Times New Roman;font-size:1.00001em}
		.st6 {stroke:#000000;stroke-linecap:round;stroke-linejoin:round;stroke-width:1.25}
		.st7 {stroke:#000000;stroke-linecap:round;stroke-linejoin:round;stroke-width:0.25}
		.st8 {marker-end:url(#mrkr4-438);marker-start:url(#mrkr4-436);stroke:#000000;stroke-linecap:round;stroke-linejoin:round;stroke-width:0.25}
		.st9 {fill:#000000;fill-opacity:1;stroke:#000000;stroke-opacity:1;stroke-width:0.1219512195122}
		.st10 {fill:none;fill-rule:evenodd;font-size:12px;overflow:visible;stroke-linecap:square;stroke-miterlimit:3}
	]]>
	</style>

	<defs id="Markers">
		<g id="lend4">
			<path d="M 2 1 L 0 0 L 2 -1 L 2 1 " style="stroke:none"/>
		</g>
		<marker id="mrkr4-436" class="st9" v:arrowType="4" v:arrowSize="1" v:setback="14.96" refX="14.96" orient="auto"
				markerUnits="strokeWidth" overflow="visible">
			<use xlink:href="#lend4" transform="scale(8.2) "/>
		</marker>
		<marker id="mrkr4-438" class="st9" v:arrowType="4" v:arrowSize="1" v:setback="16.4" refX="-16.4" orient="auto"
				markerUnits="strokeWidth" overflow="visible">
			<use xlink:href="#lend4" transform="scale(-8.2,-8.2) "/>
		</marker>
	</defs>
	<g v:mID="0" v:index="1" v:groupContext="foregroundPage">
		<title>Pagina-1</title>
		<v:pageProperties v:drawingScale="0.0393701" v:pageScale="0.0393701" v:drawingUnits="24" v:shadowOffsetX="8.50394"
				v:shadowOffsetY="-8.50394"/>
		<g id="group1806-1" transform="translate(0.25,-0.25)" v:mID="1806" v:groupContext="group">
			<title>Blad.1806</title>
			<g id="shape1161-2" v:mID="1161" v:groupContext="shape" transform="translate(141.732,-42.5197)">
				<title>Blad.1161</title>
				<rect x="0" y="156.406" width="14.1732" height="14.1732" class="st1"/>
			</g>
			<g id="shape1162-4" v:mID="1162" v:groupContext="shape" transform="translate(141.732,-56.6929)">
				<title>Blad.1162</title>
				<rect x="0" y="156.406" width="14.1732" height="14.1732" class="st1"/>
			</g>
			<g id="shape1163-6" v:mID="1163" v:groupContext="shape" transform="translate(155.906,-42.5197)">
				<title>Blad.1163</title>
				<rect x="0" y="156.406" width="14.1732" height="14.1732" class="st1"/>
			</g>
			<g id="shape1164-8" v:mID="1164" v:groupContext="shape" transform="translate(155.906,-56.6929)">
				<title>Blad.1164</title>
				<rect x="0" y="156.406" width="14.1732" height="14.1732" class="st1"/>
			</g>
			<g id="shape1165-10" v:mID="1165" v:groupContext="shape" transform="translate(170.079,-42.5197)">
				<title>Blad.1165</title>
				<rect x="0" y="156.406" width="14.1732" height="14.1732" class="st1"/>
			</g>
			<g id="shape1166-12" v:mID="1166" v:groupContext="shape" transform="translate(170.079,-56.6929)">
				<title>Blad.1166</title>
				<rect x="0" y="156.406" width="14.1732" height="14.1732" class="st1"/>
			</g>
			<g id="shape1167-14" v:mID="1167" v:groupContext="shape" transform="translate(184.252,-42.5197)">
				<title>Blad.1167</title>
				<rect x="0" y="156.406" width="14.1732" height="14.1732" class="st1"/>
			</g>
			<g id="shape1168-16" v:mID="1168" v:groupContext="shape" transform="translate(184.252,-56.6929)">
				<title>Blad.1168</title>
				<rect x="0" y="156.406" width="14.1732" height="14.1732" class="st1"/>
			</g>
			<g id="shape1169-18" v:mID="1169" v:groupContext="shape" transform="translate(141.732,-14.1732)">
				<title>Blad.1169</title>
				<rect x="0" y="156.406" width="14.1732" height="14.1732" class="st1"/>
			</g>
			<g id="shape1170-20" v:mID="1170" v:groupContext="shape" transform="translate(141.732,-28.3465)">
				<title>Blad.1170</title>
				<rect x="0" y="156.406" width="14.1732" height="14.1732" class="st1"/>
			</g>
			<g id="shape1171-22" v:mID="1171" v:groupContext="shape" transform="translate(155.906,-14.1732)">
				<title>Blad.1171</title>
				<rect x="0" y="156.406" width="14.1732" height="14.1732" class="st1"/>
			</g>
			<g id="shape1172-24" v:mID="1172" v:groupContext="shape" transform="translate(155.906,-28.3465)">
				<title>Blad.1172</title>
				<rect x="0" y="156.406" width="14.1732" height="14.1732" class="st1"/>
			</g>
			<g id="shape1173-26" v:mID="1173" v:groupContext="shape" transform="translate(170.079,-14.1732)">
				<title>Blad.1173</title>
				<rect x="0" y="156.406" width="14.1732" height="14.1732" class="st1"/>
			</g>
			<g id="shape1174-28" v:mID="1174" v:groupContext="shape" transform="translate(170.079,-28.3465)">
				<title>Blad.1174</title>
				<rect x="0" y="156.406" width="14.1732" height="14.1732" class="st1"/>
			</g>
			<g id="shape1175-30" v:mID="1175" v:groupContext="shape" transform="translate(184.252,-14.1732)">
				<title>Blad.1175</title>
				<rect x="0" y="156.406" width="14.1732" height="14.1732" class="st1"/>
			</g>
			<g id="shape1176-32" v:mID="1176" v:groupContext="shape" transform="translate(184.252,-28.3465)">
				<title>Blad.1176</title>
				<rect x="0" y="156.406" width="14.1732" height="14.1732" class="st1"/>
			</g>
			<g id="shape1177-34" v:mID="1177" v:groupContext="shape" transform="translate(198.425,-42.5197)">
				<title>Blad.1177</title>
				<rect x="0" y="156.406" width="14.1732" height="14.1732" class="st1"/>
			</g>
			<g id="shape1178-36" v:mID="1178" v:groupContext="shape" transform="translate(198.425,-56.6929)">
				<title>Blad.1178</title>
				<rect x="0" y="156.406" width="14.1732" height="14.1732" class="st1"/>
			</g>
			<g id="shape1185-38" v:mID="1185" v:groupContext="shape" transform="translate(198.425,-14.1732)">
				<title>Blad.1185</title>
				<rect x="0" y="156.406" width="14.1732" height="14.1732" class="st1"/>
			</g>
			<g id="shape1186-40" v:mID="1186" v:groupContext="shape" transform="translate(198.425,-28.3465)">
				<title>Blad.1186</title>
				<rect x="0" y="156.406" width="14.1732" height="14.1732" class="st1"/>
			</g>
			<g id="shape1225-42" v:mID="1225" v:groupContext="shape" transform="translate(141.732,-99.2126)">
				<title>Blad.1225</title>
				<rect x="0" y="156.406" width="14.1732" height="14.1732" class="st1"/>
			</g>
			<g id="shape1226-44" v:mID="1226" v:groupContext="shape" transform="translate(141.732,-113.386)">
				<title>Blad.1226</title>
				<rect x="0" y="156.406" width="14.1732" height="14.1732" class="st1"/>
			</g>
			<g id="shape1227-46" v:mID="1227" v:groupContext="shape" transform="translate(155.906,-99.2126)">
				<title>Blad.1227</title>
				<rect x="0" y="156.406" width="14.1732" height="14.1732" class="st1"/>
			</g>
			<g id="shape1228-48" v:mID="1228" v:groupContext="shape" transform="translate(155.906,-113.386)">
				<title>Blad.1228</title>
				<rect x="0" y="156.406" width="14.1732" height="14.1732" class="st1"/>
			</g>
			<g id="shape1229-50" v:mID="1229" v:groupContext="shape" transform="translate(170.079,-99.2126)">
				<title>Blad.1229</title>
				<rect x="0" y="156.406" width="14.1732" height="14.1732" class="st1"/>
			</g>
			<g id="shape1230-52" v:mID="1230" v:groupContext="shape" transform="translate(170.079,-113.386)">
				<title>Blad.1230</title>
				<rect x="0" y="156.406" width="14.1732" height="14.1732" class="st1"/>
			</g>
			<g id="shape1231-54" v:mID="1231" v:groupContext="shape" transform="translate(184.252,-99.2126)">
				<title>Blad.1231</title>
				<rect x="0" y="156.406" width="14.1732" height="14.1732" class="st1"/>
			</g>
			<g id="shape1232-56" v:mID="1232" v:groupContext="shape" transform="translate(184.252,-113.386)">
				<title>Blad.1232</title>
				<rect x="0" y="156.406" width="14.1732" height="14.1732" class="st1"/>
			</g>
			<g id="shape1233-58" v:mID="1233" v:groupContext="shape" transform="translate(141.732,-70.8661)">
				<title>Blad.1233</title>
				<rect x="0" y="156.406" width="14.1732" height="14.1732" class="st1"/>
			</g>
			<g id="shape1234-60" v:mID="1234" v:groupContext="shape" transform="translate(141.732,-85.0394)">
				<title>Blad.1234</title>
				<rect x="0" y="156.406" width="14.1732" height="14.1732" class="st1"/>
			</g>
			<g id="shape1235-62" v:mID="1235" v:groupContext="shape" transform="translate(155.906,-70.8661)">
				<title>Blad.1235</title>
				<rect x="0" y="156.406" width="14.1732" height="14.1732" class="st1"/>
			</g>
			<g id="shape1236-64" v:mID="1236" v:groupContext="shape" transform="translate(155.906,-85.0394)">
				<title>Blad.1236</title>
				<rect x="0" y="156.406" width="14.1732" height="14.1732" class="st1"/>
			</g>
			<g id="shape1237-66" v:mID="1237" v:groupContext="shape" transform="translate(170.079,-70.8661)">
				<title>Blad.1237</title>
				<rect x="0" y="156.406" width="14.1732" height="14.1732" class="st1"/>
			</g>
			<g id="shape1238-68" v:mID="1238" v:groupContext="shape" transform="translate(170.079,-85.0394)">
				<title>Blad.1238</title>
				<rect x="0" y="156.406" width="14.1732" height="14.1732" class="st1"/>
			</g>
			<g id="shape1239-70" v:mID="1239" v:groupContext="shape" transform="translate(184.252,-70.8661)">
				<title>Blad.1239</title>
				<rect x="0" y="156.406" width="14.1732" height="14.1732" class="st1"/>
			</g>
			<g id="shape1240-72" v:mID="1240" v:groupContext="shape" transform="translate(184.252,-85.0394)">
				<title>Blad.1240</title>
				<rect x="0" y="156.406" width="14.1732" height="14.1732" class="st1"/>
			</g>
			<g id="shape1241-74" v:mID="1241" v:groupContext="shape" transform="translate(198.425,-99.2126)">
				<title>Blad.1241</title>
				<rect x="0" y="156.406" width="14.1732" height="14.1732" class="st1"/>
			</g>
			<g id="shape1242-76" v:mID="1242" v:groupContext="shape" transform="translate(198.425,-113.386)">
				<title>Blad.1242</title>
				<rect x="0" y="156.406" width="14.1732" height="14.1732" class="st1"/>
			</g>
			<g id="shape1249-78" v:mID="1249" v:groupContext="shape" transform="translate(198.425,-70.8661)">
				<title>Blad.1249</title>
				<rect x="0" y="156.406" width="14.1732" height="14.1732" class="st1"/>
			</g>
			<g id="shape1250-80" v:mID="1250" v:groupContext="shape" transform="translate(198.425,-85.0394)">
				<title>Blad.1250</title>
				<rect x="0" y="156.406" width="14.1732" height="14.1732" class="st1"/>
			</g>
			<g id="shape1289-82" v:mID="1289" v:groupContext="shape" transform="translate(85.0394,-42.5197)">
				<title>Blad.1289</title>
				<rect x="0" y="156.406" width="14.1732" height="14.1732" class="st1"/>
			</g>
			<g id="shape1290-84" v:mID="1290" v:groupContext="shape" transform="translate(85.0394,-56.6929)">
				<title>Blad.1290</title>
				<rect x="0" y="156.406" width="14.1732" height="14.1732" class="st1"/>
			</g>
			<g id="shape1291-86" v:mID="1291" v:groupContext="shape" transform="translate(99.2126,-42.5197)">
				<title>Blad.1291</title>
				<rect x="0" y="156.406" width="14.1732" height="14.1732" class="st1"/>
			</g>
			<g id="shape1292-88" v:mID="1292" v:groupContext="shape" transform="translate(99.2126,-56.6929)">
				<title>Blad.1292</title>
				<rect x="0" y="156.406" width="14.1732" height="14.1732" class="st1"/>
			</g>
			<g id="shape1293-90" v:mID="1293" v:groupContext="shape" transform="translate(113.386,-42.5197)">
				<title>Blad.1293</title>
				<rect x="0" y="156.406" width="14.1732" height="14.1732" class="st1"/>
			</g>
			<g id="shape1294-92" v:mID="1294" v:groupContext="shape" transform="translate(113.386,-56.6929)">
				<title>Blad.1294</title>
				<rect x="0" y="156.406" width="14.1732" height="14.1732" class="st1"/>
			</g>
			<g id="shape1295-94" v:mID="1295" v:groupContext="shape" transform="translate(127.559,-42.5197)">
				<title>Blad.1295</title>
				<rect x="0" y="156.406" width="14.1732" height="14.1732" class="st1"/>
			</g>
			<g id="shape1296-96" v:mID="1296" v:groupContext="shape" transform="translate(127.559,-56.6929)">
				<title>Blad.1296</title>
				<rect x="0" y="156.406" width="14.1732" height="14.1732" class="st1"/>
			</g>
			<g id="shape1297-98" v:mID="1297" v:groupContext="shape" transform="translate(85.0394,-14.1732)">
				<title>Blad.1297</title>
				<rect x="0" y="156.406" width="14.1732" height="14.1732" class="st1"/>
			</g>
			<g id="shape1298-100" v:mID="1298" v:groupContext="shape" transform="translate(85.0394,-28.3465)">
				<title>Blad.1298</title>
				<rect x="0" y="156.406" width="14.1732" height="14.1732" class="st1"/>
			</g>
			<g id="shape1299-102" v:mID="1299" v:groupContext="shape" transform="translate(99.2126,-14.1732)">
				<title>Blad.1299</title>
				<rect x="0" y="156.406" width="14.1732" height="14.1732" class="st1"/>
			</g>
			<g id="shape1300-104" v:mID="1300" v:groupContext="shape" transform="translate(99.2126,-28.3465)">
				<title>Blad.1300</title>
				<rect x="0" y="156.406" width="14.1732" height="14.1732" class="st1"/>
			</g>
			<g id="shape1301-106" v:mID="1301" v:groupContext="shape" transform="translate(113.386,-14.1732)">
				<title>Blad.1301</title>
				<rect x="0" y="156.406" width="14.1732" height="14.1732" class="st1"/>
			</g>
			<g id="shape1302-108" v:mID="1302" v:groupContext="shape" transform="translate(113.386,-28.3465)">
				<title>Blad.1302</title>
				<rect x="0" y="156.406" width="14.1732" height="14.1732" class="st1"/>
			</g>
			<g id="shape1303-110" v:mID="1303" v:groupContext="shape" transform="translate(127.559,-14.1732)">
				<title>Blad.1303</title>
				<rect x="0" y="156.406" width="14.1732" height="14.1732" class="st1"/>
			</g>
			<g id="shape1304-112" v:mID="1304" v:groupContext="shape" transform="translate(127.559,-28.3465)">
				<title>Blad.1304</title>
				<rect x="0" y="156.406" width="14.1732" height="14.1732" class="st1"/>
			</g>
			<g id="shape1305-114" v:mID="1305" v:groupContext="shape" transform="translate(85.0394,-99.2126)">
				<title>Blad.1305</title>
				<rect x="0" y="156.406" width="14.1732" height="14.1732" class="st1"/>
			</g>
			<g id="shape1306-116" v:mID="1306" v:groupContext="shape" transform="translate(85.0394,-113.386)">
				<title>Blad.1306</title>
				<rect x="0" y="156.406" width="14.1732" height="14.1732" class="st1"/>
			</g>
			<g id="shape1307-118" v:mID="1307" v:groupContext="shape" transform="translate(99.2126,-99.2126)">
				<title>Blad.1307</title>
				<rect x="0" y="156.406" width="14.1732" height="14.1732" class="st1"/>
			</g>
			<g id="shape1308-120" v:mID="1308" v:groupContext="shape" transform="translate(99.2126,-113.386)">
				<title>Blad.1308</title>
				<rect x="0" y="156.406" width="14.1732" height="14.1732" class="st1"/>
			</g>
			<g id="shape1309-122" v:mID="1309" v:groupContext="shape" transform="translate(113.386,-99.2126)">
				<title>Blad.1309</title>
				<rect x="0" y="156.406" width="14.1732" height="14.1732" class="st1"/>
			</g>
			<g id="shape1310-124" v:mID="1310" v:groupContext="shape" transform="translate(113.386,-113.386)">
				<title>Blad.1310</title>
				<rect x="0" y="156.406" width="14.1732" height="14.1732" class="st1"/>
			</g>
			<g id="shape1311-126" v:mID="1311" v:groupContext="shape" transform="translate(127.559,-99.2126)">
				<title>Blad.1311</title>
				<rect x="0" y="156.406" width="14.1732" height="14.1732" class="st1"/>
			</g>
			<g id="shape1312-128" v:mID="1312" v:groupContext="shape" transform="translate(127.559,-113.386)">
				<title>Blad.1312</title>
				<rect x="0" y="156.406" width="14.1732" height="14.1732" class="st1"/>
			</g>
			<g id="shape1313-130" v:mID="1313" v:groupContext="shape" transform="translate(85.0394,-70.8661)">
				<title>Blad.1313</title>
				<rect x="0" y="156.406" width="14.1732" height="14.1732" class="st1"/>
			</g>
			<g id="shape1314-132" v:mID="1314" v:groupContext="shape" transform="translate(85.0394,-85.0394)">
				<title>Blad.1314</title>
				<rect x="0" y="156.406" width="14.1732" height="14.1732" class="st1"/>
			</g>
			<g id="shape1315-134" v:mID="1315" v:groupContext="shape" transform="translate(99.2126,-70.8661)">
				<title>Blad.1315</title>
				<rect x="0" y="156.406" width="14.1732" height="14.1732" class="st1"/>
			</g>
			<g id="shape1316-136" v:mID="1316" v:groupContext="shape" transform="translate(99.2126,-85.0394)">
				<title>Blad.1316</title>
				<rect x="0" y="156.406" width="14.1732" height="14.1732" class="st1"/>
			</g>
			<g id="shape1317-138" v:mID="1317" v:groupContext="shape" transform="translate(113.386,-70.8661)">
				<title>Blad.1317</title>
				<rect x="0" y="156.406" width="14.1732" height="14.1732" class="st1"/>
			</g>
			<g id="shape1318-140" v:mID="1318" v:groupContext="shape" transform="translate(113.386,-85.0394)">
				<title>Blad.1318</title>
				<rect x="0" y="156.406" width="14.1732" height="14.1732" class="st1"/>
			</g>
			<g id="shape1319-142" v:mID="1319" v:groupContext="shape" transform="translate(127.559,-70.8661)">
				<title>Blad.1319</title>
				<rect x="0" y="156.406" width="14.1732" height="14.1732" class="st1"/>
			</g>
			<g id="shape1320-144" v:mID="1320" v:groupContext="shape" transform="translate(127.559,-85.0394)">
				<title>Blad.1320</title>
				<rect x="0" y="156.406" width="14.1732" height="14.1732" class="st1"/>
			</g>
			<g id="shape1321-146" v:mID="1321" v:groupContext="shape" transform="translate(42.5197,-42.5197)">
				<title>Blad.1321</title>
				<rect x="0" y="156.406" width="14.1732" height="14.1732" class="st1"/>
			</g>
			<g id="shape1322-148" v:mID="1322" v:groupContext="shape" transform="translate(42.5197,-56.6929)">
				<title>Blad.1322</title>
				<rect x="0" y="156.406" width="14.1732" height="14.1732" class="st1"/>
			</g>
			<g id="shape1323-150" v:mID="1323" v:groupContext="shape" transform="translate(56.6929,-42.5197)">
				<title>Blad.1323</title>
				<rect x="0" y="156.406" width="14.1732" height="14.1732" class="st1"/>
			</g>
			<g id="shape1324-152" v:mID="1324" v:groupContext="shape" transform="translate(56.6929,-56.6929)">
				<title>Blad.1324</title>
				<rect x="0" y="156.406" width="14.1732" height="14.1732" class="st1"/>
			</g>
			<g id="shape1325-154" v:mID="1325" v:groupContext="shape" transform="translate(70.8661,-42.5197)">
				<title>Blad.1325</title>
				<rect x="0" y="156.406" width="14.1732" height="14.1732" class="st1"/>
			</g>
			<g id="shape1326-156" v:mID="1326" v:groupContext="shape" transform="translate(70.8661,-56.6929)">
				<title>Blad.1326</title>
				<rect x="0" y="156.406" width="14.1732" height="14.1732" class="st1"/>
			</g>
			<g id="shape1327-158" v:mID="1327" v:groupContext="shape" transform="translate(42.5197,-14.1732)">
				<title>Blad.1327</title>
				<rect x="0" y="156.406" width="14.1732" height="14.1732" class="st1"/>
			</g>
			<g id="shape1328-160" v:mID="1328" v:groupContext="shape" transform="translate(42.5197,-28.3465)">
				<title>Blad.1328</title>
				<rect x="0" y="156.406" width="14.1732" height="14.1732" class="st1"/>
			</g>
			<g id="shape1329-162" v:mID="1329" v:groupContext="shape" transform="translate(56.6929,-14.1732)">
				<title>Blad.1329</title>
				<rect x="0" y="156.406" width="14.1732" height="14.1732" class="st1"/>
			</g>
			<g id="shape1330-164" v:mID="1330" v:groupContext="shape" transform="translate(56.6929,-28.3465)">
				<title>Blad.1330</title>
				<rect x="0" y="156.406" width="14.1732" height="14.1732" class="st1"/>
			</g>
			<g id="shape1331-166" v:mID="1331" v:groupContext="shape" transform="translate(70.8661,-14.1732)">
				<title>Blad.1331</title>
				<rect x="0" y="156.406" width="14.1732" height="14.1732" class="st1"/>
			</g>
			<g id="shape1332-168" v:mID="1332" v:groupContext="shape" transform="translate(70.8661,-28.3465)">
				<title>Blad.1332</title>
				<rect x="0" y="156.406" width="14.1732" height="14.1732" class="st1"/>
			</g>
			<g id="shape1333-170" v:mID="1333" v:groupContext="shape" transform="translate(42.5197,-99.2126)">
				<title>Blad.1333</title>
				<rect x="0" y="156.406" width="14.1732" height="14.1732" class="st1"/>
			</g>
			<g id="shape1334-172" v:mID="1334" v:groupContext="shape" transform="translate(42.5197,-113.386)">
				<title>Blad.1334</title>
				<rect x="0" y="156.406" width="14.1732" height="14.1732" class="st1"/>
			</g>
			<g id="shape1335-174" v:mID="1335" v:groupContext="shape" transform="translate(56.6929,-99.2126)">
				<title>Blad.1335</title>
				<rect x="0" y="156.406" width="14.1732" height="14.1732" class="st1"/>
			</g>
			<g id="shape1336-176" v:mID="1336" v:groupContext="shape" transform="translate(56.6929,-113.386)">
				<title>Blad.1336</title>
				<rect x="0" y="156.406" width="14.1732" height="14.1732" class="st1"/>
			</g>
			<g id="shape1337-178" v:mID="1337" v:groupContext="shape" transform="translate(70.8661,-99.2126)">
				<title>Blad.1337</title>
				<rect x="0" y="156.406" width="14.1732" height="14.1732" class="st1"/>
			</g>
			<g id="shape1338-180" v:mID="1338" v:groupContext="shape" transform="translate(70.8661,-113.386)">
				<title>Blad.1338</title>
				<rect x="0" y="156.406" width="14.1732" height="14.1732" class="st1"/>
			</g>
			<g id="shape1339-182" v:mID="1339" v:groupContext="shape" transform="translate(42.5197,-70.8661)">
				<title>Blad.1339</title>
				<rect x="0" y="156.406" width="14.1732" height="14.1732" class="st1"/>
			</g>
			<g id="shape1340-184" v:mID="1340" v:groupContext="shape" transform="translate(42.5197,-85.0394)">
				<title>Blad.1340</title>
				<rect x="0" y="156.406" width="14.1732" height="14.1732" class="st1"/>
			</g>
			<g id="shape1341-186" v:mID="1341" v:groupContext="shape" transform="translate(56.6929,-70.8661)">
				<title>Blad.1341</title>
				<rect x="0" y="156.406" width="14.1732" height="14.1732" class="st1"/>
			</g>
			<g id="shape1342-188" v:mID="1342" v:groupContext="shape" transform="translate(56.6929,-85.0394)">
				<title>Blad.1342</title>
				<rect x="0" y="156.406" width="14.1732" height="14.1732" class="st1"/>
			</g>
			<g id="shape1343-190" v:mID="1343" v:groupContext="shape" transform="translate(70.8661,-70.8661)">
				<title>Blad.1343</title>
				<rect x="0" y="156.406" width="14.1732" height="14.1732" class="st1"/>
			</g>
			<g id="shape1344-192" v:mID="1344" v:groupContext="shape" transform="translate(70.8661,-85.0394)">
				<title>Blad.1344</title>
				<rect x="0" y="156.406" width="14.1732" height="14.1732" class="st1"/>
			</g>
			<g id="shape1394-194" v:mID="1394" v:groupContext="shape" transform="translate(141.732,-2.84217E-14)">
				<title>Blad.1394</title>
				<rect x="0" y="156.406" width="14.1732" height="14.1732" class="st1"/>
			</g>
			<g id="shape1396-196" v:mID="1396" v:groupContext="shape" transform="translate(155.906,-2.84217E-14)">
				<title>Blad.1396</title>
				<rect x="0" y="156.406" width="14.1732" height="14.1732" class="st1"/>
			</g>
			<g id="shape1398-198" v:mID="1398" v:groupContext="shape" transform="translate(170.079,-2.07478E-12)">
				<title>Blad.1398</title>
				<rect x="0" y="156.406" width="14.1732" height="14.1732" class="st1"/>
			</g>
			<g id="shape1400-200" v:mID="1400" v:groupContext="shape" transform="translate(184.252,-2.07478E-12)">
				<title>Blad.1400</title>
				<rect x="0" y="156.406" width="14.1732" height="14.1732" class="st1"/>
			</g>
			<g id="shape1402-202" v:mID="1402" v:groupContext="shape" transform="translate(198.425,-2.07478E-12)">
				<title>Blad.1402</title>
				<rect x="0" y="156.406" width="14.1732" height="14.1732" class="st1"/>
			</g>
			<g id="shape1426-204" v:mID="1426" v:groupContext="shape" transform="translate(85.0394,-2.07478E-12)">
				<title>Blad.1426</title>
				<rect x="0" y="156.406" width="14.1732" height="14.1732" class="st1"/>
			</g>
			<g id="shape1428-206" v:mID="1428" v:groupContext="shape" transform="translate(99.2126,-2.07478E-12)">
				<title>Blad.1428</title>
				<rect x="0" y="156.406" width="14.1732" height="14.1732" class="st1"/>
			</g>
			<g id="shape1430-208" v:mID="1430" v:groupContext="shape" transform="translate(113.386,-2.07478E-12)">
				<title>Blad.1430</title>
				<rect x="0" y="156.406" width="14.1732" height="14.1732" class="st1"/>
			</g>
			<g id="shape1432-210" v:mID="1432" v:groupContext="shape" transform="translate(127.559,-2.07478E-12)">
				<title>Blad.1432</title>
				<rect x="0" y="156.406" width="14.1732" height="14.1732" class="st1"/>
			</g>
			<g id="shape1434-212" v:mID="1434" v:groupContext="shape" transform="translate(42.5197,-2.84217E-14)">
				<title>Blad.1434</title>
				<rect x="0" y="156.406" width="14.1732" height="14.1732" class="st1"/>
			</g>
			<g id="shape1436-214" v:mID="1436" v:groupContext="shape" transform="translate(56.6929,-2.84217E-14)">
				<title>Blad.1436</title>
				<rect x="0" y="156.406" width="14.1732" height="14.1732" class="st1"/>
			</g>
			<g id="shape1438-216" v:mID="1438" v:groupContext="shape" transform="translate(70.8661,-2.07478E-12)">
				<title>Blad.1438</title>
				<rect x="0" y="156.406" width="14.1732" height="14.1732" class="st1"/>
			</g>
			<g id="shape1451-218" v:mID="1451" v:groupContext="shape" transform="translate(141.732,-127.559)">
				<title>Blad.1451</title>
				<rect x="0" y="156.406" width="14.1732" height="14.1732" class="st1"/>
			</g>
			<g id="shape1452-220" v:mID="1452" v:groupContext="shape" transform="translate(141.732,-141.732)">
				<title>Blad.1452</title>
				<rect x="0" y="156.406" width="14.1732" height="14.1732" class="st1"/>
			</g>
			<g id="shape1453-222" v:mID="1453" v:groupContext="shape" transform="translate(155.906,-127.559)">
				<title>Blad.1453</title>
				<rect x="0" y="156.406" width="14.1732" height="14.1732" class="st1"/>
			</g>
			<g id="shape1454-224" v:mID="1454" v:groupContext="shape" transform="translate(155.906,-141.732)">
				<title>Blad.1454</title>
				<rect x="0" y="156.406" width="14.1732" height="14.1732" class="st1"/>
			</g>
			<g id="shape1455-226" v:mID="1455" v:groupContext="shape" transform="translate(170.079,-127.559)">
				<title>Blad.1455</title>
				<rect x="0" y="156.406" width="14.1732" height="14.1732" class="st1"/>
			</g>
			<g id="shape1456-228" v:mID="1456" v:groupContext="shape" transform="translate(170.079,-141.732)">
				<title>Blad.1456</title>
				<rect x="0" y="156.406" width="14.1732" height="14.1732" class="st1"/>
			</g>
			<g id="shape1457-230" v:mID="1457" v:groupContext="shape" transform="translate(184.252,-127.559)">
				<title>Blad.1457</title>
				<rect x="0" y="156.406" width="14.1732" height="14.1732" class="st1"/>
			</g>
			<g id="shape1458-232" v:mID="1458" v:groupContext="shape" transform="translate(184.252,-141.732)">
				<title>Blad.1458</title>
				<rect x="0" y="156.406" width="14.1732" height="14.1732" class="st1"/>
			</g>
			<g id="shape1459-234" v:mID="1459" v:groupContext="shape" transform="translate(198.425,-127.559)">
				<title>Blad.1459</title>
				<rect x="0" y="156.406" width="14.1732" height="14.1732" class="st1"/>
			</g>
			<g id="shape1460-236" v:mID="1460" v:groupContext="shape" transform="translate(198.425,-141.732)">
				<title>Blad.1460</title>
				<rect x="0" y="156.406" width="14.1732" height="14.1732" class="st1"/>
			</g>
			<g id="shape1483-238" v:mID="1483" v:groupContext="shape" transform="translate(85.0394,-127.559)">
				<title>Blad.1483</title>
				<rect x="0" y="156.406" width="14.1732" height="14.1732" class="st1"/>
			</g>
			<g id="shape1484-240" v:mID="1484" v:groupContext="shape" transform="translate(85.0394,-141.732)">
				<title>Blad.1484</title>
				<rect x="0" y="156.406" width="14.1732" height="14.1732" class="st1"/>
			</g>
			<g id="shape1485-242" v:mID="1485" v:groupContext="shape" transform="translate(99.2126,-127.559)">
				<title>Blad.1485</title>
				<rect x="0" y="156.406" width="14.1732" height="14.1732" class="st1"/>
			</g>
			<g id="shape1486-244" v:mID="1486" v:groupContext="shape" transform="translate(99.2126,-141.732)">
				<title>Blad.1486</title>
				<rect x="0" y="156.406" width="14.1732" height="14.1732" class="st1"/>
			</g>
			<g id="shape1487-246" v:mID="1487" v:groupContext="shape" transform="translate(113.386,-127.559)">
				<title>Blad.1487</title>
				<rect x="0" y="156.406" width="14.1732" height="14.1732" class="st1"/>
			</g>
			<g id="shape1488-248" v:mID="1488" v:groupContext="shape" transform="translate(113.386,-141.732)">
				<title>Blad.1488</title>
				<rect x="0" y="156.406" width="14.1732" height="14.1732" class="st1"/>
			</g>
			<g id="shape1489-250" v:mID="1489" v:groupContext="shape" transform="translate(127.559,-127.559)">
				<title>Blad.1489</title>
				<rect x="0" y="156.406" width="14.1732" height="14.1732" class="st1"/>
			</g>
			<g id="shape1490-252" v:mID="1490" v:groupContext="shape" transform="translate(127.559,-141.732)">
				<title>Blad.1490</title>
				<rect x="0" y="156.406" width="14.1732" height="14.1732" class="st1"/>
			</g>
			<g id="shape1491-254" v:mID="1491" v:groupContext="shape" transform="translate(42.5197,-127.559)">
				<title>Blad.1491</title>
				<rect x="0" y="156.406" width="14.1732" height="14.1732" class="st1"/>
			</g>
			<g id="shape1492-256" v:mID="1492" v:groupContext="shape" transform="translate(42.5197,-141.732)">
				<title>Blad.1492</title>
				<rect x="0" y="156.406" width="14.1732" height="14.1732" class="st1"/>
			</g>
			<g id="shape1493-258" v:mID="1493" v:groupContext="shape" transform="translate(56.6929,-127.559)">
				<title>Blad.1493</title>
				<rect x="0" y="156.406" width="14.1732" height="14.1732" class="st1"/>
			</g>
			<g id="shape1494-260" v:mID="1494" v:groupContext="shape" transform="translate(56.6929,-141.732)">
				<title>Blad.1494</title>
				<rect x="0" y="156.406" width="14.1732" height="14.1732" class="st1"/>
			</g>
			<g id="shape1495-262" v:mID="1495" v:groupContext="shape" transform="translate(70.8661,-127.559)">
				<title>Blad.1495</title>
				<rect x="0" y="156.406" width="14.1732" height="14.1732" class="st1"/>
			</g>
			<g id="shape1496-264" v:mID="1496" v:groupContext="shape" transform="translate(70.8661,-141.732)">
				<title>Blad.1496</title>
				<rect x="0" y="156.406" width="14.1732" height="14.1732" class="st1"/>
			</g>
			<g id="shape1577-266" v:mID="1577" v:groupContext="shape" transform="translate(3.4972E-14,-42.5197)">
				<title>Blad.1577</title>
				<rect x="0" y="156.406" width="14.1732" height="14.1732" class="st1"/>
			</g>
			<g id="shape1578-268" v:mID="1578" v:groupContext="shape" transform="translate(3.4972E-14,-56.6929)">
				<title>Blad.1578</title>
				<rect x="0" y="156.406" width="14.1732" height="14.1732" class="st1"/>
			</g>
			<g id="shape1579-270" v:mID="1579" v:groupContext="shape" transform="translate(14.1732,-42.5197)">
				<title>Blad.1579</title>
				<rect x="0" y="156.406" width="14.1732" height="14.1732" class="st1"/>
			</g>
			<g id="shape1580-272" v:mID="1580" v:groupContext="shape" transform="translate(14.1732,-56.6929)">
				<title>Blad.1580</title>
				<rect x="0" y="156.406" width="14.1732" height="14.1732" class="st1"/>
			</g>
			<g id="shape1581-274" v:mID="1581" v:groupContext="shape" transform="translate(28.3465,-42.5197)">
				<title>Blad.1581</title>
				<rect x="0" y="156.406" width="14.1732" height="14.1732" class="st1"/>
			</g>
			<g id="shape1582-276" v:mID="1582" v:groupContext="shape" transform="translate(28.3465,-56.6929)">
				<title>Blad.1582</title>
				<rect x="0" y="156.406" width="14.1732" height="14.1732" class="st1"/>
			</g>
			<g id="shape1583-278" v:mID="1583" v:groupContext="shape" transform="translate(3.4972E-14,-14.1732)">
				<title>Blad.1583</title>
				<rect x="0" y="156.406" width="14.1732" height="14.1732" class="st1"/>
			</g>
			<g id="shape1584-280" v:mID="1584" v:groupContext="shape" transform="translate(3.4972E-14,-28.3465)">
				<title>Blad.1584</title>
				<rect x="0" y="156.406" width="14.1732" height="14.1732" class="st1"/>
			</g>
			<g id="shape1585-282" v:mID="1585" v:groupContext="shape" transform="translate(14.1732,-14.1732)">
				<title>Blad.1585</title>
				<rect x="0" y="156.406" width="14.1732" height="14.1732" class="st1"/>
			</g>
			<g id="shape1586-284" v:mID="1586" v:groupContext="shape" transform="translate(14.1732,-28.3465)">
				<title>Blad.1586</title>
				<rect x="0" y="156.406" width="14.1732" height="14.1732" class="st1"/>
			</g>
			<g id="shape1587-286" v:mID="1587" v:groupContext="shape" transform="translate(28.3465,-14.1732)">
				<title>Blad.1587</title>
				<rect x="0" y="156.406" width="14.1732" height="14.1732" class="st1"/>
			</g>
			<g id="shape1588-288" v:mID="1588" v:groupContext="shape" transform="translate(28.3465,-28.3465)">
				<title>Blad.1588</title>
				<rect x="0" y="156.406" width="14.1732" height="14.1732" class="st1"/>
			</g>
			<g id="shape1589-290" v:mID="1589" v:groupContext="shape" transform="translate(3.4972E-14,-99.2126)">
				<title>Blad.1589</title>
				<rect x="0" y="156.406" width="14.1732" height="14.1732" class="st1"/>
			</g>
			<g id="shape1590-292" v:mID="1590" v:groupContext="shape" transform="translate(3.4972E-14,-113.386)">
				<title>Blad.1590</title>
				<rect x="0" y="156.406" width="14.1732" height="14.1732" class="st1"/>
			</g>
			<g id="shape1591-294" v:mID="1591" v:groupContext="shape" transform="translate(14.1732,-99.2126)">
				<title>Blad.1591</title>
				<rect x="0" y="156.406" width="14.1732" height="14.1732" class="st1"/>
			</g>
			<g id="shape1592-296" v:mID="1592" v:groupContext="shape" transform="translate(14.1732,-113.386)">
				<title>Blad.1592</title>
				<rect x="0" y="156.406" width="14.1732" height="14.1732" class="st1"/>
			</g>
			<g id="shape1593-298" v:mID="1593" v:groupContext="shape" transform="translate(28.3465,-99.2126)">
				<title>Blad.1593</title>
				<rect x="0" y="156.406" width="14.1732" height="14.1732" class="st1"/>
			</g>
			<g id="shape1594-300" v:mID="1594" v:groupContext="shape" transform="translate(28.3465,-113.386)">
				<title>Blad.1594</title>
				<rect x="0" y="156.406" width="14.1732" height="14.1732" class="st1"/>
			</g>
			<g id="shape1595-302" v:mID="1595" v:groupContext="shape" transform="translate(3.4972E-14,-70.8661)">
				<title>Blad.1595</title>
				<rect x="0" y="156.406" width="14.1732" height="14.1732" class="st1"/>
			</g>
			<g id="shape1596-304" v:mID="1596" v:groupContext="shape" transform="translate(3.4972E-14,-85.0394)">
				<title>Blad.1596</title>
				<rect x="0" y="156.406" width="14.1732" height="14.1732" class="st1"/>
			</g>
			<g id="shape1597-306" v:mID="1597" v:groupContext="shape" transform="translate(14.1732,-70.8661)">
				<title>Blad.1597</title>
				<rect x="0" y="156.406" width="14.1732" height="14.1732" class="st1"/>
			</g>
			<g id="shape1598-308" v:mID="1598" v:groupContext="shape" transform="translate(14.1732,-85.0394)">
				<title>Blad.1598</title>
				<rect x="0" y="156.406" width="14.1732" height="14.1732" class="st1"/>
			</g>
			<g id="shape1599-310" v:mID="1599" v:groupContext="shape" transform="translate(28.3465,-70.8661)">
				<title>Blad.1599</title>
				<rect x="0" y="156.406" width="14.1732" height="14.1732" class="st1"/>
			</g>
			<g id="shape1600-312" v:mID="1600" v:groupContext="shape" transform="translate(28.3465,-85.0394)">
				<title>Blad.1600</title>
				<rect x="0" y="156.406" width="14.1732" height="14.1732" class="st1"/>
			</g>
			<g id="shape1602-314" v:mID="1602" v:groupContext="shape">
				<title>Blad.1602</title>
				<rect x="0" y="156.406" width="14.1732" height="14.1732" class="st1"/>
			</g>
			<g id="shape1604-316" v:mID="1604" v:groupContext="shape" transform="translate(14.1732,-2.84217E-14)">
				<title>Blad.1604</title>
				<rect x="0" y="156.406" width="14.1732" height="14.1732" class="st1"/>
			</g>
			<g id="shape1606-318" v:mID="1606" v:groupContext="shape" transform="translate(28.3465,-2.07478E-12)">
				<title>Blad.1606</title>
				<rect x="0" y="156.406" width="14.1732" height="14.1732" class="st1"/>
			</g>
			<g id="shape1607-320" v:mID="1607" v:groupContext="shape" transform="translate(5.46563E-13,-127.559)">
				<title>Blad.1607</title>
				<rect x="0" y="156.406" width="14.1732" height="14.1732" class="st1"/>
			</g>
			<g id="shape1608-322" v:mID="1608" v:groupContext="shape" transform="translate(5.46563E-13,-141.732)">
				<title>Blad.1608</title>
				<rect x="0" y="156.406" width="14.1732" height="14.1732" class="st1"/>
			</g>
			<g id="shape1609-324" v:mID="1609" v:groupContext="shape" transform="translate(14.1732,-127.559)">
				<title>Blad.1609</title>
				<rect x="0" y="156.406" width="14.1732" height="14.1732" class="st1"/>
			</g>
			<g id="shape1610-326" v:mID="1610" v:groupContext="shape" transform="translate(14.1732,-141.732)">
				<title>Blad.1610</title>
				<rect x="0" y="156.406" width="14.1732" height="14.1732" class="st1"/>
			</g>
			<g id="shape1611-328" v:mID="1611" v:groupContext="shape" transform="translate(28.3465,-127.559)">
				<title>Blad.1611</title>
				<rect x="0" y="156.406" width="14.1732" height="14.1732" class="st1"/>
			</g>
			<g id="shape1612-330" v:mID="1612" v:groupContext="shape" transform="translate(28.3465,-141.732)">
				<title>Blad.1612</title>
				<rect x="0" y="156.406" width="14.1732" height="14.1732" class="st1"/>
			</g>
			<g id="shape1616-332" v:mID="1616" v:groupContext="shape" transform="translate(141.732,-155.906)">
				<title>Blad.1616</title>
				<rect x="0" y="156.406" width="14.1732" height="14.1732" class="st1"/>
			</g>
			<g id="shape1617-334" v:mID="1617" v:groupContext="shape" transform="translate(155.906,-155.906)">
				<title>Blad.1617</title>
				<rect x="0" y="156.406" width="14.1732" height="14.1732" class="st1"/>
			</g>
			<g id="shape1618-336" v:mID="1618" v:groupContext="shape" transform="translate(170.079,-155.906)">
				<title>Blad.1618</title>
				<rect x="0" y="156.406" width="14.1732" height="14.1732" class="st1"/>
			</g>
			<g id="shape1619-338" v:mID="1619" v:groupContext="shape" transform="translate(184.252,-155.906)">
				<title>Blad.1619</title>
				<rect x="0" y="156.406" width="14.1732" height="14.1732" class="st1"/>
			</g>
			<g id="shape1620-340" v:mID="1620" v:groupContext="shape" transform="translate(198.425,-155.906)">
				<title>Blad.1620</title>
				<rect x="0" y="156.406" width="14.1732" height="14.1732" class="st1"/>
			</g>
			<g id="shape1632-342" v:mID="1632" v:groupContext="shape" transform="translate(85.0394,-155.906)">
				<title>Blad.1632</title>
				<rect x="0" y="156.406" width="14.1732" height="14.1732" class="st1"/>
			</g>
			<g id="shape1633-344" v:mID="1633" v:groupContext="shape" transform="translate(99.2126,-155.906)">
				<title>Blad.1633</title>
				<rect x="0" y="156.406" width="14.1732" height="14.1732" class="st1"/>
			</g>
			<g id="shape1634-346" v:mID="1634" v:groupContext="shape" transform="translate(113.386,-155.906)">
				<title>Blad.1634</title>
				<rect x="0" y="156.406" width="14.1732" height="14.1732" class="st1"/>
			</g>
			<g id="shape1635-348" v:mID="1635" v:groupContext="shape" transform="translate(127.559,-155.906)">
				<title>Blad.1635</title>
				<rect x="0" y="156.406" width="14.1732" height="14.1732" class="st1"/>
			</g>
			<g id="shape1636-350" v:mID="1636" v:groupContext="shape" transform="translate(42.5197,-155.906)">
				<title>Blad.1636</title>
				<rect x="0" y="156.406" width="14.1732" height="14.1732" class="st1"/>
			</g>
			<g id="shape1637-352" v:mID="1637" v:groupContext="shape" transform="translate(56.6929,-155.906)">
				<title>Blad.1637</title>
				<rect x="0" y="156.406" width="14.1732" height="14.1732" class="st1"/>
			</g>
			<g id="shape1638-354" v:mID="1638" v:groupContext="shape" transform="translate(70.8661,-155.906)">
				<title>Blad.1638</title>
				<rect x="0" y="156.406" width="14.1732" height="14.1732" class="st1"/>
			</g>
			<g id="shape1648-356" v:mID="1648" v:groupContext="shape" transform="translate(3.4972E-14,-155.906)">
				<title>Blad.1648</title>
				<rect x="0" y="156.406" width="14.1732" height="14.1732" class="st1"/>
			</g>
			<g id="shape1649-358" v:mID="1649" v:groupContext="shape" transform="translate(14.1732,-155.906)">
				<title>Blad.1649</title>
				<rect x="0" y="156.406" width="14.1732" height="14.1732" class="st1"/>
			</g>
			<g id="shape1650-360" v:mID="1650" v:groupContext="shape" transform="translate(28.3465,-155.906)">
				<title>Blad.1650</title>
				<rect x="0" y="156.406" width="14.1732" height="14.1732" class="st1"/>
			</g>
		</g>
		<g id="shape155-362" v:mID="155" v:groupContext="shape" transform="translate(14.4232,-99.4626)">
			<title>Blad.155</title>
			<path d="M0 170.58 L187.09 170.58" class="st2"/>
		</g>
		<g id="shape159-365" v:mID="159" v:groupContext="shape" transform="translate(-156.156,71.1161) rotate(-90)">
			<title>Blad.159</title>
			<path d="M0 170.58 L41.39 170.58" class="st3"/>
		</g>
		<g id="shape170-368" v:mID="170" v:groupContext="shape" transform="translate(322.127,191.734) rotate(135)">
			<title>Blad.170</title>
			<path d="M0 170.58 L88.19 170.58" class="st3"/>
		</g>
		<g id="shape174-371" v:mID="174" v:groupContext="shape" transform="translate(-79.2036,201.775) rotate(-122.005)">
			<title>Blad.174</title>
			<path d="M0 170.58 L96.27 170.58" class="st3"/>
		</g>
		<g id="shape175-374" v:mID="175" v:groupContext="shape" transform="translate(107.891,-30.1116) rotate(16.6992)">
			<title>Blad.175</title>
			<path d="M0 147.71 C13.21 159.32 41.8 182.96 65.19 162.8 C69.49 159.1 73.6 153.92 76.95 147.71" class="st3"/>
		</g>
		<g id="shape176-377" v:mID="176" v:groupContext="shape" transform="translate(14.4232,-134.896)">
			<title>Maatlijn.22</title>
			<desc>14.6</desc>
			<v:textBlock v:margins="rect(4,4,4,4)" v:tabSpace="42.5197"/>
			<v:textRect cx="16.2992" cy="163.492" width="32.6" height="14.1732"/>
			<rect x="0" y="156.406" width="32.5984" height="14.1732" class="st4"/>
			<text x="5.8" y="167.09" class="st5" v:langID="1043"><v:paragraph v:horizAlign="1"/><v:tabList/>14.6</text>		</g>
		<g id="shape1791-380" v:mID="1791" v:groupContext="shape" transform="translate(33.5571,-49.8563)">
			<title>Maatlijn.1791</title>
			<desc>14.2</desc>
			<v:textBlock v:margins="rect(4,4,4,4)" v:tabSpace="42.5197"/>
			<v:textRect cx="16.2992" cy="163.492" width="32.6" height="14.1732"/>
			<rect x="0" y="156.406" width="32.5984" height="14.1732" class="st4"/>
			<text x="5.8" y="167.09" class="st5" v:langID="1043"><v:paragraph v:horizAlign="1"/><v:tabList/>14.2</text>		</g>
		<g id="shape1792-383" v:mID="1792" v:groupContext="shape" transform="translate(134.896,-24.4816)">
			<title>Maatlijn.1792</title>
			<desc>22</desc>
			<v:textBlock v:margins="rect(4,4,4,4)" v:tabSpace="42.5197"/>
			<v:textRect cx="16.2992" cy="163.492" width="32.6" height="14.1732"/>
			<rect x="0" y="156.406" width="32.5984" height="14.1732" class="st4"/>
			<text x="10.3" y="167.09" class="st5" v:langID="1043"><v:paragraph v:horizAlign="1"/><v:tabList/>22</text>		</g>
		<g id="shape1793-386" v:mID="1793" v:groupContext="shape" transform="translate(71.9665,-8.75392)">
			<title>Maatlijn.1793</title>
			<desc>26.55</desc>
			<v:textBlock v:margins="rect(4,4,4,4)" v:tabSpace="42.5197"/>
			<v:textRect cx="22.252" cy="163.492" width="44.51" height="14.1732"/>
			<rect x="0" y="156.406" width="44.5039" height="14.1732" class="st4"/>
			<text x="8.75" y="167.09" class="st5" v:langID="1043"><v:paragraph v:horizAlign="1"/><v:tabList/>26.55</text>		</g>
		<g id="shape1794-389" v:mID="1794" v:groupContext="shape" transform="translate(185.919,-99.4626)">
			<title>Maatlijn.1794</title>
			<desc>0</desc>
			<v:textBlock v:margins="rect(4,4,4,4)" v:tabSpace="42.5197"/>
			<v:textRect cx="16.2992" cy="163.492" width="32.6" height="14.1732"/>
			<rect x="0" y="156.406" width="32.5984" height="14.1732" class="st4"/>
			<text x="13.3" y="167.09" class="st5" v:langID="1043"><v:paragraph v:horizAlign="1"/><v:tabList/>0</text>		</g>
		<g id="shape1795-392" v:mID="1795" v:groupContext="shape" transform="translate(17.2579,-103.715)">
			<title>Momentvervormingsteken</title>
			<path d="M0 170.58 A7.08661 7.08661 0 0 1 7.09 163.49 A7.08661 7.08661 0 0 1 14.17 170.58" class="st6"/>
		</g>
		<g id="shape1796-395" v:mID="1796" v:groupContext="shape" transform="translate(127.809,255.868) rotate(180)">
			<title>Momentvervormingsteken.1796</title>
			<path d="M0 170.58 A14.1732 14.1732 0 0 1 14.17 156.41 A14.1732 14.1732 0 0 1 28.35 170.58" class="st6"/>
		</g>
		<g id="shape1797-398" v:mID="1797" v:groupContext="shape" transform="translate(-55.1705,-9.24928) rotate(-45)">
			<title>Blad.1797</title>
			<path d="M0 170.58 L2.83 170.58" class="st2"/>
		</g>
		<g id="shape1798-401" v:mID="1798" v:groupContext="shape" transform="translate(-57.1749,-7.24488) rotate(-45)">
			<title>Blad.1798</title>
			<path d="M0 170.58 L2.83 170.58" class="st2"/>
		</g>
		<g id="shape1799-404" v:mID="1799" v:groupContext="shape" transform="translate(18.5303,254.096) rotate(-135)">
			<title>Blad.1799</title>
			<path d="M0 170.58 L2.83 170.58" class="st2"/>
		</g>
		<g id="shape1801-407" v:mID="1801" v:groupContext="shape" transform="translate(20.5347,256.1) rotate(-135)">
			<title>Blad.1801</title>
			<path d="M0 170.58 L2.83 170.58" class="st2"/>
		</g>
		<g id="shape1802-410" v:mID="1802" v:groupContext="shape" transform="translate(-18.3201,25.7586) rotate(-45)">
			<title>Blad.1802</title>
			<path d="M0 170.58 L2.83 170.58" class="st2"/>
		</g>
		<g id="shape1803-413" v:mID="1803" v:groupContext="shape" transform="translate(-20.3245,27.763) rotate(-45)">
			<title>Blad.1803</title>
			<path d="M0 170.58 L2.83 170.58" class="st2"/>
		</g>
		<g id="shape1804-416" v:mID="1804" v:groupContext="shape" transform="translate(-18.3201,266.993) rotate(-135)">
			<title>Blad.1804</title>
			<path d="M0 170.58 L2.83 170.58" class="st2"/>
		</g>
		<g id="shape1805-419" v:mID="1805" v:groupContext="shape" transform="translate(-16.3157,268.998) rotate(-135)">
			<title>Blad.1805</title>
			<path d="M0 170.58 L2.83 170.58" class="st2"/>
		</g>
		<g id="group1807-422" transform="translate(141.982,-141.982)" v:mID="1807" v:groupContext="group">
			<title>Maatlijn.1807</title>
			<g id="group1808-423" transform="translate(0,-9.92126)" v:mID="1808" v:groupContext="group">
				<title>Maatlijn.31</title>
				<g id="shape1809-424" v:mID="1809" v:groupContext="shape" transform="translate(170.579,162.075) rotate(90)">
					<title>Blad.1809</title>
					<path d="M0 170.58 L8.5 170.58" class="st7"/>
				</g>
				<g id="shape1810-427" v:mID="1810" v:groupContext="shape" transform="translate(227.272,162.075) rotate(90)">
					<title>Blad.1810</title>
					<path d="M0 170.58 L8.5 170.58" class="st7"/>
				</g>
				<g id="shape1811-430" v:mID="1811" v:groupContext="shape" transform="translate(0,-4.25197)">
					<title>Blad.1811</title>
					<path d="M3.74 170.58 L4.1 170.58 L52.59 170.58" class="st8"/>
				</g>
			</g>
			<g id="shape1812-439" v:mID="1812" v:groupContext="shape" transform="translate(-14.1732,5.68434E-14)">
				<title>Blad.1812</title>
				<desc>20 m / 20 kNm</desc>
				<v:textBlock v:margins="rect(4,4,4,4)" v:tabSpace="42.5197"/>
				<v:textRect cx="42.5197" cy="163.492" width="85.04" height="14.1732"/>
				<rect x="0" y="156.406" width="85.0394" height="14.1732" class="st4"/>
				<text x="6.19" y="167.09" class="st5" v:langID="1043"><v:paragraph v:horizAlign="1"/><v:tabList/>20 m / 20 kNm</text>			</g>
		</g>
	</g>
</svg>
