<?xml version="1.0" encoding="UTF-8" standalone="no"?>
<!DOCTYPE svg PUBLIC "-//W3C//DTD SVG 1.1//EN" "http://www.w3.org/Graphics/SVG/1.1/DTD/svg11.dtd">
<!-- Gegenereerd door Microsoft Visio, SVG Export structure.svg Pagina-1 -->
<svg xmlns="http://www.w3.org/2000/svg" xmlns:xlink="http://www.w3.org/1999/xlink" xmlns:ev="http://www.w3.org/2001/xml-events"
		xmlns:v="http://schemas.microsoft.com/visio/2003/SVGExtensions/" width="5.99467in" height="2.72341in"
		viewBox="0 0 431.616 196.086" xml:space="preserve" color-interpolation-filters="sRGB" class="st23">
	<v:documentProperties v:langID="1043" v:metric="true" v:viewMarkup="false"/>

	<style type="text/css">
	<![CDATA[
		.st1 {stroke:#000000;stroke-linecap:round;stroke-linejoin:round;stroke-width:1.2}
		.st2 {stroke:#000000;stroke-linecap:round;stroke-linejoin:round;stroke-width:0.75}
		.st3 {stroke:#000000;stroke-linecap:round;stroke-linejoin:round;stroke-width:2}
		.st4 {stroke:#000000;stroke-linecap:round;stroke-linejoin:round;stroke-width:0.25}
		.st5 {marker-end:url(#mrkr4-63);marker-start:url(#mrkr4-61);stroke:#000000;stroke-linecap:round;stroke-linejoin:round;stroke-width:0.25}
		.st6 {fill:#000000;fill-opacity:1;stroke:#000000;stroke-opacity:1;stroke-width:0.1219512195122}
		.st7 {fill:none;stroke:none;stroke-linecap:round;stroke-linejoin:round;stroke-width:0.75}
		.st8 {fill:#000000;font-family:Times New Roman;font-size:1.00001em}
		.st9 {fill:none;stroke:none;stroke-linecap:round;stroke-linejoin:round;stroke-width:0.24}
		.st10 {marker-end:url(#mrkr5-112);stroke:#800000;stroke-linecap:round;stroke-linejoin:round;stroke-width:1.2}
		.st11 {fill:#800000;fill-opacity:1;stroke:#800000;stroke-opacity:1;stroke-width:0.45454545454546}
		.st12 {stroke:#800000;stroke-linecap:round;stroke-linejoin:round;stroke-width:1.2}
		.st13 {marker-start:url(#mrkr5-146);stroke:#800000;stroke-linecap:round;stroke-linejoin:round;stroke-width:2}
		.st14 {fill:#800000;fill-opacity:1;stroke:#800000;stroke-opacity:1;stroke-width:0.44247787610619}
		.st15 {marker-end:url(#mrkr5-157);stroke:#000000;stroke-linecap:round;stroke-linejoin:round;stroke-width:0.75}
		.st16 {fill:#000000;fill-opacity:1;stroke:#000000;stroke-opacity:1;stroke-width:0.22935779816514}
		.st17 {fill:#000000;font-family:Times New Roman;font-size:1.00001em;font-style:italic}
		.st18 {stroke:#000000;stroke-linecap:round;stroke-linejoin:round;stroke-width:6}
		.st19 {stroke:#000000;stroke-linecap:round;stroke-linejoin:round;stroke-width:4.5}
		.st20 {marker-start:url(#mrkr4-206);stroke:#000000;stroke-linecap:round;stroke-linejoin:round;stroke-width:0.25}
		.st21 {fill:#000000;fill-opacity:1;stroke:#000000;stroke-opacity:1;stroke-width:0.14792899408284}
		.st22 {font-size:1em}
		.st23 {fill:none;fill-rule:evenodd;font-size:12px;overflow:visible;stroke-linecap:square;stroke-miterlimit:3}
	]]>
	</style>

	<defs id="Markers">
		<g id="lend4">
			<path d="M 2 1 L 0 0 L 2 -1 L 2 1 " style="stroke:none"/>
		</g>
		<marker id="mrkr4-61" class="st6" v:arrowType="4" v:arrowSize="1" v:setback="14.96" refX="14.96" orient="auto"
				markerUnits="strokeWidth" overflow="visible">
			<use xlink:href="#lend4" transform="scale(8.2) "/>
		</marker>
		<marker id="mrkr4-63" class="st6" v:arrowType="4" v:arrowSize="1" v:setback="16.4" refX="-16.4" orient="auto"
				markerUnits="strokeWidth" overflow="visible">
			<use xlink:href="#lend4" transform="scale(-8.2,-8.2) "/>
		</marker>
		<g id="lend5">
			<path d="M 2 1 L 0 0 L 1.98117 -0.993387 C 1.67173 -0.364515 1.67301 0.372641 1.98465 1.00043 " style="stroke:none"/>
		</g>
		<marker id="mrkr5-112" class="st11" v:arrowType="5" v:arrowSize="0" v:setback="3.85" refX="-3.85" orient="auto"
				markerUnits="strokeWidth" overflow="visible">
			<use xlink:href="#lend5" transform="scale(-2.2,-2.2) "/>
		</marker>
		<marker id="mrkr5-146" class="st14" v:arrowType="5" v:arrowSize="2" v:setback="3.775" refX="3.775" orient="auto"
				markerUnits="strokeWidth" overflow="visible">
			<use xlink:href="#lend5" transform="scale(2.26) "/>
		</marker>
		<marker id="mrkr5-157" class="st16" v:arrowType="5" v:arrowSize="2" v:setback="7.63" refX="-7.63" orient="auto"
				markerUnits="strokeWidth" overflow="visible">
			<use xlink:href="#lend5" transform="scale(-4.36,-4.36) "/>
		</marker>
		<marker id="mrkr4-206" class="st21" v:arrowType="4" v:arrowSize="0" v:setback="12.08" refX="12.08" orient="auto"
				markerUnits="strokeWidth" overflow="visible">
			<use xlink:href="#lend4" transform="scale(6.76) "/>
		</marker>
	</defs>
	<g v:mID="0" v:index="1" v:groupContext="foregroundPage">
		<title>Pagina-1</title>
		<v:pageProperties v:drawingScale="0.0393701" v:pageScale="0.0393701" v:drawingUnits="24" v:shadowOffsetX="8.50394"
				v:shadowOffsetY="-8.50394"/>
		<g id="group1-1" transform="translate(0.375,-96.753)" v:mID="1" v:groupContext="group">
			<title>Inklemming</title>
			<g id="shape2-2" v:mID="2" v:groupContext="shape" transform="translate(207.424,167.739) rotate(90)">
				<title>Blad.2</title>
				<path d="M0 196.09 L28.35 196.09" class="st1"/>
			</g>
			<g id="shape3-5" v:mID="3" v:groupContext="shape" transform="translate(147.157,29.0857) rotate(45)">
				<title>Blad.3</title>
				<path d="M0 196.09 L4.01 196.09" class="st2"/>
			</g>
			<g id="shape4-8" v:mID="4" v:groupContext="shape" transform="translate(144.323,29.0857) rotate(45)">
				<title>Blad.4</title>
				<path d="M0 196.09 L8.02 196.09" class="st2"/>
			</g>
			<g id="shape5-11" v:mID="5" v:groupContext="shape" transform="translate(141.488,29.0857) rotate(45)">
				<title>Blad.5</title>
				<path d="M0 196.09 L12.03 196.09" class="st2"/>
			</g>
			<g id="shape6-14" v:mID="6" v:groupContext="shape" transform="translate(138.653,29.0857) rotate(45)">
				<title>Blad.6</title>
				<path d="M0 196.09 L16.04 196.09" class="st2"/>
			</g>
			<g id="shape7-17" v:mID="7" v:groupContext="shape" transform="translate(138.653,31.9203) rotate(45)">
				<title>Blad.7</title>
				<path d="M0 196.09 L16.04 196.09" class="st2"/>
			</g>
			<g id="shape8-20" v:mID="8" v:groupContext="shape" transform="translate(138.653,34.755) rotate(45)">
				<title>Blad.8</title>
				<path d="M0 196.09 L16.04 196.09" class="st2"/>
			</g>
			<g id="shape9-23" v:mID="9" v:groupContext="shape" transform="translate(138.653,37.5896) rotate(45)">
				<title>Blad.9</title>
				<path d="M0 196.09 L16.04 196.09" class="st2"/>
			</g>
			<g id="shape10-26" v:mID="10" v:groupContext="shape" transform="translate(138.653,40.4243) rotate(45)">
				<title>Blad.10</title>
				<path d="M0 196.09 L16.04 196.09" class="st2"/>
			</g>
			<g id="shape11-29" v:mID="11" v:groupContext="shape" transform="translate(138.653,43.2589) rotate(45)">
				<title>Blad.11</title>
				<path d="M0 196.09 L16.04 196.09" class="st2"/>
			</g>
			<g id="shape12-32" v:mID="12" v:groupContext="shape" transform="translate(138.653,46.0936) rotate(45)">
				<title>Blad.12</title>
				<path d="M0 196.09 L16.04 196.09" class="st2"/>
			</g>
			<g id="shape13-35" v:mID="13" v:groupContext="shape" transform="translate(138.653,48.9282) rotate(45)">
				<title>Blad.13</title>
				<path d="M0 196.09 L12.03 196.09" class="st2"/>
			</g>
			<g id="shape14-38" v:mID="14" v:groupContext="shape" transform="translate(138.653,51.7628) rotate(45)">
				<title>Blad.14</title>
				<path d="M0 196.09 L8.02 196.09" class="st2"/>
			</g>
			<g id="shape15-41" v:mID="15" v:groupContext="shape" transform="translate(138.653,54.5975) rotate(45)">
				<title>Blad.15</title>
				<path d="M0 196.09 L4.01 196.09" class="st2"/>
			</g>
		</g>
		<g id="shape16-44" v:mID="16" v:groupContext="shape" transform="translate(11.7136,-110.926)">
			<title>Ligger, 2 pt</title>
			<path d="M0 196.09 L187.09 196.09" class="st3"/>
		</g>
		<g id="group17-47" transform="translate(11.7136,-54.2333)" v:mID="17" v:groupContext="group">
			<title>Maatlijn</title>
			<g id="group18-48" transform="translate(0,-9.92126)" v:mID="18" v:groupContext="group">
				<title>Maatlijn.31</title>
				<g id="shape19-49" v:mID="19" v:groupContext="shape" transform="translate(196.086,187.582) rotate(90)">
					<title>Blad.19</title>
					<path d="M0 196.09 L8.5 196.09" class="st4"/>
				</g>
				<g id="shape20-52" v:mID="20" v:groupContext="shape" transform="translate(247.109,187.582) rotate(90)">
					<title>Blad.20</title>
					<path d="M0 196.09 L8.5 196.09" class="st4"/>
				</g>
				<g id="shape21-55" v:mID="21" v:groupContext="shape" transform="translate(0,-4.25197)">
					<title>Blad.21</title>
					<path d="M3.74 196.09 L4.1 196.09 L46.92 196.09" class="st5"/>
				</g>
			</g>
			<g id="shape22-64" v:mID="22" v:groupContext="shape">
				<title>Blad.22</title>
				<desc>1.8 m</desc>
				<v:textBlock v:margins="rect(4,4,4,4)" v:tabSpace="42.5197"/>
				<v:textRect cx="25.5118" cy="188.999" width="51.03" height="14.1732"/>
				<rect x="0" y="181.912" width="51.0236" height="14.1732" class="st7"/>
				<text x="11.84" y="192.6" class="st8" v:langID="1043"><v:paragraph v:horizAlign="1"/><v:tabList/>1.8 m</text>			</g>
		</g>
		<g id="group23-67" transform="translate(62.7372,-54.2333)" v:mID="23" v:groupContext="group">
			<title>Maatlijn.23</title>
			<g id="group24-68" transform="translate(0,-9.92126)" v:mID="24" v:groupContext="group">
				<title>Maatlijn.31</title>
				<g id="shape25-69" v:mID="25" v:groupContext="shape" transform="translate(196.086,187.582) rotate(90)">
					<title>Blad.25</title>
					<path d="M0 196.09 L8.5 196.09" class="st4"/>
				</g>
				<g id="shape26-72" v:mID="26" v:groupContext="shape" transform="translate(269.786,187.582) rotate(90)">
					<title>Blad.26</title>
					<path d="M0 196.09 L8.5 196.09" class="st4"/>
				</g>
				<g id="shape27-75" v:mID="27" v:groupContext="shape" transform="translate(0,-4.25197)">
					<title>Blad.27</title>
					<path d="M3.74 196.09 L4.1 196.09 L69.6 196.09" class="st5"/>
				</g>
			</g>
			<g id="shape28-82" v:mID="28" v:groupContext="shape">
				<title>Blad.28</title>
				<desc>2.6 m</desc>
				<v:textBlock v:margins="rect(4,4,4,4)" v:tabSpace="42.5197"/>
				<v:textRect cx="36.8504" cy="188.999" width="73.71" height="14.1732"/>
				<rect x="0" y="181.912" width="73.7008" height="14.1732" class="st7"/>
				<text x="23.18" y="192.6" class="st8" v:langID="1043"><v:paragraph v:horizAlign="1"/><v:tabList/>2.6 m</text>			</g>
		</g>
		<g id="group29-85" transform="translate(136.438,-54.2333)" v:mID="29" v:groupContext="group">
			<title>Maatlijn.29</title>
			<g id="group30-86" transform="translate(0,-9.92126)" v:mID="30" v:groupContext="group">
				<title>Maatlijn.31</title>
				<g id="shape31-87" v:mID="31" v:groupContext="shape" transform="translate(196.086,187.582) rotate(90)">
					<title>Blad.31</title>
					<path d="M0 196.09 L8.5 196.09" class="st4"/>
				</g>
				<g id="shape32-90" v:mID="32" v:groupContext="shape" transform="translate(258.448,187.582) rotate(90)">
					<title>Blad.32</title>
					<path d="M0 196.09 L8.5 196.09" class="st4"/>
				</g>
				<g id="shape33-93" v:mID="33" v:groupContext="shape" transform="translate(0,-4.25197)">
					<title>Blad.33</title>
					<path d="M3.74 196.09 L4.1 196.09 L58.26 196.09" class="st5"/>
				</g>
			</g>
			<g id="shape34-100" v:mID="34" v:groupContext="shape">
				<title>Blad.34</title>
				<desc>2.2 m</desc>
				<v:textBlock v:margins="rect(4,4,4,4)" v:tabSpace="42.5197"/>
				<v:textRect cx="31.1811" cy="188.999" width="62.37" height="14.1732"/>
				<rect x="0" y="181.912" width="62.3622" height="14.1732" class="st7"/>
				<text x="17.51" y="192.6" class="st8" v:langID="1043"><v:paragraph v:horizAlign="1"/><v:tabList/>2.2 m</text>			</g>
		</g>
		<g id="group35-103" transform="translate(62.7372,-110.926)" v:mID="35" v:groupContext="group">
			<title>qz-last constant</title>
			<g id="shape36-104" v:mID="36" v:groupContext="shape" transform="translate(0,-14.1732)">
				<title>A.58</title>
				<desc>10 kN/m</desc>
				<v:textBlock v:margins="rect(4,4,4,4)" v:tabSpace="42.5197"/>
				<v:textRect cx="36.8504" cy="188.999" width="73.71" height="14.1732"/>
				<rect x="0" y="181.912" width="73.7008" height="14.1732" class="st9"/>
				<text x="15.68" y="192.6" class="st8" v:langID="1043"><v:paragraph v:horizAlign="1"/><v:tabList/>10 kN/m</text>			</g>
			<g id="shape37-107" v:mID="37" v:groupContext="shape" transform="translate(196.086,181.912) rotate(90)">
				<title>Kracht.5</title>
				<path d="M0 196.09 L9.55 196.09" class="st10"/>
			</g>
			<g id="shape38-113" v:mID="38" v:groupContext="shape" transform="translate(1.59872E-14,-14.1732)">
				<title>Blad.38</title>
				<path d="M0 196.09 L73.7 196.09" class="st12"/>
			</g>
			<g id="shape39-116" v:mID="39" v:groupContext="shape" transform="translate(210.826,181.912) rotate(90)">
				<title>Kracht.4</title>
				<path d="M0 196.09 L9.55 196.09" class="st10"/>
			</g>
			<g id="shape40-121" v:mID="40" v:groupContext="shape" transform="translate(225.566,181.912) rotate(90)">
				<title>Kracht.9</title>
				<path d="M0 196.09 L9.55 196.09" class="st10"/>
			</g>
			<g id="shape41-126" v:mID="41" v:groupContext="shape" transform="translate(269.786,181.912) rotate(90)">
				<title>Kracht.6</title>
				<path d="M0 196.09 L9.55 196.09" class="st10"/>
			</g>
			<g id="shape42-131" v:mID="42" v:groupContext="shape" transform="translate(255.046,181.912) rotate(90)">
				<title>Kracht.37</title>
				<path d="M0 196.09 L9.55 196.09" class="st10"/>
			</g>
			<g id="shape43-136" v:mID="43" v:groupContext="shape" transform="translate(240.306,181.912) rotate(90)">
				<title>Kracht.7</title>
				<path d="M0 196.09 L9.55 196.09" class="st10"/>
			</g>
		</g>
		<g id="shape44-141" v:mID="44" v:groupContext="shape" transform="translate(394.886,85.1594) rotate(90)">
			<title>Kracht</title>
			<path d="M7.55 196.09 L7.91 196.09 L28.35 196.09" class="st13"/>
		</g>
		<g id="shape45-147" v:mID="45" v:groupContext="shape" transform="translate(198.8,-82.5797)">
			<title>A.58</title>
			<desc>10 kN</desc>
			<v:textBlock v:margins="rect(4,4,4,4)" v:tabSpace="42.5197"/>
			<v:textRect cx="22.252" cy="188.999" width="44.51" height="14.1732"/>
			<rect x="0" y="181.912" width="44.5039" height="14.1732" class="st9"/>
			<text x="7.42" y="192.6" class="st8" v:langID="1043"><v:paragraph v:horizAlign="1"/><v:tabList/>10 kN</text>		</g>
		<g id="group46-150" transform="translate(205.887,-96.753)" v:mID="46" v:groupContext="group">
			<title>x-as</title>
			<g id="shape47-151" v:mID="47" v:groupContext="shape" transform="translate(-2.23802E-12,-14.1732)">
				<title>Blad.47</title>
				<path d="M0 196.09 L22.62 196.09" class="st15"/>
			</g>
			<g id="shape48-158" v:mID="48" v:groupContext="shape" transform="translate(14.1732,2.84217E-14)">
				<title>Blad.48</title>
				<desc>x</desc>
				<v:textBlock v:margins="rect(4,4,4,4)" v:tabSpace="42.5197"/>
				<v:textRect cx="7.08661" cy="188.999" width="14.18" height="14.1732"/>
				<rect x="0" y="181.912" width="14.1732" height="14.1732" class="st7"/>
				<text x="4.42" y="192.6" class="st17" v:langID="1043"><v:paragraph v:horizAlign="1"/><v:tabList/>x</text>			</g>
		</g>
		<g id="group49-161" transform="translate(11.7136,-42.8947)" v:mID="49" v:groupContext="group">
			<title>z-as</title>
			<g id="shape50-162" v:mID="50" v:groupContext="shape" transform="translate(196.086,147.897) rotate(90)">
				<title>Blad.50</title>
				<path d="M0 196.09 L42.47 196.09" class="st15"/>
			</g>
			<g id="shape51-167" v:mID="51" v:groupContext="shape" transform="translate(5.09592E-14,6.37795)">
				<title>Blad.51</title>
				<desc>z</desc>
				<v:textBlock v:margins="rect(4,4,4,4)" v:tabSpace="42.5197"/>
				<v:textRect cx="7.08661" cy="184.038" width="14.18" height="24.0945"/>
				<rect x="0" y="171.991" width="14.1732" height="24.0945" class="st7"/>
				<text x="4.75" y="187.64" class="st17" v:langID="1043"><v:paragraph v:horizAlign="1"/><v:tabList/>z</text>			</g>
		</g>
		<g id="shape95-170" v:mID="95" v:groupContext="shape" transform="translate(295.178,-47.1467)">
			<title>Blad.95</title>
			<path d="M0 196.09 L42.52 196.09" class="st18"/>
		</g>
		<g id="shape96-173" v:mID="96" v:groupContext="shape" transform="translate(141.612,148.939) rotate(-90)">
			<title>Blad.96</title>
			<path d="M0 196.09 L127.56 196.09" class="st19"/>
		</g>
		<g id="shape97-176" v:mID="97" v:groupContext="shape" transform="translate(99.0926,148.939) rotate(-90)">
			<title>Blad.97</title>
			<path d="M0 196.09 L127.56 196.09" class="st19"/>
		</g>
		<g id="shape98-179" v:mID="98" v:groupContext="shape" transform="translate(295.178,-174.706)">
			<title>Blad.98</title>
			<path d="M0 196.09 L42.52 196.09" class="st18"/>
		</g>
		<g id="group99-182" transform="translate(316.438,-82.5798)" v:mID="99" v:groupContext="group">
			<title>z-as.99</title>
			<g id="shape100-183" v:mID="100" v:groupContext="shape" transform="translate(196.086,167.739) rotate(90)">
				<title>Blad.100</title>
				<path d="M0 196.09 L22.62 196.09" class="st15"/>
			</g>
			<g id="shape101-188" v:mID="101" v:groupContext="shape">
				<title>Blad.101</title>
				<desc>z</desc>
				<v:textBlock v:margins="rect(4,4,4,4)" v:tabSpace="42.5197"/>
				<v:textRect cx="7.08661" cy="188.999" width="14.18" height="14.1732"/>
				<rect x="0" y="181.912" width="14.1732" height="14.1732" class="st7"/>
				<text x="4.75" y="192.6" class="st17" v:langID="1043"><v:paragraph v:horizAlign="1"/><v:tabList/>z</text>			</g>
		</g>
		<g id="group102-191" transform="translate(316.438,267.072) rotate(180)" v:mID="102" v:groupContext="group">
			<title>x-as.102</title>
			<g id="shape103-192" v:mID="103" v:groupContext="shape" transform="translate(-2.21604E-12,-14.1732)">
				<title>Blad.103</title>
				<path d="M0 196.09 L50.97 196.09" class="st15"/>
			</g>
			<g id="shape104-197" v:mID="104" v:groupContext="shape" transform="translate(63.7795,363.825) rotate(180)">
				<title>Blad.104</title>
				<desc>y</desc>
				<v:textBlock v:margins="rect(4,4,4,4)" v:tabSpace="42.5197"/>
				<v:textRect cx="14.1732" cy="188.999" width="28.35" height="14.1732"/>
				<rect x="0" y="181.912" width="28.3465" height="14.1732" class="st7"/>
				<text x="11.51" y="192.6" class="st17" v:langID="1043"><v:paragraph v:horizAlign="1"/><v:tabList/>y</text>			</g>
		</g>
		<g id="group105-200" transform="translate(316.438,-160.532)" v:mID="105" v:groupContext="group">
			<title>Dikte dunwandige doorsnede</title>
			<g id="shape106-201" v:mID="106" v:groupContext="shape" transform="translate(-196.086,179.078) rotate(-90)">
				<title>Blad.106</title>
				<path d="M3.02 196.09 L3.38 196.09 L11.34 196.09" class="st20"/>
			</g>
			<g id="shape107-207" v:mID="107" v:groupContext="shape" transform="translate(196.086,184.747) rotate(90)">
				<title>Blad.107</title>
				<path d="M3.02 196.09 L3.38 196.09 L11.34 196.09" class="st20"/>
			</g>
		</g>
		<g id="group113-212" transform="translate(324.092,-68.4065)" v:mID="113" v:groupContext="group">
			<title>Blad.113</title>
			<g id="shape110-213" v:mID="110" v:groupContext="shape" transform="translate(11.3386,392.171) rotate(180)">
				<title>Blad.110</title>
				<path d="M3.02 196.09 L3.38 196.09 L11.34 196.09" class="st20"/>
			</g>
			<g id="shape112-218" v:mID="112" v:groupContext="shape" transform="translate(15.874,2.84217E-14)">
				<title>Blad.112</title>
				<path d="M3.02 196.09 L3.38 196.09 L11.34 196.09" class="st20"/>
			</g>
		</g>
		<g id="group114-223" transform="translate(281.572,-68.4065)" v:mID="114" v:groupContext="group">
			<title>Blad.114</title>
			<g id="shape115-224" v:mID="115" v:groupContext="shape" transform="translate(11.3386,392.171) rotate(180)">
				<title>Blad.115</title>
				<path d="M3.02 196.09 L3.38 196.09 L11.34 196.09" class="st20"/>
			</g>
			<g id="shape116-229" v:mID="116" v:groupContext="shape" transform="translate(15.874,2.84217E-14)">
				<title>Blad.116</title>
				<path d="M3.02 196.09 L3.38 196.09 L11.34 196.09" class="st20"/>
			</g>
		</g>
		<g id="group117-234" transform="translate(316.438,-32.9734)" v:mID="117" v:groupContext="group">
			<title>Dikte dunwandige doorsnede.117</title>
			<g id="shape118-235" v:mID="118" v:groupContext="shape" transform="translate(-196.086,179.078) rotate(-90)">
				<title>Blad.118</title>
				<path d="M3.02 196.09 L3.38 196.09 L11.34 196.09" class="st20"/>
			</g>
			<g id="shape119-240" v:mID="119" v:groupContext="shape" transform="translate(196.086,184.747) rotate(90)">
				<title>Blad.119</title>
				<path d="M3.02 196.09 L3.38 196.09 L11.34 196.09" class="st20"/>
			</g>
		</g>
		<g id="shape120-245" v:mID="120" v:groupContext="shape" transform="translate(337.698,-68.4065)">
			<title>A.120</title>
			<desc>4 mm</desc>
			<v:textBlock v:margins="rect(4,4,4,4)" v:tabSpace="42.5197"/>
			<v:textRect cx="22.252" cy="188.999" width="44.51" height="14.1732"/>
			<rect x="0" y="181.912" width="44.5039" height="14.1732" class="st9"/>
			<text x="8.42" y="192.6" class="st8" v:langID="1043"><v:paragraph v:horizAlign="1"/><v:tabList/>4 mm</text>		</g>
		<g id="shape121-248" v:mID="121" v:groupContext="shape" transform="translate(316.438,-181.792)">
			<title>A.121</title>
			<desc>12 mm</desc>
			<v:textBlock v:margins="rect(4,4,4,4)" v:tabSpace="42.5197"/>
			<v:textRect cx="22.252" cy="188.999" width="44.51" height="14.1732"/>
			<rect x="0" y="181.912" width="44.5039" height="14.1732" class="st9"/>
			<text x="5.42" y="192.6" class="st8" v:langID="1043"><v:paragraph v:horizAlign="1"/><v:tabList/>12 mm</text>		</g>
		<g id="shape122-251" v:mID="122" v:groupContext="shape" transform="translate(316.155,-25.8868)">
			<title>A.122</title>
			<desc>12 mm</desc>
			<v:textBlock v:margins="rect(4,4,4,4)" v:tabSpace="42.5197"/>
			<v:textRect cx="22.252" cy="188.999" width="44.51" height="14.1732"/>
			<rect x="0" y="181.912" width="44.5039" height="14.1732" class="st9"/>
			<text x="5.42" y="192.6" class="st8" v:langID="1043"><v:paragraph v:horizAlign="1"/><v:tabList/>12 mm</text>		</g>
		<g id="shape123-254" v:mID="123" v:groupContext="shape" transform="translate(251.666,-68.4065)">
			<title>A.123</title>
			<desc>4 mm</desc>
			<v:textBlock v:margins="rect(4,4,4,4)" v:tabSpace="42.5197"/>
			<v:textRect cx="22.252" cy="188.999" width="44.51" height="14.1732"/>
			<rect x="0" y="181.912" width="44.5039" height="14.1732" class="st9"/>
			<text x="8.42" y="192.6" class="st8" v:langID="1043"><v:paragraph v:horizAlign="1"/><v:tabList/>4 mm</text>		</g>
		<g id="group124-257" transform="translate(295.178,-0.375)" v:mID="124" v:groupContext="group">
			<title>Maatlijn.124</title>
			<g id="group125-258" transform="translate(0,-9.92126)" v:mID="125" v:groupContext="group">
				<title>Maatlijn.31</title>
				<g id="shape126-259" v:mID="126" v:groupContext="shape" transform="translate(196.086,187.582) rotate(90)">
					<title>Blad.126</title>
					<path d="M0 196.09 L8.5 196.09" class="st4"/>
				</g>
				<g id="shape127-262" v:mID="127" v:groupContext="shape" transform="translate(240.59,187.582) rotate(90)">
					<title>Blad.127</title>
					<path d="M0 196.09 L8.5 196.09" class="st4"/>
				</g>
				<g id="shape128-265" v:mID="128" v:groupContext="shape" transform="translate(0,-4.25197)">
					<title>Blad.128</title>
					<path d="M3.74 196.09 L4.1 196.09 L40.4 196.09" class="st5"/>
				</g>
			</g>
			<g id="shape129-272" v:mID="129" v:groupContext="shape" transform="translate(-14.1732,5.68434E-14)">
				<title>Blad.129</title>
				<desc>100 mm</desc>
				<v:textBlock v:margins="rect(4,4,4,4)" v:tabSpace="42.5197"/>
				<v:textRect cx="35.4331" cy="188.999" width="70.87" height="14.1732"/>
				<rect x="0" y="181.912" width="70.8661" height="14.1732" class="st7"/>
				<text x="15.6" y="192.6" class="st8" v:langID="1043"><v:paragraph v:horizAlign="1"/><v:tabList/>100 mm</text>			</g>
		</g>
		<g id="group130-275" transform="translate(375.966,-47.1467)" v:mID="130" v:groupContext="group">
			<title>Maatlijn verticaal</title>
			<g id="group131-276" transform="translate(-187.582,196.086) rotate(-90)" v:mID="131" v:groupContext="group">
				<title>Maatlijn.31</title>
				<g id="shape132-277" v:mID="132" v:groupContext="shape" transform="translate(196.086,187.582) rotate(90)">
					<title>Blad.132</title>
					<path d="M0 196.09 L8.5 196.09" class="st4"/>
				</g>
				<g id="shape133-280" v:mID="133" v:groupContext="shape" transform="translate(259.865,187.582) rotate(90)">
					<title>Blad.133</title>
					<path d="M0 196.09 L8.5 196.09" class="st4"/>
				</g>
				<g id="shape134-283" v:mID="134" v:groupContext="shape" transform="translate(0,-4.25197)">
					<title>Blad.134</title>
					<path d="M3.74 196.09 L4.1 196.09 L59.68 196.09" class="st5"/>
				</g>
			</g>
			<g id="shape135-290" v:mID="135" v:groupContext="shape" transform="translate(4.25197,-25.5118)">
				<title>Blad.135</title>
				<desc>150 mm</desc>
				<v:textBlock v:margins="rect(4,4,4,4)" v:tabSpace="42.5197"/>
				<v:textRect cx="25.5118" cy="189.708" width="51.03" height="12.7559"/>
				<rect x="0" y="183.33" width="51.0236" height="12.7559" class="st7"/>
				<text x="5.68" y="193.31" class="st8" v:langID="1043"><v:paragraph v:horizAlign="1"/><v:tabList/>150 mm</text>			</g>
		</g>
		<g id="shape136-293" v:mID="136" v:groupContext="shape" transform="translate(11.7136,-110.926)">
			<title>Punt A</title>
			<desc>A</desc>
			<v:textBlock v:margins="rect(4,4,4,4)" v:tabSpace="42.5197"/>
			<v:textRect cx="7.08661" cy="188.999" width="14.18" height="14.1732"/>
			<rect x="0" y="181.912" width="14.1732" height="14.1732" class="st9"/>
			<text x="4" y="192.6" class="st8" v:langID="1043"><v:paragraph v:horizAlign="1"/><v:tabList/>A</text>		</g>
		<g id="shape137-296" v:mID="137" v:groupContext="shape" transform="translate(55.6506,-96.753)">
			<title>Punt A.137</title>
			<desc>B</desc>
			<v:textBlock v:margins="rect(4,4,4,4)" v:tabSpace="42.5197"/>
			<v:textRect cx="7.08661" cy="188.999" width="14.18" height="14.1732"/>
			<rect x="0" y="181.912" width="14.1732" height="14.1732" class="st9"/>
			<text x="4" y="192.6" class="st8" v:langID="1043"><v:paragraph v:horizAlign="1"/><v:tabList/>B</text>		</g>
		<g id="shape138-299" v:mID="138" v:groupContext="shape" transform="translate(129.351,-96.753)">
			<title>Punt A.138</title>
			<desc>C</desc>
			<v:textBlock v:margins="rect(4,4,4,4)" v:tabSpace="42.5197"/>
			<v:textRect cx="7.08661" cy="188.999" width="14.18" height="14.1732"/>
			<rect x="0" y="181.912" width="14.1732" height="14.1732" class="st9"/>
			<text x="4" y="192.6" class="st8" v:langID="1043"><v:paragraph v:horizAlign="1"/><v:tabList/>C</text>		</g>
		<g id="shape139-302" v:mID="139" v:groupContext="shape" transform="translate(191.714,-110.926)">
			<title>Punt A.139</title>
			<desc>D</desc>
			<v:textBlock v:margins="rect(4,4,4,4)" v:tabSpace="42.5197"/>
			<v:textRect cx="7.08661" cy="188.999" width="14.18" height="14.1732"/>
			<rect x="0" y="181.912" width="14.1732" height="14.1732" class="st9"/>
			<text x="4" y="192.6" class="st8" v:langID="1043"><v:paragraph v:horizAlign="1"/><v:tabList/>D</text>		</g>
		<g id="shape140-305" v:mID="140" v:groupContext="shape" transform="translate(278.454,-135.588)">
			<title>Punt A.140</title>
			<desc>E</desc>
			<v:textBlock v:margins="rect(4,4,4,4)" v:tabSpace="42.5197"/>
			<v:textRect cx="7.08661" cy="188.999" width="14.18" height="14.1732"/>
			<rect x="0" y="181.912" width="14.1732" height="14.1732" class="st9"/>
			<text x="4" y="192.6" class="st8" v:langID="1043"><v:paragraph v:horizAlign="1"/><v:tabList/>E</text>		</g>
		<g id="shape141-308" v:mID="141" v:groupContext="shape" transform="translate(295.178,249.355) rotate(180)">
			<title>Blad.141</title>
			<path d="M0 196.09 L4.25 196.09" class="st2"/>
		</g>
		<g id="shape142-311" v:mID="142" v:groupContext="shape" transform="translate(299.43,249.355) rotate(180)">
			<title>Blad.142</title>
			<path d="M0 196.09 L4.25 196.09" class="st2"/>
		</g>
		<g id="group143-314" transform="translate(375.966,-110.926)" v:mID="143" v:groupContext="group">
			<title>Maatlijn verticaal.143</title>
			<g id="group144-315" transform="translate(-187.582,196.086) rotate(-90)" v:mID="144" v:groupContext="group">
				<title>Maatlijn.31</title>
				<g id="shape145-316" v:mID="145" v:groupContext="shape" transform="translate(196.086,187.582) rotate(90)">
					<title>Blad.145</title>
					<path d="M0 196.09 L8.5 196.09" class="st4"/>
				</g>
				<g id="shape146-319" v:mID="146" v:groupContext="shape" transform="translate(227.975,187.582) rotate(90)">
					<title>Blad.146</title>
					<path d="M0 196.09 L8.5 196.09" class="st4"/>
				</g>
				<g id="shape147-322" v:mID="147" v:groupContext="shape" transform="translate(0,-4.25197)">
					<title>Blad.147</title>
					<path d="M3.74 196.09 L4.1 196.09 L27.79 196.09" class="st5"/>
				</g>
			</g>
			<g id="shape148-329" v:mID="148" v:groupContext="shape" transform="translate(4.25197,-12.7559)">
				<title>Blad.148</title>
				<desc>75 mm</desc>
				<v:textBlock v:margins="rect(4,4,4,4)" v:tabSpace="42.5197"/>
				<v:textRect cx="25.5118" cy="192.897" width="51.03" height="6.37795"/>
				<rect x="0" y="189.708" width="51.0236" height="6.37795" class="st7"/>
				<text x="8.68" y="196.5" class="st8" v:langID="1043"><v:paragraph v:horizAlign="1"/><v:tabList/>75 mm</text>			</g>
		</g>
		<g id="group149-332" transform="translate(375.966,-142.816)" v:mID="149" v:groupContext="group">
			<title>Maatlijn verticaal.149</title>
			<g id="group150-333" transform="translate(-187.582,196.086) rotate(-90)" v:mID="150" v:groupContext="group">
				<title>Maatlijn.31</title>
				<g id="shape151-334" v:mID="151" v:groupContext="shape" transform="translate(196.086,187.582) rotate(90)">
					<title>Blad.151</title>
					<path d="M0 196.09 L8.5 196.09" class="st4"/>
				</g>
				<g id="shape152-337" v:mID="152" v:groupContext="shape" transform="translate(227.975,187.582) rotate(90)">
					<title>Blad.152</title>
					<path d="M0 196.09 L8.5 196.09" class="st4"/>
				</g>
				<g id="shape153-340" v:mID="153" v:groupContext="shape" transform="translate(0,-4.25197)">
					<title>Blad.153</title>
					<path d="M3.74 196.09 L4.1 196.09 L27.79 196.09" class="st5"/>
				</g>
			</g>
			<g id="shape154-347" v:mID="154" v:groupContext="shape" transform="translate(4.25197,-12.7559)">
				<title>Blad.154</title>
				<desc>75 mm</desc>
				<v:textBlock v:margins="rect(4,4,4,4)" v:tabSpace="42.5197"/>
				<v:textRect cx="25.5118" cy="192.897" width="51.03" height="6.37795"/>
				<rect x="0" y="189.708" width="51.0236" height="6.37795" class="st7"/>
				<text x="8.68" y="196.5" class="st8" v:langID="1043"><v:paragraph v:horizAlign="1"/><v:tabList/>75 mm</text>			</g>
		</g>
		<g id="shape2012-350" v:mID="2012" v:groupContext="shape" transform="translate(5.54824,-160.532)">
			<title>A.2012</title>
			<desc>Forces are applied to shear-force centre Cross-section can be...</desc>
			<v:textBlock v:margins="rect(4,4,4,4)" v:tabSpace="42.5197"/>
			<v:textRect cx="133.724" cy="188.999" width="267.45" height="14.1732"/>
			<rect x="0" y="181.912" width="267.449" height="14.1732" class="st9"/>
			<text x="38.94" y="185.4" class="st8" v:langID="1043"><v:paragraph v:horizAlign="1"/><v:tabList/>Forces are applied to shear-force centre<v:newlineChar/><tspan
						x="24.92" dy="1.2em" class="st22">Cross</tspan>-section can be modelled as thin-walled</text>		</g>
	</g>
</svg>
